<?xml version="1.0" encoding="utf-8" standalone="no"?>
<!DOCTYPE svg PUBLIC "-//W3C//DTD SVG 1.1//EN"
  "http://www.w3.org/Graphics/SVG/1.1/DTD/svg11.dtd">
<svg xmlns:xlink="http://www.w3.org/1999/xlink" width="1139.0996pt" height="313.000156pt" viewBox="0 0 1139.0996 313.000156" xmlns="http://www.w3.org/2000/svg" version="1.1">
 <metadata>
  <rdf:RDF xmlns:dc="http://purl.org/dc/elements/1.1/" xmlns:cc="http://creativecommons.org/ns#" xmlns:rdf="http://www.w3.org/1999/02/22-rdf-syntax-ns#">
   <cc:Work>
    <dc:type rdf:resource="http://purl.org/dc/dcmitype/StillImage"/>
    <dc:date>2026-02-10T14:44:00.785019</dc:date>
    <dc:format>image/svg+xml</dc:format>
    <dc:creator>
     <cc:Agent>
      <dc:title>Matplotlib v3.10.1, https://matplotlib.org/</dc:title>
     </cc:Agent>
    </dc:creator>
   </cc:Work>
  </rdf:RDF>
 </metadata>
 <defs>
  <style type="text/css">*{stroke-linejoin: round; stroke-linecap: butt}</style>
 </defs>
 <g id="figure_1">
  <g id="patch_1">
   <path d="M 0 313.000156 
L 1139.0996 313.000156 
L 1139.0996 0 
L 0 0 
z
" style="fill: #ffffff"/>
  </g>
  <g id="axes_1">
   <g id="patch_2">
    <path d="M 105.723529 253.400156 
L 401.135294 253.400156 
L 401.135294 31.640156 
L 105.723529 31.640156 
z
" style="fill: #ffffff"/>
   </g>
   <g id="matplotlib.axis_1">
    <g id="xtick_1">
     <g id="line2d_1">
      <path d="M 179.576471 253.400156 
L 179.576471 31.640156 
" clip-path="url(#pfc237acdb1)" style="fill: none; stroke: #b0b0b0; stroke-width: 0.8; stroke-linecap: square"/>
     </g>
     <g id="line2d_2">
      <defs>
       <path id="m7928ea0c62" d="M 0 0 
L 0 3.5 
" style="stroke: #000000; stroke-width: 0.8"/>
      </defs>
      <g>
       <use xlink:href="#m7928ea0c62" x="179.576471" y="253.400156" style="stroke: #000000; stroke-width: 0.8"/>
      </g>
     </g>
     <g id="text_1">
      <!-- 100 -->
      <g transform="translate(161.576471 276.791406) scale(0.24 -0.24)">
       <defs>
        <path id="STIXGeneral-Regular-31" d="M 2522 0 
L 755 0 
L 755 96 
Q 1107 115 1235 227 
Q 1363 339 1363 608 
L 1363 3482 
Q 1363 3795 1171 3795 
Q 1082 3795 883 3718 
L 710 3654 
L 710 3744 
L 1856 4326 
L 1914 4307 
L 1914 486 
Q 1914 275 2042 185 
Q 2170 96 2522 96 
L 2522 0 
z
" transform="scale(0.015625)"/>
        <path id="STIXGeneral-Regular-30" d="M 3046 2112 
Q 3046 1683 2963 1302 
Q 2880 922 2717 602 
Q 2554 282 2266 96 
Q 1978 -90 1600 -90 
Q 1210 -90 915 108 
Q 621 307 461 640 
Q 301 973 227 1350 
Q 154 1728 154 2150 
Q 154 2746 301 3222 
Q 448 3699 790 4012 
Q 1133 4326 1626 4326 
Q 2253 4326 2649 3712 
Q 3046 3098 3046 2112 
z
M 2432 2080 
Q 2432 3091 2217 3625 
Q 2003 4160 1587 4160 
Q 1190 4160 979 3622 
Q 768 3085 768 2106 
Q 768 1120 979 598 
Q 1190 77 1600 77 
Q 2003 77 2217 598 
Q 2432 1120 2432 2080 
z
" transform="scale(0.015625)"/>
       </defs>
       <use xlink:href="#STIXGeneral-Regular-31"/>
       <use xlink:href="#STIXGeneral-Regular-30" transform="translate(49.999985 0)"/>
       <use xlink:href="#STIXGeneral-Regular-30" transform="translate(99.999969 0)"/>
      </g>
     </g>
    </g>
    <g id="xtick_2">
     <g id="line2d_3">
      <path d="M 253.429412 253.400156 
L 253.429412 31.640156 
" clip-path="url(#pfc237acdb1)" style="fill: none; stroke: #b0b0b0; stroke-width: 0.8; stroke-linecap: square"/>
     </g>
     <g id="line2d_4">
      <g>
       <use xlink:href="#m7928ea0c62" x="253.429412" y="253.400156" style="stroke: #000000; stroke-width: 0.8"/>
      </g>
     </g>
     <g id="text_2">
      <!-- 105 -->
      <g transform="translate(235.429412 276.791406) scale(0.24 -0.24)">
       <defs>
        <path id="STIXGeneral-Regular-35" d="M 2803 4358 
L 2573 3814 
Q 2534 3731 2400 3731 
L 1158 3731 
L 902 3187 
Q 1606 3053 1920 2896 
Q 2234 2739 2502 2368 
Q 2726 2061 2726 1555 
Q 2726 1094 2576 780 
Q 2426 467 2099 224 
Q 1664 -90 1011 -90 
Q 646 -90 422 19 
Q 198 128 198 307 
Q 198 550 486 550 
Q 717 550 960 352 
Q 1210 147 1414 147 
Q 1747 147 2012 480 
Q 2278 813 2278 1229 
Q 2278 1843 1850 2189 
Q 1293 2637 486 2637 
Q 410 2637 410 2688 
L 416 2720 
L 1114 4237 
L 2438 4237 
Q 2547 4237 2608 4269 
Q 2669 4301 2746 4403 
L 2803 4358 
z
" transform="scale(0.015625)"/>
       </defs>
       <use xlink:href="#STIXGeneral-Regular-31"/>
       <use xlink:href="#STIXGeneral-Regular-30" transform="translate(49.999985 0)"/>
       <use xlink:href="#STIXGeneral-Regular-35" transform="translate(99.999969 0)"/>
      </g>
     </g>
    </g>
    <g id="xtick_3">
     <g id="line2d_5">
      <path d="M 327.282353 253.400156 
L 327.282353 31.640156 
" clip-path="url(#pfc237acdb1)" style="fill: none; stroke: #b0b0b0; stroke-width: 0.8; stroke-linecap: square"/>
     </g>
     <g id="line2d_6">
      <g>
       <use xlink:href="#m7928ea0c62" x="327.282353" y="253.400156" style="stroke: #000000; stroke-width: 0.8"/>
      </g>
     </g>
     <g id="text_3">
      <!-- 110 -->
      <g transform="translate(309.282353 276.791406) scale(0.24 -0.24)">
       <use xlink:href="#STIXGeneral-Regular-31"/>
       <use xlink:href="#STIXGeneral-Regular-31" transform="translate(49.999985 0)"/>
       <use xlink:href="#STIXGeneral-Regular-30" transform="translate(99.999969 0)"/>
      </g>
     </g>
    </g>
    <g id="text_4">
     <!-- in % of IQN -->
     <g transform="translate(199.694412 301.025469) scale(0.22 -0.22)">
      <defs>
       <path id="STIXGeneral-Regular-69" d="M 1152 4045 
Q 1152 3904 1056 3811 
Q 960 3718 819 3718 
Q 685 3718 592 3811 
Q 499 3904 499 4045 
Q 499 4179 595 4275 
Q 691 4371 826 4371 
Q 966 4371 1059 4275 
Q 1152 4179 1152 4045 
z
M 1619 0 
L 102 0 
L 102 96 
Q 435 115 521 211 
Q 608 307 608 666 
L 608 2118 
Q 608 2342 563 2432 
Q 518 2522 397 2522 
Q 243 2522 128 2490 
L 128 2592 
L 1120 2944 
L 1146 2918 
L 1146 672 
Q 1146 314 1226 218 
Q 1306 122 1619 96 
L 1619 0 
z
" transform="scale(0.015625)"/>
       <path id="STIXGeneral-Regular-6e" d="M 3104 0 
L 1773 0 
L 1779 96 
Q 2016 115 2096 233 
Q 2176 352 2176 672 
L 2176 1946 
Q 2176 2592 1709 2592 
Q 1549 2592 1408 2515 
Q 1267 2438 1050 2227 
L 1050 461 
Q 1050 269 1136 192 
Q 1222 115 1466 96 
L 1466 0 
L 115 0 
L 115 96 
Q 358 115 435 214 
Q 512 314 512 602 
L 512 2157 
Q 512 2394 467 2483 
Q 422 2573 288 2573 
Q 160 2573 102 2547 
L 102 2656 
Q 550 2784 979 2944 
L 1030 2925 
L 1030 2426 
L 1037 2426 
Q 1491 2944 1958 2944 
Q 2323 2944 2518 2688 
Q 2714 2432 2714 1958 
L 2714 544 
Q 2714 288 2790 205 
Q 2867 122 3104 96 
L 3104 0 
z
" transform="scale(0.015625)"/>
       <path id="STIXGeneral-Regular-20" transform="scale(0.015625)"/>
       <path id="STIXGeneral-Regular-25" d="M 4390 1363 
Q 4390 781 4070 329 
Q 3750 -122 3341 -122 
Q 3014 -122 2790 134 
Q 2566 390 2566 762 
Q 2566 1274 2940 1693 
Q 3315 2112 3776 2112 
Q 4070 2112 4230 1917 
Q 4390 1722 4390 1363 
z
M 4243 1376 
Q 4243 1626 4131 1779 
Q 4019 1933 3840 1933 
Q 3654 1933 3526 1786 
Q 3315 1562 3171 1187 
Q 3027 813 3027 486 
Q 3027 301 3129 176 
Q 3232 51 3386 51 
Q 3718 51 3980 457 
Q 4243 864 4243 1376 
z
M 3974 4518 
L 1222 -115 
L 922 -115 
L 3443 4096 
Q 3264 3891 3094 3811 
Q 2925 3731 2669 3731 
Q 2445 3731 2182 3821 
Q 2208 3674 2208 3539 
Q 2208 3206 2067 2873 
Q 1926 2541 1696 2323 
Q 1453 2086 1146 2086 
Q 826 2086 608 2339 
Q 390 2592 390 2963 
Q 390 3507 761 3916 
Q 1133 4326 1626 4326 
Q 1792 4326 2010 4147 
Q 2310 3898 2624 3898 
Q 2918 3898 3084 3994 
Q 3251 4090 3693 4518 
L 3974 4518 
z
M 2054 3642 
Q 2054 3782 2025 3833 
Q 1997 3885 1894 3936 
Q 1747 4006 1613 4154 
Q 1414 4058 1331 3984 
Q 1248 3910 1152 3750 
Q 845 3264 845 2707 
Q 845 2509 944 2384 
Q 1043 2259 1210 2259 
Q 1549 2259 1801 2675 
Q 2054 3091 2054 3642 
z
" transform="scale(0.015625)"/>
       <path id="STIXGeneral-Regular-6f" d="M 3008 1478 
Q 3008 806 2608 371 
Q 2208 -64 1568 -64 
Q 979 -64 582 368 
Q 186 800 186 1459 
Q 186 2125 582 2534 
Q 979 2944 1626 2944 
Q 2221 2944 2614 2537 
Q 3008 2131 3008 1478 
z
M 2432 1306 
Q 2432 2035 2112 2445 
Q 1856 2765 1504 2765 
Q 1171 2765 966 2493 
Q 762 2221 762 1747 
Q 762 928 1101 435 
Q 1318 115 1677 115 
Q 2029 115 2230 432 
Q 2432 749 2432 1306 
z
" transform="scale(0.015625)"/>
       <path id="STIXGeneral-Regular-66" d="M 134 2880 
L 659 2880 
Q 666 3264 710 3478 
Q 755 3693 883 3910 
Q 1152 4371 1786 4371 
Q 2074 4371 2262 4259 
Q 2451 4147 2451 3974 
Q 2451 3866 2374 3789 
Q 2298 3712 2182 3712 
Q 2029 3712 1894 3942 
Q 1741 4192 1555 4192 
Q 1197 4192 1197 3622 
L 1197 2880 
L 1978 2880 
L 1978 2675 
L 1197 2675 
L 1197 666 
Q 1197 307 1299 208 
Q 1402 109 1792 96 
L 1792 0 
L 128 0 
L 128 96 
Q 474 115 566 214 
Q 659 314 659 666 
L 659 2675 
L 134 2675 
L 134 2880 
z
" transform="scale(0.015625)"/>
       <path id="STIXGeneral-Regular-49" d="M 2016 0 
L 115 0 
L 115 122 
Q 518 134 627 240 
Q 736 346 736 717 
L 736 3526 
Q 736 3898 633 3994 
Q 531 4090 115 4115 
L 115 4237 
L 2016 4237 
L 2016 4115 
Q 1613 4096 1501 3993 
Q 1389 3891 1389 3526 
L 1389 717 
Q 1389 358 1504 246 
Q 1619 134 2016 122 
L 2016 0 
z
" transform="scale(0.015625)"/>
       <path id="STIXGeneral-Regular-51" d="M 4486 -1133 
L 4179 -1133 
Q 2586 -1133 1958 -339 
L 1696 -6 
Q 1312 128 1097 265 
Q 883 403 704 640 
Q 218 1286 218 2125 
Q 218 3123 806 3724 
Q 1395 4326 2310 4326 
Q 3232 4326 3817 3721 
Q 4403 3117 4403 2131 
Q 4403 1568 4236 1158 
Q 4070 749 3712 410 
Q 3514 211 3293 115 
Q 3072 19 2726 -45 
Q 3066 -531 3491 -758 
Q 3917 -986 4486 -1018 
L 4486 -1133 
z
M 3674 2163 
Q 3674 2714 3520 3146 
Q 3366 3578 3091 3808 
Q 2746 4096 2291 4096 
Q 1741 4096 1370 3642 
Q 1178 3418 1062 3008 
Q 947 2598 947 2144 
Q 947 1158 1318 640 
Q 1472 416 1750 278 
Q 2029 141 2310 141 
Q 2867 141 3264 602 
Q 3456 819 3565 1248 
Q 3674 1677 3674 2163 
z
" transform="scale(0.015625)"/>
       <path id="STIXGeneral-Regular-4e" d="M 4525 4237 
L 4525 4115 
Q 4198 4083 4102 4000 
Q 4000 3910 3958 3756 
Q 3917 3603 3917 3245 
L 3917 -70 
L 3802 -70 
L 979 3443 
L 979 960 
Q 979 474 1088 323 
Q 1197 173 1574 122 
L 1574 0 
L 77 0 
L 77 122 
Q 474 166 586 310 
Q 698 454 698 960 
L 698 3776 
Q 531 3981 416 4048 
Q 301 4115 77 4115 
L 77 4237 
L 1165 4237 
L 3635 1146 
L 3635 3322 
Q 3635 3808 3514 3949 
Q 3437 4032 3344 4061 
Q 3251 4090 3008 4115 
L 3008 4237 
L 4525 4237 
z
" transform="scale(0.015625)"/>
      </defs>
      <use xlink:href="#STIXGeneral-Regular-69"/>
      <use xlink:href="#STIXGeneral-Regular-6e" transform="translate(27.799988 0)"/>
      <use xlink:href="#STIXGeneral-Regular-20" transform="translate(77.799973 0)"/>
      <use xlink:href="#STIXGeneral-Regular-25" transform="translate(102.799957 0)"/>
      <use xlink:href="#STIXGeneral-Regular-20" transform="translate(177.499939 0)"/>
      <use xlink:href="#STIXGeneral-Regular-6f" transform="translate(202.499924 0)"/>
      <use xlink:href="#STIXGeneral-Regular-66" transform="translate(252.499908 0)"/>
      <use xlink:href="#STIXGeneral-Regular-20" transform="translate(285.799896 0)"/>
      <use xlink:href="#STIXGeneral-Regular-49" transform="translate(310.799881 0)"/>
      <use xlink:href="#STIXGeneral-Regular-51" transform="translate(344.099869 0)"/>
      <use xlink:href="#STIXGeneral-Regular-4e" transform="translate(416.29985 0)"/>
     </g>
    </g>
   </g>
   <g id="matplotlib.axis_2">
    <g id="ytick_1">
     <g id="line2d_7">
      <path d="M 105.723529 226.520156 
L 401.135294 226.520156 
" clip-path="url(#pfc237acdb1)" style="fill: none; stroke: #b0b0b0; stroke-width: 0.8; stroke-linecap: square"/>
     </g>
     <g id="line2d_8">
      <defs>
       <path id="m1bc939ce58" d="M 0 0 
L -3.5 0 
" style="stroke: #000000; stroke-width: 0.8"/>
      </defs>
      <g>
       <use xlink:href="#m1bc939ce58" x="105.723529" y="226.520156" style="stroke: #000000; stroke-width: 0.8"/>
      </g>
     </g>
     <g id="text_5">
      <!-- IQN -->
      <g transform="translate(66.736967 232.666875) scale(0.18 -0.18)">
       <use xlink:href="#STIXGeneral-Regular-49"/>
       <use xlink:href="#STIXGeneral-Regular-51" transform="translate(33.299988 0)"/>
       <use xlink:href="#STIXGeneral-Regular-4e" transform="translate(105.499969 0)"/>
      </g>
     </g>
    </g>
    <g id="ytick_2">
     <g id="line2d_9">
      <path d="M 105.723529 170.520156 
L 401.135294 170.520156 
" clip-path="url(#pfc237acdb1)" style="fill: none; stroke: #b0b0b0; stroke-width: 0.8; stroke-linecap: square"/>
     </g>
     <g id="line2d_10">
      <g>
       <use xlink:href="#m1bc939ce58" x="105.723529" y="170.520156" style="stroke: #000000; stroke-width: 0.8"/>
      </g>
     </g>
     <g id="text_6">
      <!-- IQN+ -->
      <g transform="translate(54.406967 168.566875) scale(0.18 -0.18)">
       <defs>
        <path id="STIXGeneral-Regular-2b" d="M 4070 1408 
L 2400 1408 
L 2400 -262 
L 1978 -262 
L 1978 1408 
L 307 1408 
L 307 1830 
L 1978 1830 
L 1978 3501 
L 2400 3501 
L 2400 1830 
L 4070 1830 
L 4070 1408 
z
" transform="scale(0.015625)"/>
       </defs>
       <use xlink:href="#STIXGeneral-Regular-49"/>
       <use xlink:href="#STIXGeneral-Regular-51" transform="translate(33.299988 0)"/>
       <use xlink:href="#STIXGeneral-Regular-4e" transform="translate(105.499969 0)"/>
       <use xlink:href="#STIXGeneral-Regular-2b" transform="translate(177.699951 0)"/>
      </g>
      <!-- MINTO -->
      <g transform="translate(39.736967 187.225563) scale(0.18 -0.18)">
       <defs>
        <path id="STIXGeneral-Regular-4d" d="M 5530 0 
L 3738 0 
L 3738 122 
Q 4115 147 4214 265 
Q 4314 384 4314 787 
L 4314 3661 
L 2682 0 
L 2592 0 
L 979 3514 
L 979 966 
Q 979 448 1088 294 
Q 1197 141 1574 122 
L 1574 0 
L 77 0 
L 77 122 
Q 358 141 480 205 
Q 602 269 650 432 
Q 698 595 698 966 
L 698 3514 
Q 698 3878 589 3984 
Q 480 4090 90 4115 
L 90 4237 
L 1357 4237 
L 2835 1024 
L 4250 4237 
L 5523 4237 
L 5523 4115 
Q 5178 4109 5072 3993 
Q 4966 3878 4966 3520 
L 4966 717 
Q 4966 378 5072 262 
Q 5178 147 5530 122 
L 5530 0 
z
" transform="scale(0.015625)"/>
        <path id="STIXGeneral-Regular-54" d="M 3795 3149 
L 3642 3149 
Q 3539 3674 3353 3821 
Q 3168 3968 2656 3968 
L 2278 3968 
L 2278 710 
Q 2278 346 2387 243 
Q 2496 141 2893 122 
L 2893 0 
L 1024 0 
L 1024 122 
Q 1427 147 1526 256 
Q 1626 365 1626 787 
L 1626 3968 
L 1242 3968 
Q 723 3968 540 3817 
Q 358 3667 262 3149 
L 109 3149 
L 154 4237 
L 3750 4237 
L 3795 3149 
z
" transform="scale(0.015625)"/>
        <path id="STIXGeneral-Regular-4f" d="M 4403 2118 
Q 4403 1133 3820 521 
Q 3238 -90 2310 -90 
Q 1376 -90 797 524 
Q 218 1139 218 2138 
Q 218 3110 797 3718 
Q 1376 4326 2310 4326 
Q 3245 4326 3824 3702 
Q 4403 3078 4403 2118 
z
M 3674 2157 
Q 3674 2701 3520 3133 
Q 3366 3565 3091 3795 
Q 2733 4096 2304 4096 
Q 1760 4096 1389 3667 
Q 1184 3437 1065 3011 
Q 947 2586 947 2125 
Q 947 960 1523 429 
Q 1837 141 2317 141 
Q 2816 141 3142 448 
Q 3674 960 3674 2157 
z
" transform="scale(0.015625)"/>
       </defs>
       <use xlink:href="#STIXGeneral-Regular-4d"/>
       <use xlink:href="#STIXGeneral-Regular-49" transform="translate(88.899994 0)"/>
       <use xlink:href="#STIXGeneral-Regular-4e" transform="translate(122.199982 0)"/>
       <use xlink:href="#STIXGeneral-Regular-54" transform="translate(194.399963 0)"/>
       <use xlink:href="#STIXGeneral-Regular-4f" transform="translate(255.499954 0)"/>
      </g>
     </g>
    </g>
    <g id="ytick_3">
     <g id="line2d_11">
      <path d="M 105.723529 114.520156 
L 401.135294 114.520156 
" clip-path="url(#pfc237acdb1)" style="fill: none; stroke: #b0b0b0; stroke-width: 0.8; stroke-linecap: square"/>
     </g>
     <g id="line2d_12">
      <g>
       <use xlink:href="#m1bc939ce58" x="105.723529" y="114.520156" style="stroke: #000000; stroke-width: 0.8"/>
      </g>
     </g>
     <g id="text_7">
      <!-- IQN -->
      <g transform="translate(66.736967 120.666875) scale(0.18 -0.18)">
       <use xlink:href="#STIXGeneral-Regular-49"/>
       <use xlink:href="#STIXGeneral-Regular-51" transform="translate(33.299988 0)"/>
       <use xlink:href="#STIXGeneral-Regular-4e" transform="translate(105.499969 0)"/>
      </g>
     </g>
    </g>
    <g id="ytick_4">
     <g id="line2d_13">
      <path d="M 105.723529 58.520156 
L 401.135294 58.520156 
" clip-path="url(#pfc237acdb1)" style="fill: none; stroke: #b0b0b0; stroke-width: 0.8; stroke-linecap: square"/>
     </g>
     <g id="line2d_14">
      <g>
       <use xlink:href="#m1bc939ce58" x="105.723529" y="58.520156" style="stroke: #000000; stroke-width: 0.8"/>
      </g>
     </g>
     <g id="text_8">
      <!-- IQN+ -->
      <g transform="translate(54.406967 56.566875) scale(0.18 -0.18)">
       <use xlink:href="#STIXGeneral-Regular-49"/>
       <use xlink:href="#STIXGeneral-Regular-51" transform="translate(33.299988 0)"/>
       <use xlink:href="#STIXGeneral-Regular-4e" transform="translate(105.499969 0)"/>
       <use xlink:href="#STIXGeneral-Regular-2b" transform="translate(177.699951 0)"/>
      </g>
      <!-- MINTO -->
      <g transform="translate(39.736967 75.225563) scale(0.18 -0.18)">
       <use xlink:href="#STIXGeneral-Regular-4d"/>
       <use xlink:href="#STIXGeneral-Regular-49" transform="translate(88.899994 0)"/>
       <use xlink:href="#STIXGeneral-Regular-4e" transform="translate(122.199982 0)"/>
       <use xlink:href="#STIXGeneral-Regular-54" transform="translate(194.399963 0)"/>
       <use xlink:href="#STIXGeneral-Regular-4f" transform="translate(255.499954 0)"/>
      </g>
     </g>
    </g>
   </g>
   <g id="patch_3">
    <path d="M 153.149739 243.320156 
L 211.987623 243.320156 
L 211.987623 209.720156 
L 153.149739 209.720156 
z
" clip-path="url(#pfc237acdb1)" style="fill: #9467bd; opacity: 0.7"/>
   </g>
   <g id="patch_4">
    <path d="M 270.008172 187.320156 
L 298.194371 187.320156 
L 298.194371 153.720156 
L 270.008172 153.720156 
z
" clip-path="url(#pfc237acdb1)" style="fill: #ce1126; opacity: 0.7"/>
   </g>
   <g id="patch_5">
    <path d="M 153.971206 131.320156 
L 209.202506 131.320156 
L 209.202506 97.720156 
L 153.971206 97.720156 
z
" clip-path="url(#pfc237acdb1)" style="fill: #9467bd; opacity: 0.7"/>
   </g>
   <g id="patch_6">
    <path d="M 251.775817 75.320156 
L 319.554362 75.320156 
L 319.554362 41.720156 
L 251.775817 41.720156 
z
" clip-path="url(#pfc237acdb1)" style="fill: #ce1126; opacity: 0.7"/>
   </g>
   <g id="line2d_15">
    <path d="M 2.329412 142.520156 
L 401.135294 142.520156 
" style="fill: none; stroke-dasharray: 11.1,4.8; stroke-dashoffset: 0; stroke: #000000; stroke-width: 3"/>
   </g>
   <g id="patch_7">
    <path d="M 105.723529 253.400156 
L 105.723529 31.640156 
" style="fill: none; stroke: #000000; stroke-width: 0.8; stroke-linejoin: miter; stroke-linecap: square"/>
   </g>
   <g id="patch_8">
    <path d="M 401.135294 253.400156 
L 401.135294 31.640156 
" style="fill: none; stroke: #000000; stroke-width: 0.8; stroke-linejoin: miter; stroke-linecap: square"/>
   </g>
   <g id="patch_9">
    <path d="M 105.723529 253.400156 
L 401.135294 253.400156 
" style="fill: none; stroke: #000000; stroke-width: 0.8; stroke-linejoin: miter; stroke-linecap: square"/>
   </g>
   <g id="patch_10">
    <path d="M 105.723529 31.640156 
L 401.135294 31.640156 
" style="fill: none; stroke: #000000; stroke-width: 0.8; stroke-linejoin: miter; stroke-linecap: square"/>
   </g>
   <g id="LineCollection_1">
    <path d="M 179.576471 243.320156 
L 179.576471 209.720156 
" clip-path="url(#pfc237acdb1)" style="fill: none; stroke: #000000; stroke-width: 3"/>
   </g>
   <g id="LineCollection_2">
    <path d="M 284.736714 187.320156 
L 284.736714 153.720156 
" clip-path="url(#pfc237acdb1)" style="fill: none; stroke: #000000; stroke-width: 3"/>
   </g>
   <g id="LineCollection_3">
    <path d="M 179.576471 131.320156 
L 179.576471 97.720156 
" clip-path="url(#pfc237acdb1)" style="fill: none; stroke: #000000; stroke-width: 3"/>
   </g>
   <g id="LineCollection_4">
    <path d="M 284.401549 75.320156 
L 284.401549 41.720156 
" clip-path="url(#pfc237acdb1)" style="fill: none; stroke: #000000; stroke-width: 3"/>
   </g>
   <g id="text_9">
    <!-- CNN -->
    <g transform="translate(22.225313 221.182188) rotate(-90) scale(0.22 -0.22)">
     <defs>
      <path id="STIXGeneral-Regular-43" d="M 3930 838 
L 4051 723 
Q 3482 -90 2304 -90 
Q 1376 -90 794 480 
Q 179 1082 179 2080 
Q 179 3014 755 3661 
Q 1357 4326 2310 4326 
Q 2720 4326 3072 4230 
Q 3475 4115 3514 4115 
Q 3725 4115 3782 4326 
L 3910 4326 
L 3968 2874 
L 3821 2874 
Q 3718 3334 3488 3584 
Q 3034 4070 2458 4070 
Q 1747 4070 1334 3548 
Q 922 3027 922 2182 
Q 922 1152 1382 653 
Q 1811 192 2522 192 
Q 2944 192 3251 339 
Q 3558 486 3930 838 
z
" transform="scale(0.015625)"/>
     </defs>
     <use xlink:href="#STIXGeneral-Regular-43"/>
     <use xlink:href="#STIXGeneral-Regular-4e" transform="translate(66.699997 0)"/>
     <use xlink:href="#STIXGeneral-Regular-4e" transform="translate(138.899979 0)"/>
    </g>
   </g>
   <g id="text_10">
    <!-- IMPALA -->
    <g transform="translate(22.225313 129.254844) rotate(-90) scale(0.22 -0.22)">
     <defs>
      <path id="STIXGeneral-Regular-50" d="M 102 4237 
L 1760 4237 
Q 2669 4237 3149 3834 
Q 3469 3565 3469 3072 
Q 3469 2560 3104 2234 
Q 2835 1990 2553 1916 
Q 2272 1843 1734 1843 
Q 1549 1843 1293 1862 
L 1293 717 
Q 1293 352 1398 246 
Q 1504 141 1894 122 
L 1894 0 
L 102 0 
L 102 122 
Q 474 147 557 256 
Q 640 365 640 781 
L 640 3526 
Q 640 3885 547 3987 
Q 454 4090 102 4115 
L 102 4237 
z
M 1293 3770 
L 1293 2118 
Q 1510 2099 1683 2099 
Q 2202 2099 2486 2352 
Q 2771 2605 2771 3040 
Q 2771 3558 2476 3779 
Q 2182 4000 1517 4000 
Q 1382 4000 1337 3952 
Q 1293 3904 1293 3770 
z
" transform="scale(0.015625)"/>
      <path id="STIXGeneral-Regular-41" d="M 4525 0 
L 2893 0 
L 2893 122 
Q 3149 122 3245 179 
Q 3334 224 3334 333 
Q 3334 499 3213 781 
L 2950 1382 
L 1274 1382 
L 979 653 
Q 922 506 922 384 
Q 922 237 1027 179 
Q 1133 122 1370 122 
L 1370 0 
L 96 0 
L 96 122 
Q 365 147 486 316 
Q 608 486 902 1190 
L 2221 4314 
L 2349 4314 
L 3923 710 
Q 4064 378 4176 262 
Q 4288 147 4525 122 
L 4525 0 
z
M 2861 1645 
L 2118 3405 
L 1382 1645 
L 2861 1645 
z
" transform="scale(0.015625)"/>
      <path id="STIXGeneral-Regular-4c" d="M 3827 1114 
L 3520 0 
L 77 0 
L 77 122 
Q 429 141 531 256 
Q 634 371 634 736 
L 634 3494 
Q 634 3872 541 3981 
Q 448 4090 77 4115 
L 77 4237 
L 1888 4237 
L 1888 4115 
Q 1498 4090 1392 3984 
Q 1286 3878 1286 3507 
L 1286 538 
Q 1286 358 1398 304 
Q 1510 250 1862 250 
L 2310 250 
Q 3085 250 3392 640 
Q 3520 813 3661 1114 
L 3827 1114 
z
" transform="scale(0.015625)"/>
     </defs>
     <use xlink:href="#STIXGeneral-Regular-49"/>
     <use xlink:href="#STIXGeneral-Regular-4d" transform="translate(33.299988 0)"/>
     <use xlink:href="#STIXGeneral-Regular-50" transform="translate(122.199982 0)"/>
     <use xlink:href="#STIXGeneral-Regular-41" transform="translate(177.899979 0)"/>
     <use xlink:href="#STIXGeneral-Regular-4c" transform="translate(250.09996 0)"/>
     <use xlink:href="#STIXGeneral-Regular-41" transform="translate(311.199951 0)"/>
    </g>
   </g>
   <g id="text_11">
    <!-- Area Under the Curve -->
    <g transform="translate(116.117909 25.640156) scale(0.27 -0.27)">
     <defs>
      <path id="STIXGeneral-Regular-72" d="M 1024 2931 
L 1024 2342 
Q 1267 2688 1430 2816 
Q 1594 2944 1792 2944 
Q 1958 2944 2051 2854 
Q 2144 2765 2144 2605 
Q 2144 2470 2077 2393 
Q 2010 2317 1894 2317 
Q 1773 2317 1638 2445 
Q 1536 2541 1472 2541 
Q 1338 2541 1181 2355 
Q 1024 2170 1024 2016 
L 1024 576 
Q 1024 301 1133 205 
Q 1242 109 1568 96 
L 1568 0 
L 32 0 
L 32 96 
Q 339 154 412 224 
Q 486 294 486 538 
L 486 2138 
Q 486 2349 438 2435 
Q 390 2522 269 2522 
Q 166 2522 45 2496 
L 45 2598 
Q 448 2726 992 2944 
L 1024 2931 
z
" transform="scale(0.015625)"/>
      <path id="STIXGeneral-Regular-65" d="M 2611 1050 
L 2714 1005 
Q 2330 -64 1376 -64 
Q 813 -64 486 329 
Q 160 723 160 1389 
Q 160 2074 525 2509 
Q 890 2944 1485 2944 
Q 2061 2944 2374 2502 
Q 2560 2246 2592 1773 
L 621 1773 
Q 646 1370 700 1158 
Q 755 947 915 730 
Q 1184 378 1626 378 
Q 1939 378 2153 531 
Q 2368 685 2611 1050 
z
M 634 1978 
L 1939 1978 
Q 1882 2381 1750 2547 
Q 1619 2714 1312 2714 
Q 1043 2714 864 2525 
Q 685 2336 634 1978 
z
" transform="scale(0.015625)"/>
      <path id="STIXGeneral-Regular-61" d="M 2829 422 
L 2829 243 
Q 2586 -64 2253 -64 
Q 1888 -64 1843 403 
L 1837 403 
Q 1427 -64 909 -64 
Q 608 -64 422 112 
Q 237 288 237 602 
Q 237 1050 685 1350 
Q 992 1555 1837 1869 
L 1837 2214 
Q 1837 2502 1699 2646 
Q 1562 2790 1338 2790 
Q 1146 2790 1018 2697 
Q 890 2605 890 2477 
Q 890 2419 909 2348 
Q 928 2278 928 2208 
Q 928 2112 841 2029 
Q 755 1946 634 1946 
Q 525 1946 441 2029 
Q 358 2112 358 2240 
Q 358 2547 685 2752 
Q 986 2944 1421 2944 
Q 1939 2944 2176 2656 
Q 2291 2522 2323 2384 
Q 2355 2246 2355 1946 
L 2355 723 
Q 2355 301 2554 301 
Q 2682 301 2829 422 
z
M 1837 813 
L 1837 1715 
Q 1248 1510 1018 1293 
Q 800 1094 800 800 
Q 800 557 921 432 
Q 1043 307 1242 307 
Q 1453 307 1613 410 
Q 1747 506 1792 589 
Q 1837 672 1837 813 
z
" transform="scale(0.015625)"/>
      <path id="STIXGeneral-Regular-55" d="M 4512 4237 
L 4512 4115 
Q 4122 4077 4016 3926 
Q 3910 3776 3910 3302 
L 3910 1670 
Q 3910 1178 3840 896 
Q 3770 614 3565 378 
Q 3155 -90 2272 -90 
Q 1574 -90 1184 205 
Q 666 589 666 1594 
L 666 3578 
Q 666 3898 566 3994 
Q 467 4090 90 4115 
L 90 4237 
L 1901 4237 
L 1901 4115 
Q 1517 4083 1417 3977 
Q 1318 3872 1318 3514 
L 1318 1517 
Q 1318 1101 1369 877 
Q 1421 653 1600 480 
Q 1901 192 2419 192 
Q 3066 192 3392 570 
Q 3539 749 3584 963 
Q 3629 1178 3629 1600 
L 3629 3283 
Q 3629 3782 3520 3936 
Q 3411 4090 3027 4115 
L 3027 4237 
L 4512 4237 
z
" transform="scale(0.015625)"/>
      <path id="STIXGeneral-Regular-64" d="M 3142 269 
L 2202 -64 
L 2176 -45 
L 2176 365 
Q 1869 -64 1357 -64 
Q 826 -64 499 317 
Q 173 698 173 1312 
Q 173 1990 563 2467 
Q 954 2944 1504 2944 
Q 1850 2944 2176 2669 
L 2176 3667 
Q 2176 3866 2118 3930 
Q 2061 3994 1882 3994 
Q 1792 3994 1741 3987 
L 1741 4090 
Q 2323 4243 2682 4371 
L 2714 4358 
L 2714 730 
Q 2714 506 2768 435 
Q 2822 365 2995 365 
Q 3034 365 3142 371 
L 3142 269 
z
M 2176 653 
L 2176 2125 
Q 2176 2381 1981 2573 
Q 1786 2765 1523 2765 
Q 1158 2765 940 2438 
Q 723 2112 723 1568 
Q 723 979 963 624 
Q 1203 269 1606 269 
Q 1907 269 2080 474 
Q 2176 582 2176 653 
z
" transform="scale(0.015625)"/>
      <path id="STIXGeneral-Regular-74" d="M 1702 493 
L 1786 422 
Q 1478 -64 1011 -64 
Q 448 -64 448 749 
L 448 2675 
L 109 2675 
Q 83 2694 83 2720 
Q 83 2771 192 2842 
Q 435 2982 813 3526 
Q 826 3546 874 3606 
Q 922 3667 941 3706 
Q 986 3706 986 3622 
L 986 2880 
L 1632 2880 
L 1632 2675 
L 986 2675 
L 986 845 
Q 986 538 1062 403 
Q 1139 269 1318 269 
Q 1510 269 1702 493 
z
" transform="scale(0.015625)"/>
      <path id="STIXGeneral-Regular-68" d="M 3117 0 
L 1760 0 
L 1760 96 
Q 2042 128 2118 224 
Q 2195 320 2195 653 
L 2195 1920 
Q 2195 2598 1722 2598 
Q 1530 2598 1370 2508 
Q 1210 2419 1005 2195 
L 1005 653 
Q 1005 320 1081 224 
Q 1158 128 1440 96 
L 1440 0 
L 58 0 
L 58 96 
Q 333 134 400 224 
Q 467 314 467 653 
L 467 3667 
Q 467 3872 406 3933 
Q 346 3994 141 3994 
Q 83 3994 64 3987 
L 64 4090 
L 237 4141 
Q 730 4288 973 4371 
L 1005 4352 
L 1005 2406 
Q 1229 2694 1446 2819 
Q 1664 2944 1946 2944 
Q 2733 2944 2733 1926 
L 2733 653 
Q 2733 320 2793 233 
Q 2854 147 3117 96 
L 3117 0 
z
" transform="scale(0.015625)"/>
      <path id="STIXGeneral-Regular-75" d="M 3072 320 
L 3072 230 
Q 2573 96 2195 -58 
L 2163 -38 
L 2163 486 
L 2150 486 
Q 1747 -64 1235 -64 
Q 870 -64 662 160 
Q 454 384 454 755 
L 454 2362 
Q 454 2598 371 2688 
Q 288 2778 58 2790 
L 58 2880 
L 992 2880 
L 992 813 
Q 992 595 1123 451 
Q 1254 307 1446 307 
Q 1760 307 1984 506 
Q 2067 582 2099 649 
Q 2131 717 2131 877 
L 2131 2355 
Q 2131 2605 2041 2678 
Q 1952 2752 1658 2771 
L 1658 2880 
L 2669 2880 
L 2669 685 
Q 2669 461 2742 390 
Q 2816 320 3034 320 
L 3072 320 
z
" transform="scale(0.015625)"/>
      <path id="STIXGeneral-Regular-76" d="M 3053 2880 
L 3053 2784 
Q 2906 2771 2835 2688 
Q 2765 2605 2637 2285 
L 1818 230 
Q 1690 -90 1638 -90 
Q 1587 -90 1523 77 
Q 1510 96 1497 141 
Q 1485 186 1472 211 
L 704 2048 
Q 499 2534 403 2652 
Q 307 2771 122 2784 
L 122 2880 
L 1376 2880 
L 1376 2784 
Q 1210 2771 1146 2732 
Q 1082 2694 1082 2611 
Q 1082 2509 1139 2368 
L 1792 730 
L 2426 2387 
Q 2464 2483 2464 2579 
Q 2464 2758 2163 2784 
L 2163 2880 
L 3053 2880 
z
" transform="scale(0.015625)"/>
     </defs>
     <use xlink:href="#STIXGeneral-Regular-41"/>
     <use xlink:href="#STIXGeneral-Regular-72" transform="translate(72.199982 0)"/>
     <use xlink:href="#STIXGeneral-Regular-65" transform="translate(105.499969 0)"/>
     <use xlink:href="#STIXGeneral-Regular-61" transform="translate(149.899963 0)"/>
     <use xlink:href="#STIXGeneral-Regular-20" transform="translate(194.299957 0)"/>
     <use xlink:href="#STIXGeneral-Regular-55" transform="translate(219.299942 0)"/>
     <use xlink:href="#STIXGeneral-Regular-6e" transform="translate(291.499924 0)"/>
     <use xlink:href="#STIXGeneral-Regular-64" transform="translate(341.499908 0)"/>
     <use xlink:href="#STIXGeneral-Regular-65" transform="translate(391.499893 0)"/>
     <use xlink:href="#STIXGeneral-Regular-72" transform="translate(435.899887 0)"/>
     <use xlink:href="#STIXGeneral-Regular-20" transform="translate(469.199875 0)"/>
     <use xlink:href="#STIXGeneral-Regular-74" transform="translate(494.19986 0)"/>
     <use xlink:href="#STIXGeneral-Regular-68" transform="translate(521.999847 0)"/>
     <use xlink:href="#STIXGeneral-Regular-65" transform="translate(571.999832 0)"/>
     <use xlink:href="#STIXGeneral-Regular-20" transform="translate(616.399826 0)"/>
     <use xlink:href="#STIXGeneral-Regular-43" transform="translate(641.399811 0)"/>
     <use xlink:href="#STIXGeneral-Regular-75" transform="translate(708.099808 0)"/>
     <use xlink:href="#STIXGeneral-Regular-72" transform="translate(758.099792 0)"/>
     <use xlink:href="#STIXGeneral-Regular-76" transform="translate(791.39978 0)"/>
     <use xlink:href="#STIXGeneral-Regular-65" transform="translate(841.399765 0)"/>
    </g>
   </g>
  </g>
  <g id="axes_2">
   <g id="patch_11">
    <path d="M 460.217647 253.400156 
L 755.629412 253.400156 
L 755.629412 31.640156 
L 460.217647 31.640156 
z
" style="fill: #ffffff"/>
   </g>
   <g id="FillBetweenPolyCollection_1">
    <defs>
     <path id="m0bf6af8d35" d="M 460.217647 -72.09629 
L 460.217647 -70.728048 
L 463.201604 -74.2012 
L 466.185561 -76.758231 
L 469.169519 -79.147554 
L 472.153476 -81.759559 
L 475.137433 -84.452726 
L 478.12139 -89.42872 
L 481.105348 -94.640389 
L 484.089305 -99.639517 
L 487.073262 -104.553367 
L 490.057219 -108.990369 
L 493.041176 -113.280946 
L 496.025134 -117.266429 
L 499.009091 -121.705644 
L 501.993048 -125.555901 
L 504.977005 -128.920004 
L 507.960963 -132.155272 
L 510.94492 -135.39353 
L 513.928877 -138.695803 
L 516.912834 -141.619869 
L 519.896791 -144.554083 
L 522.880749 -147.812453 
L 525.864706 -150.705518 
L 528.848663 -153.584664 
L 531.83262 -157.086839 
L 534.816578 -159.670954 
L 537.800535 -162.134977 
L 540.784492 -165.02508 
L 543.768449 -167.441238 
L 546.752406 -169.928428 
L 549.736364 -172.984917 
L 552.720321 -175.590819 
L 555.704278 -177.094321 
L 558.688235 -178.9427 
L 561.672193 -180.512622 
L 564.65615 -182.259458 
L 567.640107 -183.75302 
L 570.624064 -184.850254 
L 573.608021 -186.476993 
L 576.591979 -187.938954 
L 579.575936 -189.184058 
L 582.559893 -190.739356 
L 585.54385 -192.516264 
L 588.527807 -193.177545 
L 591.511765 -193.67776 
L 594.495722 -194.799586 
L 597.479679 -195.683841 
L 600.463636 -196.670874 
L 603.447594 -197.669323 
L 606.431551 -199.144858 
L 609.415508 -200.842491 
L 612.399465 -201.891477 
L 615.383422 -203.095081 
L 618.36738 -204.198093 
L 621.351337 -205.281318 
L 624.335294 -206.223544 
L 627.319251 -207.931692 
L 630.303209 -208.598572 
L 633.287166 -210.1288 
L 636.271123 -210.835464 
L 639.25508 -211.775914 
L 642.239037 -212.766847 
L 645.222995 -213.435712 
L 648.206952 -214.018067 
L 651.190909 -214.860014 
L 654.174866 -216.454463 
L 657.158824 -216.55395 
L 660.142781 -217.705476 
L 663.126738 -218.911287 
L 666.110695 -219.755148 
L 669.094652 -220.320474 
L 672.07861 -220.667859 
L 675.062567 -221.57715 
L 678.046524 -222.970291 
L 681.030481 -224.793102 
L 684.014439 -225.360707 
L 686.998396 -226.709003 
L 689.982353 -228.248722 
L 692.96631 -228.590232 
L 695.950267 -229.800655 
L 698.934225 -231.265647 
L 701.918182 -231.904824 
L 704.902139 -233.029812 
L 707.886096 -233.188864 
L 710.870053 -233.6093 
L 713.854011 -235.175366 
L 716.837968 -236.33723 
L 719.821925 -237.291271 
L 722.805882 -238.690708 
L 725.78984 -239.117008 
L 728.773797 -239.694522 
L 731.757754 -239.999653 
L 734.741711 -241.308818 
L 737.725668 -242.584225 
L 740.709626 -243.812158 
L 743.693583 -244.599545 
L 746.67754 -245.193653 
L 749.661497 -244.592364 
L 752.645455 -245.429768 
L 755.629412 -245.969287 
L 755.629412 -261.421328 
L 755.629412 -261.421328 
L 752.645455 -259.859216 
L 749.661497 -259.54802 
L 746.67754 -259.726607 
L 743.693583 -259.89166 
L 740.709626 -259.385918 
L 737.725668 -258.463428 
L 734.741711 -255.815582 
L 731.757754 -254.546126 
L 728.773797 -252.613207 
L 725.78984 -253.162176 
L 722.805882 -252.439074 
L 719.821925 -250.977956 
L 716.837968 -249.272921 
L 713.854011 -247.004719 
L 710.870053 -245.735982 
L 707.886096 -244.32403 
L 704.902139 -244.073284 
L 701.918182 -242.998516 
L 698.934225 -242.672362 
L 695.950267 -240.650866 
L 692.96631 -239.976034 
L 689.982353 -239.022492 
L 686.998396 -237.881618 
L 684.014439 -236.386723 
L 681.030481 -235.509336 
L 678.046524 -234.530238 
L 675.062567 -232.139667 
L 672.07861 -232.404036 
L 669.094652 -230.407178 
L 666.110695 -229.507562 
L 663.126738 -227.532234 
L 660.142781 -226.176516 
L 657.158824 -224.858923 
L 654.174866 -223.771302 
L 651.190909 -222.585576 
L 648.206952 -221.565143 
L 645.222995 -220.266417 
L 642.239037 -219.41706 
L 639.25508 -218.741147 
L 636.271123 -217.321035 
L 633.287166 -216.437416 
L 630.303209 -214.945124 
L 627.319251 -213.712419 
L 624.335294 -212.145784 
L 621.351337 -210.965879 
L 618.36738 -210.01569 
L 615.383422 -209.036181 
L 612.399465 -208.160976 
L 609.415508 -206.82717 
L 606.431551 -205.211772 
L 603.447594 -203.776338 
L 600.463636 -201.509001 
L 597.479679 -200.47111 
L 594.495722 -199.444086 
L 591.511765 -198.062 
L 588.527807 -197.079912 
L 585.54385 -195.581995 
L 582.559893 -193.56532 
L 579.575936 -192.268062 
L 576.591979 -190.944359 
L 573.608021 -189.703925 
L 570.624064 -188.706532 
L 567.640107 -187.461965 
L 564.65615 -185.703364 
L 561.672193 -183.909123 
L 558.688235 -181.85124 
L 555.704278 -180.062846 
L 552.720321 -178.335378 
L 549.736364 -176.770981 
L 546.752406 -174.321137 
L 543.768449 -172.524445 
L 540.784492 -170.950849 
L 537.800535 -169.015804 
L 534.816578 -165.561487 
L 531.83262 -162.092666 
L 528.848663 -158.973409 
L 525.864706 -156.301268 
L 522.880749 -153.327365 
L 519.896791 -149.929003 
L 516.912834 -146.676254 
L 513.928877 -143.667392 
L 510.94492 -140.200707 
L 507.960963 -136.766292 
L 504.977005 -132.91245 
L 501.993048 -129.255803 
L 499.009091 -124.848658 
L 496.025134 -120.315349 
L 493.041176 -115.98407 
L 490.057219 -111.689559 
L 487.073262 -107.149426 
L 484.089305 -102.185906 
L 481.105348 -96.935534 
L 478.12139 -91.597904 
L 475.137433 -86.32404 
L 472.153476 -83.571598 
L 469.169519 -80.845333 
L 466.185561 -78.211635 
L 463.201604 -75.286017 
L 460.217647 -72.09629 
z
" style="stroke: #9467bd; stroke-opacity: 0.3"/>
    </defs>
    <g clip-path="url(#p1933de12c1)">
     <use xlink:href="#m0bf6af8d35" x="0" y="313.000156" style="fill: #9467bd; fill-opacity: 0.3; stroke: #9467bd; stroke-opacity: 0.3"/>
    </g>
   </g>
   <g id="FillBetweenPolyCollection_2">
    <defs>
     <path id="m7bdddd9738" d="M 460.217647 -72.325837 
L 460.217647 -71.417291 
L 463.201604 -74.683559 
L 466.185561 -77.449267 
L 469.169519 -80.024515 
L 472.153476 -82.465025 
L 475.137433 -84.954454 
L 478.12139 -89.539186 
L 481.105348 -94.345158 
L 484.089305 -99.246672 
L 487.073262 -104.300619 
L 490.057219 -109.212345 
L 493.041176 -114.338693 
L 496.025134 -119.79883 
L 499.009091 -125.06936 
L 501.993048 -130.203213 
L 504.977005 -135.254524 
L 507.960963 -140.066592 
L 510.94492 -145.240193 
L 513.928877 -149.673431 
L 516.912834 -153.176822 
L 519.896791 -156.558437 
L 522.880749 -160.133692 
L 525.864706 -163.432376 
L 528.848663 -167.373558 
L 531.83262 -169.695833 
L 534.816578 -172.002906 
L 537.800535 -173.415421 
L 540.784492 -175.510334 
L 543.768449 -177.176175 
L 546.752406 -179.602517 
L 549.736364 -182.201589 
L 552.720321 -184.200374 
L 555.704278 -186.157973 
L 558.688235 -188.170836 
L 561.672193 -190.212794 
L 564.65615 -192.00181 
L 567.640107 -193.565458 
L 570.624064 -194.720072 
L 573.608021 -195.86965 
L 576.591979 -197.158108 
L 579.575936 -198.005417 
L 582.559893 -198.875465 
L 585.54385 -199.379837 
L 588.527807 -200.26828 
L 591.511765 -201.03489 
L 594.495722 -202.025919 
L 597.479679 -202.891417 
L 600.463636 -203.705417 
L 603.447594 -205.111343 
L 606.431551 -205.566866 
L 609.415508 -206.815715 
L 612.399465 -208.122518 
L 615.383422 -209.654999 
L 618.36738 -211.564808 
L 621.351337 -213.052893 
L 624.335294 -214.748209 
L 627.319251 -216.774627 
L 630.303209 -217.950556 
L 633.287166 -219.588706 
L 636.271123 -221.520221 
L 639.25508 -222.866246 
L 642.239037 -223.83487 
L 645.222995 -225.047346 
L 648.206952 -225.906944 
L 651.190909 -227.152731 
L 654.174866 -228.605047 
L 657.158824 -229.643154 
L 660.142781 -230.589977 
L 663.126738 -232.451768 
L 666.110695 -233.215864 
L 669.094652 -234.528881 
L 672.07861 -236.4175 
L 675.062567 -238.58505 
L 678.046524 -239.607488 
L 681.030481 -240.544953 
L 684.014439 -241.9471 
L 686.998396 -242.737204 
L 689.982353 -244.877087 
L 692.96631 -244.975172 
L 695.950267 -245.582404 
L 698.934225 -247.07199 
L 701.918182 -248.057047 
L 704.902139 -249.388526 
L 707.886096 -250.295675 
L 710.870053 -251.465796 
L 713.854011 -252.423138 
L 716.837968 -254.005097 
L 719.821925 -254.919297 
L 722.805882 -255.457164 
L 725.78984 -256.392858 
L 728.773797 -256.552152 
L 731.757754 -257.343881 
L 734.741711 -257.410612 
L 737.725668 -258.473197 
L 740.709626 -260.304489 
L 743.693583 -261.102121 
L 746.67754 -261.111416 
L 749.661497 -261.023616 
L 752.645455 -261.785273 
L 755.629412 -262.730971 
L 755.629412 -271.329907 
L 755.629412 -271.329907 
L 752.645455 -269.768315 
L 749.661497 -268.366478 
L 746.67754 -269.221352 
L 743.693583 -268.914818 
L 740.709626 -268.05268 
L 737.725668 -266.585521 
L 734.741711 -265.50716 
L 731.757754 -264.006572 
L 728.773797 -262.692907 
L 725.78984 -261.872189 
L 722.805882 -260.78182 
L 719.821925 -259.818623 
L 716.837968 -258.591579 
L 713.854011 -256.88696 
L 710.870053 -256.163058 
L 707.886096 -254.381647 
L 704.902139 -253.630013 
L 701.918182 -252.589995 
L 698.934225 -251.06468 
L 695.950267 -250.25466 
L 692.96631 -249.043176 
L 689.982353 -249.315663 
L 686.998396 -247.57616 
L 684.014439 -246.674192 
L 681.030481 -245.607646 
L 678.046524 -244.472552 
L 675.062567 -243.603286 
L 672.07861 -242.001673 
L 669.094652 -240.671253 
L 666.110695 -239.577647 
L 663.126738 -238.331709 
L 660.142781 -235.695723 
L 657.158824 -234.701132 
L 654.174866 -233.54577 
L 651.190909 -232.246513 
L 648.206952 -231.26821 
L 645.222995 -230.010347 
L 642.239037 -228.717107 
L 639.25508 -227.108634 
L 636.271123 -225.827051 
L 633.287166 -224.560532 
L 630.303209 -222.582456 
L 627.319251 -220.894847 
L 624.335294 -219.099058 
L 621.351337 -217.354619 
L 618.36738 -216.336658 
L 615.383422 -214.641965 
L 612.399465 -213.062554 
L 609.415508 -212.020519 
L 606.431551 -210.516536 
L 603.447594 -209.229251 
L 600.463636 -208.026331 
L 597.479679 -206.480249 
L 594.495722 -205.6159 
L 591.511765 -204.663735 
L 588.527807 -204.003943 
L 585.54385 -203.054026 
L 582.559893 -202.344236 
L 579.575936 -201.552261 
L 576.591979 -200.783341 
L 573.608021 -199.46406 
L 570.624064 -198.190011 
L 567.640107 -197.225585 
L 564.65615 -196.195421 
L 561.672193 -194.756735 
L 558.688235 -193.082175 
L 555.704278 -192.08708 
L 552.720321 -189.959922 
L 549.736364 -187.793624 
L 546.752406 -185.258964 
L 543.768449 -182.640732 
L 540.784492 -180.633003 
L 537.800535 -178.01086 
L 534.816578 -175.582792 
L 531.83262 -172.862047 
L 528.848663 -170.301686 
L 525.864706 -167.436153 
L 522.880749 -164.550662 
L 519.896791 -160.551794 
L 516.912834 -156.898886 
L 513.928877 -152.795191 
L 510.94492 -148.578982 
L 507.960963 -144.677773 
L 504.977005 -139.813054 
L 501.993048 -134.431222 
L 499.009091 -129.037639 
L 496.025134 -123.503623 
L 493.041176 -117.693413 
L 490.057219 -112.235952 
L 487.073262 -107.223611 
L 484.089305 -101.919985 
L 481.105348 -96.687302 
L 478.12139 -91.4573 
L 475.137433 -86.382791 
L 472.153476 -83.542662 
L 469.169519 -80.901963 
L 466.185561 -78.297676 
L 463.201604 -75.51594 
L 460.217647 -72.325837 
z
" style="stroke: #ce1126; stroke-opacity: 0.3"/>
    </defs>
    <g clip-path="url(#p1933de12c1)">
     <use xlink:href="#m7bdddd9738" x="0" y="313.000156" style="fill: #ce1126; fill-opacity: 0.3; stroke: #ce1126; stroke-opacity: 0.3"/>
    </g>
   </g>
   <g id="matplotlib.axis_3">
    <g id="xtick_4">
     <g id="line2d_16">
      <path d="M 460.217647 253.400156 
L 460.217647 31.640156 
" clip-path="url(#p1933de12c1)" style="fill: none; stroke: #b0b0b0; stroke-width: 0.8; stroke-linecap: square"/>
     </g>
     <g id="line2d_17">
      <g>
       <use xlink:href="#m7928ea0c62" x="460.217647" y="253.400156" style="stroke: #000000; stroke-width: 0.8"/>
      </g>
     </g>
     <g id="text_12">
      <!-- 1 -->
      <g transform="translate(454.217647 276.791406) scale(0.24 -0.24)">
       <use xlink:href="#STIXGeneral-Regular-31"/>
      </g>
     </g>
    </g>
    <g id="xtick_5">
     <g id="line2d_18">
      <path d="M 516.912834 253.400156 
L 516.912834 31.640156 
" clip-path="url(#p1933de12c1)" style="fill: none; stroke: #b0b0b0; stroke-width: 0.8; stroke-linecap: square"/>
     </g>
     <g id="line2d_19">
      <g>
       <use xlink:href="#m7928ea0c62" x="516.912834" y="253.400156" style="stroke: #000000; stroke-width: 0.8"/>
      </g>
     </g>
     <g id="text_13">
      <!-- 20 -->
      <g transform="translate(504.912834 276.791406) scale(0.24 -0.24)">
       <defs>
        <path id="STIXGeneral-Regular-32" d="M 3034 877 
L 2688 0 
L 186 0 
L 186 77 
L 1325 1286 
Q 1773 1754 1965 2144 
Q 2157 2534 2157 2950 
Q 2157 3379 1920 3616 
Q 1683 3853 1267 3853 
Q 922 3853 720 3673 
Q 518 3494 326 3021 
L 192 3053 
Q 301 3648 630 3987 
Q 960 4326 1523 4326 
Q 2054 4326 2380 4006 
Q 2707 3686 2707 3200 
Q 2707 2477 1888 1613 
L 832 486 
L 2330 486 
Q 2541 486 2665 569 
Q 2790 653 2944 915 
L 3034 877 
z
" transform="scale(0.015625)"/>
       </defs>
       <use xlink:href="#STIXGeneral-Regular-32"/>
       <use xlink:href="#STIXGeneral-Regular-30" transform="translate(49.999985 0)"/>
      </g>
     </g>
    </g>
    <g id="xtick_6">
     <g id="line2d_20">
      <path d="M 576.591979 253.400156 
L 576.591979 31.640156 
" clip-path="url(#p1933de12c1)" style="fill: none; stroke: #b0b0b0; stroke-width: 0.8; stroke-linecap: square"/>
     </g>
     <g id="line2d_21">
      <g>
       <use xlink:href="#m7928ea0c62" x="576.591979" y="253.400156" style="stroke: #000000; stroke-width: 0.8"/>
      </g>
     </g>
     <g id="text_14">
      <!-- 40 -->
      <g transform="translate(564.591979 276.791406) scale(0.24 -0.24)">
       <defs>
        <path id="STIXGeneral-Regular-34" d="M 3027 1069 
L 2368 1069 
L 2368 0 
L 1869 0 
L 1869 1069 
L 77 1069 
L 77 1478 
L 2086 4326 
L 2368 4326 
L 2368 1478 
L 3027 1478 
L 3027 1069 
z
M 1869 1478 
L 1869 3674 
L 333 1478 
L 1869 1478 
z
" transform="scale(0.015625)"/>
       </defs>
       <use xlink:href="#STIXGeneral-Regular-34"/>
       <use xlink:href="#STIXGeneral-Regular-30" transform="translate(49.999985 0)"/>
      </g>
     </g>
    </g>
    <g id="xtick_7">
     <g id="line2d_22">
      <path d="M 636.271123 253.400156 
L 636.271123 31.640156 
" clip-path="url(#p1933de12c1)" style="fill: none; stroke: #b0b0b0; stroke-width: 0.8; stroke-linecap: square"/>
     </g>
     <g id="line2d_23">
      <g>
       <use xlink:href="#m7928ea0c62" x="636.271123" y="253.400156" style="stroke: #000000; stroke-width: 0.8"/>
      </g>
     </g>
     <g id="text_15">
      <!-- 60 -->
      <g transform="translate(624.271123 276.791406) scale(0.24 -0.24)">
       <defs>
        <path id="STIXGeneral-Regular-36" d="M 2854 4378 
L 2867 4275 
Q 2112 4154 1606 3664 
Q 1101 3174 973 2451 
Q 1344 2739 1786 2739 
Q 2349 2739 2672 2380 
Q 2995 2022 2995 1402 
Q 2995 774 2669 378 
Q 2291 -90 1651 -90 
Q 870 -90 518 557 
Q 218 1107 218 1786 
Q 218 2835 915 3552 
Q 1312 3962 1731 4131 
Q 2150 4301 2854 4378 
z
M 2419 1203 
Q 2419 2445 1555 2445 
Q 1235 2445 1024 2275 
Q 813 2106 813 1702 
Q 813 954 1046 522 
Q 1280 90 1722 90 
Q 2061 90 2240 394 
Q 2419 698 2419 1203 
z
" transform="scale(0.015625)"/>
       </defs>
       <use xlink:href="#STIXGeneral-Regular-36"/>
       <use xlink:href="#STIXGeneral-Regular-30" transform="translate(49.999985 0)"/>
      </g>
     </g>
    </g>
    <g id="xtick_8">
     <g id="line2d_24">
      <path d="M 695.950267 253.400156 
L 695.950267 31.640156 
" clip-path="url(#p1933de12c1)" style="fill: none; stroke: #b0b0b0; stroke-width: 0.8; stroke-linecap: square"/>
     </g>
     <g id="line2d_25">
      <g>
       <use xlink:href="#m7928ea0c62" x="695.950267" y="253.400156" style="stroke: #000000; stroke-width: 0.8"/>
      </g>
     </g>
     <g id="text_16">
      <!-- 80 -->
      <g transform="translate(683.950267 276.791406) scale(0.24 -0.24)">
       <defs>
        <path id="STIXGeneral-Regular-38" d="M 2848 992 
Q 2848 499 2505 204 
Q 2163 -90 1587 -90 
Q 1050 -90 704 204 
Q 358 499 358 954 
Q 358 1293 524 1533 
Q 691 1773 1190 2125 
Q 710 2522 553 2765 
Q 397 3008 397 3328 
Q 397 3782 745 4054 
Q 1094 4326 1638 4326 
Q 2106 4326 2410 4060 
Q 2714 3795 2714 3411 
Q 2714 3059 2531 2848 
Q 2349 2637 1856 2374 
Q 2432 1990 2640 1689 
Q 2848 1389 2848 992 
z
M 2272 3411 
Q 2272 3744 2086 3945 
Q 1901 4147 1574 4147 
Q 1248 4147 1059 3977 
Q 870 3808 870 3513 
Q 870 3219 1059 2979 
Q 1248 2739 1670 2490 
Q 1997 2682 2134 2896 
Q 2272 3110 2272 3411 
z
M 1734 1741 
L 1357 1997 
Q 1075 1766 960 1545 
Q 845 1325 845 1011 
Q 845 576 1065 333 
Q 1286 90 1658 90 
Q 1971 90 2166 285 
Q 2362 480 2362 794 
Q 2362 1082 2214 1299 
Q 2067 1517 1734 1741 
z
" transform="scale(0.015625)"/>
       </defs>
       <use xlink:href="#STIXGeneral-Regular-38"/>
       <use xlink:href="#STIXGeneral-Regular-30" transform="translate(49.999985 0)"/>
      </g>
     </g>
    </g>
    <g id="xtick_9">
     <g id="line2d_26">
      <path d="M 755.629412 253.400156 
L 755.629412 31.640156 
" clip-path="url(#p1933de12c1)" style="fill: none; stroke: #b0b0b0; stroke-width: 0.8; stroke-linecap: square"/>
     </g>
     <g id="line2d_27">
      <g>
       <use xlink:href="#m7928ea0c62" x="755.629412" y="253.400156" style="stroke: #000000; stroke-width: 0.8"/>
      </g>
     </g>
     <g id="text_17">
      <!-- 100 -->
      <g transform="translate(737.629412 276.791406) scale(0.24 -0.24)">
       <use xlink:href="#STIXGeneral-Regular-31"/>
       <use xlink:href="#STIXGeneral-Regular-30" transform="translate(49.999985 0)"/>
       <use xlink:href="#STIXGeneral-Regular-30" transform="translate(99.999969 0)"/>
      </g>
     </g>
    </g>
    <g id="text_18">
     <!-- Number of Frames (in millions) -->
     <g transform="translate(615.083787 301.025469) scale(0.22 -0.22)">
      <defs>
       <path id="STIXGeneral-Regular-6d" d="M 4960 0 
L 3565 0 
L 3565 96 
Q 3834 122 3907 208 
Q 3981 294 3981 576 
L 3981 1894 
Q 3981 2278 3869 2444 
Q 3757 2611 3488 2611 
Q 3264 2611 3107 2521 
Q 2950 2432 2803 2221 
L 2803 608 
Q 2803 301 2896 201 
Q 2989 102 3264 96 
L 3264 0 
L 1830 0 
L 1830 96 
Q 2112 115 2189 188 
Q 2266 262 2266 550 
L 2266 1901 
Q 2266 2611 1850 2611 
Q 1670 2611 1468 2531 
Q 1267 2451 1171 2336 
Q 1088 2240 1088 2227 
L 1088 448 
Q 1088 243 1177 176 
Q 1267 109 1523 96 
L 1523 0 
L 102 0 
L 102 96 
Q 371 102 460 195 
Q 550 288 550 563 
L 550 2150 
Q 550 2387 499 2480 
Q 448 2573 326 2573 
Q 230 2573 122 2547 
L 122 2656 
Q 557 2778 1011 2944 
L 1062 2925 
L 1062 2451 
L 1075 2451 
Q 1363 2752 1584 2848 
Q 1805 2944 2054 2944 
Q 2560 2944 2733 2406 
Q 3232 2944 3776 2944 
Q 4518 2944 4518 1792 
L 4518 493 
Q 4518 282 4582 202 
Q 4646 122 4794 109 
L 4960 96 
L 4960 0 
z
" transform="scale(0.015625)"/>
       <path id="STIXGeneral-Regular-62" d="M 979 4358 
L 979 2406 
Q 1082 2650 1315 2797 
Q 1549 2944 1843 2944 
Q 2349 2944 2672 2541 
Q 2995 2138 2995 1536 
Q 2995 832 2566 384 
Q 2138 -64 1498 -64 
Q 1107 -64 774 67 
Q 442 198 442 358 
L 442 3622 
Q 442 3859 384 3926 
Q 326 3994 128 3994 
Q 83 3994 19 3981 
L 19 4090 
L 211 4147 
Q 864 4346 947 4371 
L 979 4358 
z
M 979 2035 
L 979 474 
Q 979 326 1161 233 
Q 1344 141 1600 141 
Q 1978 141 2195 416 
Q 2432 710 2432 1261 
Q 2432 1888 2182 2240 
Q 1971 2541 1613 2541 
Q 1357 2541 1168 2390 
Q 979 2240 979 2035 
z
" transform="scale(0.015625)"/>
       <path id="STIXGeneral-Regular-46" d="M 3494 3322 
L 3334 3322 
Q 3264 3757 3094 3875 
Q 2925 3994 2349 3994 
L 1504 3994 
Q 1370 3994 1328 3946 
Q 1286 3898 1286 3744 
L 1286 2355 
L 2195 2355 
Q 2598 2355 2736 2470 
Q 2874 2586 2918 2963 
L 3066 2963 
L 3066 1472 
L 2918 1472 
Q 2880 1862 2745 1977 
Q 2611 2093 2195 2093 
L 1286 2093 
L 1286 717 
Q 1286 352 1392 246 
Q 1498 141 1869 122 
L 1869 0 
L 70 0 
L 70 122 
Q 435 147 534 259 
Q 634 371 634 787 
L 634 3526 
Q 634 3878 538 3984 
Q 442 4090 77 4115 
L 77 4237 
L 3462 4237 
L 3494 3322 
z
" transform="scale(0.015625)"/>
       <path id="STIXGeneral-Regular-73" d="M 998 1926 
L 1664 1523 
Q 1984 1331 2105 1164 
Q 2227 998 2227 736 
Q 2227 416 1961 176 
Q 1696 -64 1331 -64 
Q 1030 -64 864 -6 
Q 691 51 570 51 
Q 461 51 416 -26 
L 333 -26 
L 333 979 
L 435 979 
Q 538 512 730 294 
Q 922 77 1248 77 
Q 1485 77 1632 211 
Q 1779 346 1779 550 
Q 1779 845 1440 1030 
L 1094 1222 
Q 326 1651 326 2150 
Q 326 2522 566 2730 
Q 806 2938 1210 2938 
Q 1491 2938 1638 2867 
Q 1754 2816 1818 2816 
Q 1862 2816 1920 2880 
L 1990 2880 
L 2022 2010 
L 1926 2010 
Q 1818 2445 1654 2621 
Q 1491 2797 1203 2797 
Q 986 2797 854 2688 
Q 723 2579 723 2362 
Q 723 2253 796 2128 
Q 870 2003 998 1926 
z
" transform="scale(0.015625)"/>
       <path id="STIXGeneral-Regular-28" d="M 1946 -1030 
L 1869 -1133 
Q 1126 -710 716 32 
Q 307 774 307 1613 
Q 307 3386 1888 4326 
L 1946 4224 
Q 1293 3667 1075 3126 
Q 858 2586 858 1632 
Q 858 685 1082 96 
Q 1306 -493 1946 -1030 
z
" transform="scale(0.015625)"/>
       <path id="STIXGeneral-Regular-6c" d="M 1645 0 
L 134 0 
L 134 96 
Q 435 122 531 221 
Q 627 320 627 589 
L 627 3590 
Q 627 3821 569 3910 
Q 512 4000 358 4000 
Q 224 4000 122 3987 
L 122 4090 
Q 730 4237 1133 4371 
L 1165 4346 
L 1165 557 
Q 1165 288 1254 201 
Q 1344 115 1645 96 
L 1645 0 
z
" transform="scale(0.015625)"/>
       <path id="STIXGeneral-Regular-29" d="M 186 4224 
L 262 4326 
Q 992 3891 1408 3148 
Q 1824 2406 1824 1581 
Q 1824 -166 243 -1133 
L 186 -1030 
Q 845 -486 1059 54 
Q 1274 595 1274 1562 
Q 1274 2534 1059 3120 
Q 845 3706 186 4224 
z
" transform="scale(0.015625)"/>
      </defs>
      <use xlink:href="#STIXGeneral-Regular-4e"/>
      <use xlink:href="#STIXGeneral-Regular-75" transform="translate(72.199982 0)"/>
      <use xlink:href="#STIXGeneral-Regular-6d" transform="translate(122.199966 0)"/>
      <use xlink:href="#STIXGeneral-Regular-62" transform="translate(199.999954 0)"/>
      <use xlink:href="#STIXGeneral-Regular-65" transform="translate(249.999939 0)"/>
      <use xlink:href="#STIXGeneral-Regular-72" transform="translate(294.399933 0)"/>
      <use xlink:href="#STIXGeneral-Regular-20" transform="translate(327.699921 0)"/>
      <use xlink:href="#STIXGeneral-Regular-6f" transform="translate(352.699905 0)"/>
      <use xlink:href="#STIXGeneral-Regular-66" transform="translate(402.69989 0)"/>
      <use xlink:href="#STIXGeneral-Regular-20" transform="translate(435.999878 0)"/>
      <use xlink:href="#STIXGeneral-Regular-46" transform="translate(460.999863 0)"/>
      <use xlink:href="#STIXGeneral-Regular-72" transform="translate(516.599854 0)"/>
      <use xlink:href="#STIXGeneral-Regular-61" transform="translate(549.899841 0)"/>
      <use xlink:href="#STIXGeneral-Regular-6d" transform="translate(594.299835 0)"/>
      <use xlink:href="#STIXGeneral-Regular-65" transform="translate(672.099823 0)"/>
      <use xlink:href="#STIXGeneral-Regular-73" transform="translate(716.499817 0)"/>
      <use xlink:href="#STIXGeneral-Regular-20" transform="translate(755.399811 0)"/>
      <use xlink:href="#STIXGeneral-Regular-28" transform="translate(780.399796 0)"/>
      <use xlink:href="#STIXGeneral-Regular-69" transform="translate(813.699783 0)"/>
      <use xlink:href="#STIXGeneral-Regular-6e" transform="translate(841.499771 0)"/>
      <use xlink:href="#STIXGeneral-Regular-20" transform="translate(891.499756 0)"/>
      <use xlink:href="#STIXGeneral-Regular-6d" transform="translate(916.499741 0)"/>
      <use xlink:href="#STIXGeneral-Regular-69" transform="translate(994.299728 0)"/>
      <use xlink:href="#STIXGeneral-Regular-6c" transform="translate(1022.099716 0)"/>
      <use xlink:href="#STIXGeneral-Regular-6c" transform="translate(1049.899704 0)"/>
      <use xlink:href="#STIXGeneral-Regular-69" transform="translate(1077.699692 0)"/>
      <use xlink:href="#STIXGeneral-Regular-6f" transform="translate(1105.49968 0)"/>
      <use xlink:href="#STIXGeneral-Regular-6e" transform="translate(1155.499664 0)"/>
      <use xlink:href="#STIXGeneral-Regular-73" transform="translate(1205.499649 0)"/>
      <use xlink:href="#STIXGeneral-Regular-29" transform="translate(1244.399643 0)"/>
     </g>
    </g>
   </g>
   <g id="matplotlib.axis_4">
    <g id="ytick_5">
     <g id="line2d_28">
      <path d="M 460.217647 253.400156 
L 755.629412 253.400156 
" clip-path="url(#p1933de12c1)" style="fill: none; stroke: #b0b0b0; stroke-width: 0.8; stroke-linecap: square"/>
     </g>
     <g id="line2d_29">
      <g>
       <use xlink:href="#m1bc939ce58" x="460.217647" y="253.400156" style="stroke: #000000; stroke-width: 0.8"/>
      </g>
     </g>
     <g id="text_19">
      <!-- 0 -->
      <g transform="translate(441.217647 261.595781) scale(0.24 -0.24)">
       <use xlink:href="#STIXGeneral-Regular-30"/>
      </g>
     </g>
    </g>
    <g id="ytick_6">
     <g id="line2d_30">
      <path d="M 460.217647 143.319569 
L 755.629412 143.319569 
" clip-path="url(#p1933de12c1)" style="fill: none; stroke: #b0b0b0; stroke-width: 0.8; stroke-linecap: square"/>
     </g>
     <g id="line2d_31">
      <g>
       <use xlink:href="#m1bc939ce58" x="460.217647" y="143.319569" style="stroke: #000000; stroke-width: 0.8"/>
      </g>
     </g>
     <g id="text_20">
      <!-- 2 -->
      <g transform="translate(441.217647 151.515194) scale(0.24 -0.24)">
       <use xlink:href="#STIXGeneral-Regular-32"/>
      </g>
     </g>
    </g>
    <g id="ytick_7">
     <g id="line2d_32">
      <path d="M 460.217647 33.238982 
L 755.629412 33.238982 
" clip-path="url(#p1933de12c1)" style="fill: none; stroke: #b0b0b0; stroke-width: 0.8; stroke-linecap: square"/>
     </g>
     <g id="line2d_33">
      <g>
       <use xlink:href="#m1bc939ce58" x="460.217647" y="33.238982" style="stroke: #000000; stroke-width: 0.8"/>
      </g>
     </g>
     <g id="text_21">
      <!-- 4 -->
      <g transform="translate(441.217647 41.434607) scale(0.24 -0.24)">
       <use xlink:href="#STIXGeneral-Regular-34"/>
      </g>
     </g>
    </g>
    <g id="text_22">
     <!-- IQM Return -->
     <g transform="translate(432.008897 201.513281) rotate(-90) scale(0.24 -0.24)">
      <defs>
       <path id="STIXGeneral-Regular-52" d="M 4224 0 
L 3187 0 
L 1664 1971 
L 1306 1958 
L 1306 717 
Q 1306 352 1405 249 
Q 1504 147 1875 122 
L 1875 0 
L 109 0 
L 109 122 
Q 474 154 563 262 
Q 653 371 653 794 
L 653 3526 
Q 653 3885 563 3987 
Q 474 4090 109 4115 
L 109 4237 
L 1850 4237 
Q 2726 4237 3187 3859 
Q 3501 3603 3501 3091 
Q 3501 2221 2342 2042 
L 3622 422 
Q 3757 256 3878 198 
Q 4000 141 4224 122 
L 4224 0 
z
M 1306 3731 
L 1306 2195 
Q 1766 2202 1990 2246 
Q 2214 2291 2438 2413 
Q 2803 2618 2803 3142 
Q 2803 4000 1632 4000 
Q 1459 4000 1382 3945 
Q 1306 3891 1306 3731 
z
" transform="scale(0.015625)"/>
      </defs>
      <use xlink:href="#STIXGeneral-Regular-49"/>
      <use xlink:href="#STIXGeneral-Regular-51" transform="translate(33.299988 0)"/>
      <use xlink:href="#STIXGeneral-Regular-4d" transform="translate(105.499969 0)"/>
      <use xlink:href="#STIXGeneral-Regular-20" transform="translate(194.399963 0)"/>
      <use xlink:href="#STIXGeneral-Regular-52" transform="translate(219.399948 0)"/>
      <use xlink:href="#STIXGeneral-Regular-65" transform="translate(286.099945 0)"/>
      <use xlink:href="#STIXGeneral-Regular-74" transform="translate(330.499939 0)"/>
      <use xlink:href="#STIXGeneral-Regular-75" transform="translate(358.299927 0)"/>
      <use xlink:href="#STIXGeneral-Regular-72" transform="translate(408.299911 0)"/>
      <use xlink:href="#STIXGeneral-Regular-6e" transform="translate(441.599899 0)"/>
     </g>
    </g>
   </g>
   <g id="line2d_34">
    <path d="M 460.217647 241.593774 
L 463.201604 238.266611 
L 466.185561 235.530191 
L 469.169519 233.028742 
L 472.153476 230.321259 
L 475.137433 227.613717 
L 478.12139 222.477204 
L 481.105348 217.239002 
L 484.089305 212.075311 
L 487.073262 207.162316 
L 490.057219 202.733178 
L 493.041176 198.434688 
L 496.025134 194.208177 
L 499.009091 189.798332 
L 501.993048 185.642776 
L 504.977005 182.068859 
L 507.960963 178.515014 
L 510.94492 175.293996 
L 513.928877 172.093348 
L 516.912834 169.26205 
L 519.896791 166.196802 
L 522.880749 162.963224 
L 525.864706 160.028232 
L 528.848663 157.135806 
L 531.83262 153.859108 
L 534.816578 150.95777 
L 537.800535 148.08872 
L 540.784492 145.675602 
L 543.768449 143.511322 
L 546.752406 141.211369 
L 549.736364 138.230048 
L 552.720321 136.116315 
L 555.704278 134.666998 
L 558.688235 132.96247 
L 561.672193 130.871378 
L 564.65615 129.052585 
L 567.640107 127.473283 
L 570.624064 126.583277 
L 573.608021 125.105135 
L 576.591979 123.72518 
L 579.575936 122.398422 
L 582.559893 120.859379 
L 585.54385 118.97154 
L 588.527807 117.97502 
L 591.511765 117.329329 
L 594.495722 116.142318 
L 597.479679 115.265567 
L 600.463636 114.044886 
L 603.447594 112.651845 
L 606.431551 111.182583 
L 609.415508 109.617667 
L 612.399465 108.435141 
L 615.383422 107.55402 
L 618.36738 106.307544 
L 621.351337 105.313777 
L 624.335294 104.069039 
L 627.319251 102.443574 
L 630.303209 101.598817 
L 633.287166 100.085899 
L 636.271123 99.287843 
L 639.25508 98.116756 
L 642.239037 97.580309 
L 645.222995 96.762164 
L 648.206952 96.052603 
L 651.190909 94.980029 
L 654.174866 93.500947 
L 657.158824 93.007821 
L 660.142781 91.808153 
L 663.126738 90.135992 
L 666.110695 89.013967 
L 669.094652 88.552889 
L 672.07861 87.679075 
L 675.062567 86.606285 
L 678.046524 85.008116 
L 681.030481 83.330561 
L 684.014439 82.729518 
L 686.998396 81.454885 
L 689.982353 79.812635 
L 692.96631 79.289465 
L 695.950267 78.227199 
L 698.934225 76.510668 
L 701.918182 75.783848 
L 704.902139 74.621602 
L 707.886096 74.2532 
L 710.870053 73.88528 
L 713.854011 72.19982 
L 716.837968 70.801442 
L 719.821925 69.454153 
L 722.805882 68.090529 
L 725.78984 67.376803 
L 728.773797 67.175265 
L 731.757754 66.235307 
L 734.741711 65.011051 
L 737.725668 63.35408 
L 740.709626 61.975253 
L 743.693583 61.111023 
L 746.67754 61.16076 
L 749.661497 61.271239 
L 752.645455 60.955398 
L 755.629412 59.838258 
" clip-path="url(#p1933de12c1)" style="fill: none; stroke: #9467bd; stroke-width: 3; stroke-linecap: square"/>
   </g>
   <g id="patch_12">
    <path d="M 460.217647 253.400156 
L 460.217647 31.640156 
" style="fill: none; stroke: #000000; stroke-width: 0.8; stroke-linejoin: miter; stroke-linecap: square"/>
   </g>
   <g id="patch_13">
    <path d="M 755.629412 253.400156 
L 755.629412 31.640156 
" style="fill: none; stroke: #000000; stroke-width: 0.8; stroke-linejoin: miter; stroke-linecap: square"/>
   </g>
   <g id="patch_14">
    <path d="M 460.217647 253.400156 
L 755.629412 253.400156 
" style="fill: none; stroke: #000000; stroke-width: 0.8; stroke-linejoin: miter; stroke-linecap: square"/>
   </g>
   <g id="patch_15">
    <path d="M 460.217647 31.640156 
L 755.629412 31.640156 
" style="fill: none; stroke: #000000; stroke-width: 0.8; stroke-linejoin: miter; stroke-linecap: square"/>
   </g>
   <g id="line2d_35">
    <path d="M 460.217647 241.158476 
L 463.201604 237.958441 
L 466.185561 235.199041 
L 469.169519 232.596866 
L 472.153476 230.014546 
L 475.137433 227.347025 
L 478.12139 222.469546 
L 481.105348 217.457877 
L 484.089305 212.398177 
L 487.073262 207.280529 
L 490.057219 202.31166 
L 493.041176 196.911182 
L 496.025134 191.350997 
L 499.009091 185.844499 
L 501.993048 180.665444 
L 504.977005 175.389232 
L 507.960963 170.594357 
L 510.94492 166.185318 
L 513.928877 161.879244 
L 516.912834 158.05156 
L 519.896791 154.63255 
L 522.880749 150.726723 
L 525.864706 147.728342 
L 528.848663 144.285166 
L 531.83262 141.820111 
L 534.816578 139.602637 
L 537.800535 137.671308 
L 540.784492 135.333329 
L 543.768449 133.430681 
L 546.752406 130.627824 
L 549.736364 128.168633 
L 552.720321 126.141873 
L 555.704278 124.149782 
L 558.688235 122.634408 
L 561.672193 120.951666 
L 564.65615 119.021754 
L 567.640107 117.542935 
L 570.624064 116.451939 
L 573.608021 115.281298 
L 576.591979 113.931443 
L 579.575936 113.129366 
L 582.559893 112.200859 
L 585.54385 111.67447 
L 588.527807 110.833993 
L 591.511765 110.053352 
L 594.495722 109.10988 
L 597.479679 108.23687 
L 600.463636 106.984918 
L 603.447594 105.735628 
L 606.431551 104.908216 
L 609.415508 103.605785 
L 612.399465 102.407343 
L 615.383422 100.848717 
L 618.36738 99.07642 
L 621.351337 97.715671 
L 624.335294 96.058799 
L 627.319251 94.205312 
L 630.303209 92.695805 
L 633.287166 90.939858 
L 636.271123 89.372956 
L 639.25508 88.02636 
L 642.239037 86.840316 
L 645.222995 85.567239 
L 648.206952 84.382601 
L 651.190909 83.337852 
L 654.174866 81.865945 
L 657.158824 80.817598 
L 660.142781 79.866245 
L 663.126738 77.817515 
L 666.110695 76.913296 
L 669.094652 75.592484 
L 672.07861 74.03087 
L 675.062567 72.107897 
L 678.046524 71.084241 
L 681.030481 70.162402 
L 684.014439 68.799296 
L 686.998396 68.001607 
L 689.982353 66.024234 
L 692.96631 66.202079 
L 695.950267 65.208895 
L 698.934225 64.059245 
L 701.918182 62.735196 
L 704.902139 61.521968 
L 707.886096 60.656431 
L 710.870053 59.167052 
L 713.854011 58.306568 
L 716.837968 56.689052 
L 719.821925 55.6349 
L 722.805882 54.931167 
L 725.78984 53.759859 
L 728.773797 53.151542 
L 731.757754 52.293641 
L 734.741711 51.796988 
L 737.725668 50.425336 
L 740.709626 48.693114 
L 743.693583 47.874276 
L 746.67754 47.561259 
L 749.661497 47.828703 
L 752.645455 46.574835 
L 755.629412 45.711189 
" clip-path="url(#p1933de12c1)" style="fill: none; stroke: #ce1126; stroke-width: 3; stroke-linecap: square"/>
   </g>
   <g id="text_23">
    <!-- Performance Curve (CNN) -->
    <g transform="translate(461.701654 25.640156) scale(0.27 -0.27)">
     <defs>
      <path id="STIXGeneral-Regular-63" d="M 2547 998 
L 2637 941 
Q 2362 403 2112 205 
Q 1786 -64 1376 -64 
Q 845 -64 502 336 
Q 160 736 160 1357 
Q 160 2170 698 2618 
Q 1094 2944 1562 2944 
Q 1965 2944 2256 2749 
Q 2547 2554 2547 2285 
Q 2547 2176 2457 2096 
Q 2368 2016 2246 2016 
Q 2022 2016 1939 2310 
L 1901 2451 
Q 1850 2630 1773 2694 
Q 1696 2758 1523 2758 
Q 1133 2758 893 2451 
Q 653 2144 653 1645 
Q 653 1094 928 745 
Q 1203 397 1645 397 
Q 1920 397 2118 528 
Q 2317 659 2547 998 
z
" transform="scale(0.015625)"/>
     </defs>
     <use xlink:href="#STIXGeneral-Regular-50"/>
     <use xlink:href="#STIXGeneral-Regular-65" transform="translate(55.699997 0)"/>
     <use xlink:href="#STIXGeneral-Regular-72" transform="translate(100.099991 0)"/>
     <use xlink:href="#STIXGeneral-Regular-66" transform="translate(133.399979 0)"/>
     <use xlink:href="#STIXGeneral-Regular-6f" transform="translate(166.699966 0)"/>
     <use xlink:href="#STIXGeneral-Regular-72" transform="translate(216.699951 0)"/>
     <use xlink:href="#STIXGeneral-Regular-6d" transform="translate(249.999939 0)"/>
     <use xlink:href="#STIXGeneral-Regular-61" transform="translate(327.799927 0)"/>
     <use xlink:href="#STIXGeneral-Regular-6e" transform="translate(372.199921 0)"/>
     <use xlink:href="#STIXGeneral-Regular-63" transform="translate(422.199905 0)"/>
     <use xlink:href="#STIXGeneral-Regular-65" transform="translate(466.599899 0)"/>
     <use xlink:href="#STIXGeneral-Regular-20" transform="translate(510.999893 0)"/>
     <use xlink:href="#STIXGeneral-Regular-43" transform="translate(535.999878 0)"/>
     <use xlink:href="#STIXGeneral-Regular-75" transform="translate(602.699875 0)"/>
     <use xlink:href="#STIXGeneral-Regular-72" transform="translate(652.69986 0)"/>
     <use xlink:href="#STIXGeneral-Regular-76" transform="translate(685.999847 0)"/>
     <use xlink:href="#STIXGeneral-Regular-65" transform="translate(735.999832 0)"/>
     <use xlink:href="#STIXGeneral-Regular-20" transform="translate(780.399826 0)"/>
     <use xlink:href="#STIXGeneral-Regular-28" transform="translate(805.399811 0)"/>
     <use xlink:href="#STIXGeneral-Regular-43" transform="translate(838.699799 0)"/>
     <use xlink:href="#STIXGeneral-Regular-4e" transform="translate(905.399796 0)"/>
     <use xlink:href="#STIXGeneral-Regular-4e" transform="translate(977.599777 0)"/>
     <use xlink:href="#STIXGeneral-Regular-29" transform="translate(1049.799759 0)"/>
    </g>
   </g>
  </g>
  <g id="axes_3">
   <g id="patch_16">
    <path d="M 814.711765 253.400156 
L 1110.123529 253.400156 
L 1110.123529 31.640156 
L 814.711765 31.640156 
z
" style="fill: #ffffff"/>
   </g>
   <g id="FillBetweenPolyCollection_3">
    <defs>
     <path id="m5f154bc145" d="M 814.711765 -85.146205 
L 814.711765 -83.049758 
L 817.695722 -88.588228 
L 820.679679 -93.806318 
L 823.663636 -98.93476 
L 826.647594 -103.869456 
L 829.631551 -108.349129 
L 832.615508 -116.870575 
L 835.599465 -124.360814 
L 838.583422 -130.969328 
L 841.56738 -137.537295 
L 844.551337 -142.877726 
L 847.535294 -148.67832 
L 850.519251 -154.24397 
L 853.503209 -158.946082 
L 856.487166 -163.218175 
L 859.471123 -167.763701 
L 862.45508 -172.546612 
L 865.439037 -179.173357 
L 868.422995 -185.726494 
L 871.406952 -190.170785 
L 874.390909 -195.47298 
L 877.374866 -200.547213 
L 880.358824 -205.128732 
L 883.342781 -208.774179 
L 886.326738 -211.320418 
L 889.310695 -214.258723 
L 892.294652 -217.800597 
L 895.27861 -220.673079 
L 898.262567 -222.208256 
L 901.246524 -224.309413 
L 904.230481 -226.460604 
L 907.214439 -227.870265 
L 910.198396 -229.92803 
L 913.182353 -230.806308 
L 916.16631 -232.796182 
L 919.150267 -233.924558 
L 922.134225 -235.742927 
L 925.118182 -236.971827 
L 928.102139 -237.962207 
L 931.086096 -239.34156 
L 934.070053 -239.565213 
L 937.054011 -239.939969 
L 940.037968 -240.699033 
L 943.021925 -243.545895 
L 946.005882 -244.263087 
L 948.98984 -245.747149 
L 951.973797 -247.143309 
L 954.957754 -247.834408 
L 957.941711 -248.654556 
L 960.925668 -249.35616 
L 963.909626 -250.205076 
L 966.893583 -250.892555 
L 969.87754 -250.628286 
L 972.861497 -249.621578 
L 975.845455 -248.463746 
L 978.829412 -248.628567 
L 981.813369 -248.508547 
L 984.797326 -248.610276 
L 987.781283 -248.557444 
L 990.765241 -248.392224 
L 993.749198 -248.601278 
L 996.733155 -248.693329 
L 999.717112 -248.535196 
L 1002.70107 -248.481697 
L 1005.685027 -248.355183 
L 1008.668984 -248.620664 
L 1011.652941 -248.556467 
L 1014.636898 -248.503644 
L 1017.620856 -248.674207 
L 1020.604813 -248.342628 
L 1023.58877 -248.67504 
L 1026.572727 -248.488282 
L 1029.556684 -248.724779 
L 1032.540642 -248.32061 
L 1035.524599 -248.757783 
L 1038.508556 -248.613735 
L 1041.492513 -248.666547 
L 1044.476471 -248.487119 
L 1047.460428 -248.220723 
L 1050.444385 -248.749846 
L 1053.428342 -248.472659 
L 1056.412299 -248.456498 
L 1059.396257 -248.33237 
L 1062.380214 -248.437653 
L 1065.364171 -248.587748 
L 1068.348128 -248.727338 
L 1071.332086 -248.638373 
L 1074.316043 -248.598108 
L 1077.3 -248.409471 
L 1080.283957 -248.759311 
L 1083.267914 -248.685229 
L 1086.251872 -248.595087 
L 1089.235829 -248.45034 
L 1092.219786 -248.501348 
L 1095.203743 -248.731179 
L 1098.187701 -248.419 
L 1101.171658 -248.548951 
L 1104.155615 -248.643342 
L 1107.139572 -248.545681 
L 1110.123529 -248.59036 
L 1110.123529 -260.615779 
L 1110.123529 -260.615779 
L 1107.139572 -260.616191 
L 1104.155615 -260.597546 
L 1101.171658 -260.332378 
L 1098.187701 -260.339231 
L 1095.203743 -260.595152 
L 1092.219786 -260.836966 
L 1089.235829 -260.482759 
L 1086.251872 -260.593998 
L 1083.267914 -260.169323 
L 1080.283957 -260.324855 
L 1077.3 -260.582625 
L 1074.316043 -260.224752 
L 1071.332086 -260.270034 
L 1068.348128 -260.45968 
L 1065.364171 -260.424914 
L 1062.380214 -260.526675 
L 1059.396257 -260.368575 
L 1056.412299 -260.364821 
L 1053.428342 -260.282731 
L 1050.444385 -260.412287 
L 1047.460428 -260.540025 
L 1044.476471 -260.599243 
L 1041.492513 -260.289464 
L 1038.508556 -260.786278 
L 1035.524599 -260.567422 
L 1032.540642 -260.183807 
L 1029.556684 -260.393489 
L 1026.572727 -260.389447 
L 1023.58877 -260.346097 
L 1020.604813 -260.803603 
L 1017.620856 -260.392007 
L 1014.636898 -260.499547 
L 1011.652941 -260.825478 
L 1008.668984 -260.66629 
L 1005.685027 -260.524006 
L 1002.70107 -260.456616 
L 999.717112 -260.306244 
L 996.733155 -260.363075 
L 993.749198 -260.507464 
L 990.765241 -260.414394 
L 987.781283 -260.146384 
L 984.797326 -260.275012 
L 981.813369 -260.76934 
L 978.829412 -260.249641 
L 975.845455 -260.606806 
L 972.861497 -259.804332 
L 969.87754 -260.146234 
L 966.893583 -259.333675 
L 963.909626 -256.81735 
L 960.925668 -255.588538 
L 957.941711 -253.83762 
L 954.957754 -252.628548 
L 951.973797 -251.869149 
L 948.98984 -250.282481 
L 946.005882 -249.085592 
L 943.021925 -247.210813 
L 940.037968 -245.626793 
L 937.054011 -246.012363 
L 934.070053 -245.272517 
L 931.086096 -244.627567 
L 928.102139 -243.467766 
L 925.118182 -242.541525 
L 922.134225 -240.470095 
L 919.150267 -240.113125 
L 916.16631 -237.890646 
L 913.182353 -235.454227 
L 910.198396 -233.507787 
L 907.214439 -231.885659 
L 904.230481 -230.62868 
L 901.246524 -228.307114 
L 898.262567 -226.689088 
L 895.27861 -225.468888 
L 892.294652 -223.357845 
L 889.310695 -221.098595 
L 886.326738 -218.481135 
L 883.342781 -215.965062 
L 880.358824 -211.814193 
L 877.374866 -207.98793 
L 874.390909 -202.795474 
L 871.406952 -197.651127 
L 868.422995 -192.4375 
L 865.439037 -185.023436 
L 862.45508 -177.340619 
L 859.471123 -172.773364 
L 856.487166 -167.290285 
L 853.503209 -162.189139 
L 850.519251 -157.094117 
L 847.535294 -152.910002 
L 844.551337 -147.753498 
L 841.56738 -141.754961 
L 838.583422 -134.735435 
L 835.599465 -127.863567 
L 832.615508 -120.77553 
L 829.631551 -111.414482 
L 826.647594 -106.71386 
L 823.663636 -101.456021 
L 820.679679 -96.455212 
L 817.695722 -91.233984 
L 814.711765 -85.146205 
z
" style="stroke: #9467bd; stroke-opacity: 0.3"/>
    </defs>
    <g clip-path="url(#p3c60113a31)">
     <use xlink:href="#m5f154bc145" x="0" y="313.000156" style="fill: #9467bd; fill-opacity: 0.3; stroke: #9467bd; stroke-opacity: 0.3"/>
    </g>
   </g>
   <g id="FillBetweenPolyCollection_4">
    <defs>
     <path id="m7283c13b2a" d="M 814.711765 -85.595222 
L 814.711765 -84.280552 
L 817.695722 -90.285673 
L 820.679679 -95.360294 
L 823.663636 -100.056572 
L 826.647594 -104.333034 
L 829.631551 -108.283085 
L 832.615508 -117.388927 
L 835.599465 -125.281432 
L 838.583422 -132.826154 
L 841.56738 -140.379262 
L 844.551337 -148.672878 
L 847.535294 -156.802781 
L 850.519251 -162.86452 
L 853.503209 -167.925886 
L 856.487166 -174.165477 
L 859.471123 -179.406655 
L 862.45508 -184.851035 
L 865.439037 -189.283971 
L 868.422995 -194.140698 
L 871.406952 -199.625647 
L 874.390909 -206.099185 
L 877.374866 -212.273881 
L 880.358824 -218.468266 
L 883.342781 -223.01684 
L 886.326738 -228.390595 
L 889.310695 -233.371843 
L 892.294652 -236.792475 
L 895.27861 -239.652652 
L 898.262567 -242.286426 
L 901.246524 -244.866483 
L 904.230481 -245.90459 
L 907.214439 -247.259183 
L 910.198396 -249.157871 
L 913.182353 -251.220747 
L 916.16631 -252.436068 
L 919.150267 -254.582725 
L 922.134225 -255.171611 
L 925.118182 -253.699365 
L 928.102139 -255.177596 
L 931.086096 -257.470432 
L 934.070053 -259.924765 
L 937.054011 -259.54524 
L 940.037968 -259.493095 
L 943.021925 -258.488829 
L 946.005882 -259.802685 
L 948.98984 -260.351433 
L 951.973797 -261.226947 
L 954.957754 -261.934189 
L 957.941711 -261.64525 
L 960.925668 -260.191216 
L 963.909626 -258.916364 
L 966.893583 -258.928891 
L 969.87754 -257.781107 
L 972.861497 -257.892825 
L 975.845455 -256.897128 
L 978.829412 -257.11152 
L 981.813369 -256.610922 
L 984.797326 -256.874293 
L 987.781283 -256.911975 
L 990.765241 -256.570708 
L 993.749198 -256.774731 
L 996.733155 -257.099892 
L 999.717112 -257.049455 
L 1002.70107 -257.076797 
L 1005.685027 -257.199793 
L 1008.668984 -257.211706 
L 1011.652941 -257.056693 
L 1014.636898 -257.25145 
L 1017.620856 -256.892695 
L 1020.604813 -257.162154 
L 1023.58877 -256.67558 
L 1026.572727 -256.893283 
L 1029.556684 -256.926606 
L 1032.540642 -256.86347 
L 1035.524599 -256.829289 
L 1038.508556 -256.619094 
L 1041.492513 -257.079292 
L 1044.476471 -256.832777 
L 1047.460428 -256.826021 
L 1050.444385 -256.894007 
L 1053.428342 -257.150767 
L 1056.412299 -256.780651 
L 1059.396257 -257.130217 
L 1062.380214 -257.35595 
L 1065.364171 -256.714266 
L 1068.348128 -257.003312 
L 1071.332086 -257.057554 
L 1074.316043 -256.995904 
L 1077.3 -257.163 
L 1080.283957 -257.323152 
L 1083.267914 -256.687132 
L 1086.251872 -256.924797 
L 1089.235829 -257.082846 
L 1092.219786 -256.733341 
L 1095.203743 -256.754857 
L 1098.187701 -257.17326 
L 1101.171658 -256.958068 
L 1104.155615 -256.955881 
L 1107.139572 -256.789395 
L 1110.123529 -256.979984 
L 1110.123529 -271.161435 
L 1110.123529 -271.161435 
L 1107.139572 -271.140561 
L 1104.155615 -271.240341 
L 1101.171658 -271.535709 
L 1098.187701 -271.159922 
L 1095.203743 -271.735661 
L 1092.219786 -271.659611 
L 1089.235829 -271.916655 
L 1086.251872 -271.309951 
L 1083.267914 -271.603954 
L 1080.283957 -271.245204 
L 1077.3 -271.341142 
L 1074.316043 -271.219139 
L 1071.332086 -271.142951 
L 1068.348128 -271.209503 
L 1065.364171 -271.213033 
L 1062.380214 -271.284416 
L 1059.396257 -271.287896 
L 1056.412299 -271.305943 
L 1053.428342 -271.241375 
L 1050.444385 -271.147924 
L 1047.460428 -271.388675 
L 1044.476471 -271.057473 
L 1041.492513 -271.625265 
L 1038.508556 -271.249755 
L 1035.524599 -271.106225 
L 1032.540642 -271.456435 
L 1029.556684 -271.161465 
L 1026.572727 -271.352597 
L 1023.58877 -271.815823 
L 1020.604813 -271.302232 
L 1017.620856 -271.173195 
L 1014.636898 -271.489627 
L 1011.652941 -271.286391 
L 1008.668984 -271.210071 
L 1005.685027 -271.574198 
L 1002.70107 -271.519269 
L 999.717112 -271.287647 
L 996.733155 -271.690099 
L 993.749198 -271.554904 
L 990.765241 -271.589058 
L 987.781283 -271.459873 
L 984.797326 -271.52507 
L 981.813369 -271.337375 
L 978.829412 -271.231914 
L 975.845455 -271.506051 
L 972.861497 -271.333695 
L 969.87754 -268.795281 
L 966.893583 -268.875589 
L 963.909626 -268.782924 
L 960.925668 -269.274364 
L 957.941711 -269.477303 
L 954.957754 -270.277479 
L 951.973797 -268.312947 
L 948.98984 -266.597135 
L 946.005882 -267.087871 
L 943.021925 -266.668635 
L 940.037968 -267.03232 
L 937.054011 -266.023395 
L 934.070053 -264.005965 
L 931.086096 -261.449139 
L 928.102139 -259.023424 
L 925.118182 -259.27005 
L 922.134225 -259.315184 
L 919.150267 -260.223677 
L 916.16631 -258.686824 
L 913.182353 -256.921658 
L 910.198396 -253.939709 
L 907.214439 -252.722794 
L 904.230481 -251.46157 
L 901.246524 -250.211183 
L 898.262567 -249.399694 
L 895.27861 -245.576358 
L 892.294652 -242.720077 
L 889.310695 -239.676677 
L 886.326738 -236.702496 
L 883.342781 -233.704632 
L 880.358824 -231.621447 
L 877.374866 -227.537633 
L 874.390909 -224.256582 
L 871.406952 -219.758241 
L 868.422995 -214.406627 
L 865.439037 -208.244705 
L 862.45508 -202.771675 
L 859.471123 -193.517996 
L 856.487166 -183.407655 
L 853.503209 -174.031792 
L 850.519251 -168.821787 
L 847.535294 -161.770041 
L 844.551337 -154.557059 
L 841.56738 -146.821963 
L 838.583422 -138.776379 
L 835.599465 -130.346016 
L 832.615508 -121.325627 
L 829.631551 -112.125715 
L 826.647594 -107.47153 
L 823.663636 -102.220912 
L 820.679679 -97.167357 
L 817.695722 -91.657552 
L 814.711765 -85.595222 
z
" style="stroke: #ce1126; stroke-opacity: 0.3"/>
    </defs>
    <g clip-path="url(#p3c60113a31)">
     <use xlink:href="#m7283c13b2a" x="0" y="313.000156" style="fill: #ce1126; fill-opacity: 0.3; stroke: #ce1126; stroke-opacity: 0.3"/>
    </g>
   </g>
   <g id="matplotlib.axis_5">
    <g id="xtick_10">
     <g id="line2d_36">
      <path d="M 814.711765 253.400156 
L 814.711765 31.640156 
" clip-path="url(#p3c60113a31)" style="fill: none; stroke: #b0b0b0; stroke-width: 0.8; stroke-linecap: square"/>
     </g>
     <g id="line2d_37">
      <g>
       <use xlink:href="#m7928ea0c62" x="814.711765" y="253.400156" style="stroke: #000000; stroke-width: 0.8"/>
      </g>
     </g>
     <g id="text_24">
      <!-- 1 -->
      <g transform="translate(808.711765 276.791406) scale(0.24 -0.24)">
       <use xlink:href="#STIXGeneral-Regular-31"/>
      </g>
     </g>
    </g>
    <g id="xtick_11">
     <g id="line2d_38">
      <path d="M 871.406952 253.400156 
L 871.406952 31.640156 
" clip-path="url(#p3c60113a31)" style="fill: none; stroke: #b0b0b0; stroke-width: 0.8; stroke-linecap: square"/>
     </g>
     <g id="line2d_39">
      <g>
       <use xlink:href="#m7928ea0c62" x="871.406952" y="253.400156" style="stroke: #000000; stroke-width: 0.8"/>
      </g>
     </g>
     <g id="text_25">
      <!-- 20 -->
      <g transform="translate(859.406952 276.791406) scale(0.24 -0.24)">
       <use xlink:href="#STIXGeneral-Regular-32"/>
       <use xlink:href="#STIXGeneral-Regular-30" transform="translate(49.999985 0)"/>
      </g>
     </g>
    </g>
    <g id="xtick_12">
     <g id="line2d_40">
      <path d="M 931.086096 253.400156 
L 931.086096 31.640156 
" clip-path="url(#p3c60113a31)" style="fill: none; stroke: #b0b0b0; stroke-width: 0.8; stroke-linecap: square"/>
     </g>
     <g id="line2d_41">
      <g>
       <use xlink:href="#m7928ea0c62" x="931.086096" y="253.400156" style="stroke: #000000; stroke-width: 0.8"/>
      </g>
     </g>
     <g id="text_26">
      <!-- 40 -->
      <g transform="translate(919.086096 276.791406) scale(0.24 -0.24)">
       <use xlink:href="#STIXGeneral-Regular-34"/>
       <use xlink:href="#STIXGeneral-Regular-30" transform="translate(49.999985 0)"/>
      </g>
     </g>
    </g>
    <g id="xtick_13">
     <g id="line2d_42">
      <path d="M 990.765241 253.400156 
L 990.765241 31.640156 
" clip-path="url(#p3c60113a31)" style="fill: none; stroke: #b0b0b0; stroke-width: 0.8; stroke-linecap: square"/>
     </g>
     <g id="line2d_43">
      <g>
       <use xlink:href="#m7928ea0c62" x="990.765241" y="253.400156" style="stroke: #000000; stroke-width: 0.8"/>
      </g>
     </g>
     <g id="text_27">
      <!-- 60 -->
      <g transform="translate(978.765241 276.791406) scale(0.24 -0.24)">
       <use xlink:href="#STIXGeneral-Regular-36"/>
       <use xlink:href="#STIXGeneral-Regular-30" transform="translate(49.999985 0)"/>
      </g>
     </g>
    </g>
    <g id="xtick_14">
     <g id="line2d_44">
      <path d="M 1050.444385 253.400156 
L 1050.444385 31.640156 
" clip-path="url(#p3c60113a31)" style="fill: none; stroke: #b0b0b0; stroke-width: 0.8; stroke-linecap: square"/>
     </g>
     <g id="line2d_45">
      <g>
       <use xlink:href="#m7928ea0c62" x="1050.444385" y="253.400156" style="stroke: #000000; stroke-width: 0.8"/>
      </g>
     </g>
     <g id="text_28">
      <!-- 80 -->
      <g transform="translate(1038.444385 276.791406) scale(0.24 -0.24)">
       <use xlink:href="#STIXGeneral-Regular-38"/>
       <use xlink:href="#STIXGeneral-Regular-30" transform="translate(49.999985 0)"/>
      </g>
     </g>
    </g>
    <g id="xtick_15">
     <g id="line2d_46">
      <path d="M 1110.123529 253.400156 
L 1110.123529 31.640156 
" clip-path="url(#p3c60113a31)" style="fill: none; stroke: #b0b0b0; stroke-width: 0.8; stroke-linecap: square"/>
     </g>
     <g id="line2d_47">
      <g>
       <use xlink:href="#m7928ea0c62" x="1110.123529" y="253.400156" style="stroke: #000000; stroke-width: 0.8"/>
      </g>
     </g>
     <g id="text_29">
      <!-- 100 -->
      <g transform="translate(1092.123529 276.791406) scale(0.24 -0.24)">
       <use xlink:href="#STIXGeneral-Regular-31"/>
       <use xlink:href="#STIXGeneral-Regular-30" transform="translate(49.999985 0)"/>
       <use xlink:href="#STIXGeneral-Regular-30" transform="translate(99.999969 0)"/>
      </g>
     </g>
    </g>
   </g>
   <g id="matplotlib.axis_6">
    <g id="ytick_8">
     <g id="line2d_48">
      <path d="M 814.711765 253.400156 
L 1110.123529 253.400156 
" clip-path="url(#p3c60113a31)" style="fill: none; stroke: #b0b0b0; stroke-width: 0.8; stroke-linecap: square"/>
     </g>
     <g id="line2d_49">
      <g>
       <use xlink:href="#m1bc939ce58" x="814.711765" y="253.400156" style="stroke: #000000; stroke-width: 0.8"/>
      </g>
     </g>
     <g id="text_30">
      <!-- 0 -->
      <g transform="translate(795.711765 261.595781) scale(0.24 -0.24)">
       <use xlink:href="#STIXGeneral-Regular-30"/>
      </g>
     </g>
    </g>
    <g id="ytick_9">
     <g id="line2d_50">
      <path d="M 814.711765 183.083738 
L 1110.123529 183.083738 
" clip-path="url(#p3c60113a31)" style="fill: none; stroke: #b0b0b0; stroke-width: 0.8; stroke-linecap: square"/>
     </g>
     <g id="line2d_51">
      <g>
       <use xlink:href="#m1bc939ce58" x="814.711765" y="183.083738" style="stroke: #000000; stroke-width: 0.8"/>
      </g>
     </g>
     <g id="text_31">
      <!-- 2 -->
      <g transform="translate(795.711765 191.279363) scale(0.24 -0.24)">
       <use xlink:href="#STIXGeneral-Regular-32"/>
      </g>
     </g>
    </g>
    <g id="ytick_10">
     <g id="line2d_52">
      <path d="M 814.711765 112.767321 
L 1110.123529 112.767321 
" clip-path="url(#p3c60113a31)" style="fill: none; stroke: #b0b0b0; stroke-width: 0.8; stroke-linecap: square"/>
     </g>
     <g id="line2d_53">
      <g>
       <use xlink:href="#m1bc939ce58" x="814.711765" y="112.767321" style="stroke: #000000; stroke-width: 0.8"/>
      </g>
     </g>
     <g id="text_32">
      <!-- 4 -->
      <g transform="translate(795.711765 120.962946) scale(0.24 -0.24)">
       <use xlink:href="#STIXGeneral-Regular-34"/>
      </g>
     </g>
    </g>
    <g id="ytick_11">
     <g id="line2d_54">
      <path d="M 814.711765 42.450903 
L 1110.123529 42.450903 
" clip-path="url(#p3c60113a31)" style="fill: none; stroke: #b0b0b0; stroke-width: 0.8; stroke-linecap: square"/>
     </g>
     <g id="line2d_55">
      <g>
       <use xlink:href="#m1bc939ce58" x="814.711765" y="42.450903" style="stroke: #000000; stroke-width: 0.8"/>
      </g>
     </g>
     <g id="text_33">
      <!-- 6 -->
      <g transform="translate(795.711765 50.646528) scale(0.24 -0.24)">
       <use xlink:href="#STIXGeneral-Regular-36"/>
      </g>
     </g>
    </g>
   </g>
   <g id="line2d_56">
    <path d="M 814.711765 228.977799 
L 817.695722 223.081617 
L 820.679679 217.958765 
L 823.663636 212.896759 
L 826.647594 207.723212 
L 829.631551 203.094186 
L 832.615508 194.304208 
L 835.599465 187.228175 
L 838.583422 180.315269 
L 841.56738 173.646675 
L 844.551337 167.832154 
L 847.535294 162.24548 
L 850.519251 157.274647 
L 853.503209 152.410628 
L 856.487166 147.746825 
L 859.471123 142.625482 
L 862.45508 137.926614 
L 865.439037 130.527849 
L 868.422995 123.559974 
L 871.406952 119.234622 
L 874.390909 114.466916 
L 877.374866 109.784846 
L 880.358824 105.016466 
L 883.342781 100.957814 
L 886.326738 98.488409 
L 889.310695 95.790881 
L 892.294652 92.743801 
L 895.27861 90.067062 
L 898.262567 88.67289 
L 901.246524 86.824315 
L 904.230481 84.685187 
L 907.214439 83.413726 
L 910.198396 81.364747 
L 913.182353 79.802086 
L 916.16631 77.649293 
L 919.150267 75.931923 
L 922.134225 74.834719 
L 925.118182 73.213718 
L 928.102139 72.215842 
L 931.086096 70.948106 
L 934.070053 70.652547 
L 937.054011 70.09504 
L 940.037968 69.766625 
L 943.021925 67.612773 
L 946.005882 66.54988 
L 948.98984 65.148099 
L 951.973797 63.583493 
L 954.957754 63.058723 
L 957.941711 61.793152 
L 960.925668 60.615596 
L 963.909626 59.451111 
L 966.893583 58.160269 
L 969.87754 57.78385 
L 972.861497 58.644446 
L 975.845455 58.875597 
L 978.829412 58.875597 
L 981.813369 58.875597 
L 984.797326 58.875597 
L 987.781283 58.875597 
L 990.765241 58.875597 
L 993.749198 58.875597 
L 996.733155 58.875597 
L 999.717112 58.875597 
L 1002.70107 58.875597 
L 1005.685027 58.875597 
L 1008.668984 58.875597 
L 1011.652941 58.875597 
L 1014.636898 58.875597 
L 1017.620856 58.875597 
L 1020.604813 58.875597 
L 1023.58877 58.875597 
L 1026.572727 58.875597 
L 1029.556684 58.875597 
L 1032.540642 58.875597 
L 1035.524599 58.875597 
L 1038.508556 58.875597 
L 1041.492513 58.875597 
L 1044.476471 58.875597 
L 1047.460428 58.875597 
L 1050.444385 58.875597 
L 1053.428342 58.875597 
L 1056.412299 58.875597 
L 1059.396257 58.875597 
L 1062.380214 58.875597 
L 1065.364171 58.875597 
L 1068.348128 58.875597 
L 1071.332086 58.875597 
L 1074.316043 58.875597 
L 1077.3 58.875597 
L 1080.283957 58.875597 
L 1083.267914 58.875597 
L 1086.251872 58.875597 
L 1089.235829 58.875597 
L 1092.219786 58.875597 
L 1095.203743 58.875597 
L 1098.187701 58.875597 
L 1101.171658 58.875597 
L 1104.155615 58.875597 
L 1107.139572 58.875597 
L 1110.123529 58.875597 
" clip-path="url(#p3c60113a31)" style="fill: none; stroke: #9467bd; stroke-width: 3; stroke-linecap: square"/>
   </g>
   <g id="patch_17">
    <path d="M 814.711765 253.400156 
L 814.711765 31.640156 
" style="fill: none; stroke: #000000; stroke-width: 0.8; stroke-linejoin: miter; stroke-linecap: square"/>
   </g>
   <g id="patch_18">
    <path d="M 1110.123529 253.400156 
L 1110.123529 31.640156 
" style="fill: none; stroke: #000000; stroke-width: 0.8; stroke-linejoin: miter; stroke-linecap: square"/>
   </g>
   <g id="patch_19">
    <path d="M 814.711765 253.400156 
L 1110.123529 253.400156 
" style="fill: none; stroke: #000000; stroke-width: 0.8; stroke-linejoin: miter; stroke-linecap: square"/>
   </g>
   <g id="patch_20">
    <path d="M 814.711765 31.640156 
L 1110.123529 31.640156 
" style="fill: none; stroke: #000000; stroke-width: 0.8; stroke-linejoin: miter; stroke-linecap: square"/>
   </g>
   <g id="line2d_57">
    <path d="M 814.711765 228.111985 
L 817.695722 222.057067 
L 820.679679 216.705972 
L 823.663636 211.87765 
L 826.647594 207.106746 
L 829.631551 202.931235 
L 832.615508 193.887413 
L 835.599465 185.544307 
L 838.583422 178.00606 
L 841.56738 169.33558 
L 844.551337 161.459516 
L 847.535294 153.63076 
L 850.519251 147.113508 
L 853.503209 141.949476 
L 856.487166 134.171811 
L 859.471123 126.429642 
L 862.45508 119.27652 
L 865.439037 114.658257 
L 868.422995 110.602792 
L 871.406952 106.162785 
L 874.390909 101.538036 
L 877.374866 96.272288 
L 880.358824 90.747468 
L 883.342781 86.13958 
L 886.326738 80.902251 
L 889.310695 76.640287 
L 892.294652 73.354557 
L 895.27861 70.591377 
L 898.262567 67.289012 
L 901.246524 65.487863 
L 904.230481 64.383499 
L 907.214439 63.092234 
L 910.198396 61.384956 
L 913.182353 59.064992 
L 916.16631 57.529239 
L 919.150267 55.649253 
L 922.134225 55.915648 
L 925.118182 56.45191 
L 928.102139 56.010199 
L 931.086096 53.718416 
L 934.070053 51.002717 
L 937.054011 50.165538 
L 940.037968 49.583576 
L 943.021925 50.565877 
L 946.005882 49.634977 
L 948.98984 49.685556 
L 951.973797 48.280244 
L 954.957754 46.838101 
L 957.941711 47.318002 
L 960.925668 48.291884 
L 963.909626 49.079961 
L 966.893583 49.140862 
L 969.87754 49.753776 
L 972.861497 48.419644 
L 975.845455 48.902551 
L 978.829412 48.902551 
L 981.813369 48.902551 
L 984.797326 48.902551 
L 987.781283 48.902551 
L 990.765241 48.902551 
L 993.749198 48.902551 
L 996.733155 48.902551 
L 999.717112 48.902551 
L 1002.70107 48.902551 
L 1005.685027 48.902551 
L 1008.668984 48.902551 
L 1011.652941 48.902551 
L 1014.636898 48.902551 
L 1017.620856 48.902551 
L 1020.604813 48.902551 
L 1023.58877 48.902551 
L 1026.572727 48.902551 
L 1029.556684 48.902551 
L 1032.540642 48.902551 
L 1035.524599 48.902551 
L 1038.508556 48.902551 
L 1041.492513 48.902551 
L 1044.476471 48.902551 
L 1047.460428 48.902551 
L 1050.444385 48.902551 
L 1053.428342 48.902551 
L 1056.412299 48.902551 
L 1059.396257 48.902551 
L 1062.380214 48.902551 
L 1065.364171 48.902551 
L 1068.348128 48.902551 
L 1071.332086 48.902551 
L 1074.316043 48.902551 
L 1077.3 48.902551 
L 1080.283957 48.902551 
L 1083.267914 48.902551 
L 1086.251872 48.902551 
L 1089.235829 48.902551 
L 1092.219786 48.902551 
L 1095.203743 48.902551 
L 1098.187701 48.902551 
L 1101.171658 48.902551 
L 1104.155615 48.902551 
L 1107.139572 48.902551 
L 1110.123529 48.902551 
" clip-path="url(#p3c60113a31)" style="fill: none; stroke: #ce1126; stroke-width: 3; stroke-linecap: square"/>
   </g>
   <g id="text_34">
    <!-- Performance Curve (IMPALA) -->
    <g transform="translate(792.935694 25.640156) scale(0.27 -0.27)">
     <use xlink:href="#STIXGeneral-Regular-50"/>
     <use xlink:href="#STIXGeneral-Regular-65" transform="translate(55.699997 0)"/>
     <use xlink:href="#STIXGeneral-Regular-72" transform="translate(100.099991 0)"/>
     <use xlink:href="#STIXGeneral-Regular-66" transform="translate(133.399979 0)"/>
     <use xlink:href="#STIXGeneral-Regular-6f" transform="translate(166.699966 0)"/>
     <use xlink:href="#STIXGeneral-Regular-72" transform="translate(216.699951 0)"/>
     <use xlink:href="#STIXGeneral-Regular-6d" transform="translate(249.999939 0)"/>
     <use xlink:href="#STIXGeneral-Regular-61" transform="translate(327.799927 0)"/>
     <use xlink:href="#STIXGeneral-Regular-6e" transform="translate(372.199921 0)"/>
     <use xlink:href="#STIXGeneral-Regular-63" transform="translate(422.199905 0)"/>
     <use xlink:href="#STIXGeneral-Regular-65" transform="translate(466.599899 0)"/>
     <use xlink:href="#STIXGeneral-Regular-20" transform="translate(510.999893 0)"/>
     <use xlink:href="#STIXGeneral-Regular-43" transform="translate(535.999878 0)"/>
     <use xlink:href="#STIXGeneral-Regular-75" transform="translate(602.699875 0)"/>
     <use xlink:href="#STIXGeneral-Regular-72" transform="translate(652.69986 0)"/>
     <use xlink:href="#STIXGeneral-Regular-76" transform="translate(685.999847 0)"/>
     <use xlink:href="#STIXGeneral-Regular-65" transform="translate(735.999832 0)"/>
     <use xlink:href="#STIXGeneral-Regular-20" transform="translate(780.399826 0)"/>
     <use xlink:href="#STIXGeneral-Regular-28" transform="translate(805.399811 0)"/>
     <use xlink:href="#STIXGeneral-Regular-49" transform="translate(838.699799 0)"/>
     <use xlink:href="#STIXGeneral-Regular-4d" transform="translate(871.999786 0)"/>
     <use xlink:href="#STIXGeneral-Regular-50" transform="translate(960.89978 0)"/>
     <use xlink:href="#STIXGeneral-Regular-41" transform="translate(1016.599777 0)"/>
     <use xlink:href="#STIXGeneral-Regular-4c" transform="translate(1088.799759 0)"/>
     <use xlink:href="#STIXGeneral-Regular-41" transform="translate(1149.89975 0)"/>
     <use xlink:href="#STIXGeneral-Regular-29" transform="translate(1222.099731 0)"/>
    </g>
   </g>
   <g id="legend_1">
    <g id="patch_21">
     <path d="M 889.136967 244.400156 
L 1097.523529 244.400156 
Q 1101.123529 244.400156 1101.123529 240.800156 
L 1101.123529 191.587031 
Q 1101.123529 187.987031 1097.523529 187.987031 
L 889.136967 187.987031 
Q 885.536967 187.987031 885.536967 191.587031 
L 885.536967 240.800156 
Q 885.536967 244.400156 889.136967 244.400156 
z
" style="fill: #ffffff; opacity: 0.8; stroke: #cccccc; stroke-linejoin: miter"/>
    </g>
    <g id="line2d_58">
     <path d="M 892.736967 201.487031 
L 910.736967 201.487031 
L 928.736967 201.487031 
" style="fill: none; stroke: #9467bd; stroke-width: 3; stroke-linecap: square"/>
    </g>
    <g id="text_35">
     <!-- IQN -->
     <g transform="translate(943.136967 207.787031) scale(0.18 -0.18)">
      <use xlink:href="#STIXGeneral-Regular-49"/>
      <use xlink:href="#STIXGeneral-Regular-51" transform="translate(33.299988 0)"/>
      <use xlink:href="#STIXGeneral-Regular-4e" transform="translate(105.499969 0)"/>
     </g>
    </g>
    <g id="line2d_59">
     <path d="M 892.736967 226.993594 
L 910.736967 226.993594 
L 928.736967 226.993594 
" style="fill: none; stroke: #ce1126; stroke-width: 3; stroke-linecap: square"/>
    </g>
    <g id="text_36">
     <!-- IQN+MINTO (ours) -->
     <g transform="translate(943.136967 233.293594) scale(0.18 -0.18)">
      <use xlink:href="#STIXGeneral-Regular-49"/>
      <use xlink:href="#STIXGeneral-Regular-51" transform="translate(33.299988 0)"/>
      <use xlink:href="#STIXGeneral-Regular-4e" transform="translate(105.499969 0)"/>
      <use xlink:href="#STIXGeneral-Regular-2b" transform="translate(177.699951 0)"/>
      <use xlink:href="#STIXGeneral-Regular-4d" transform="translate(246.199936 0)"/>
      <use xlink:href="#STIXGeneral-Regular-49" transform="translate(335.09993 0)"/>
      <use xlink:href="#STIXGeneral-Regular-4e" transform="translate(368.399918 0)"/>
      <use xlink:href="#STIXGeneral-Regular-54" transform="translate(440.599899 0)"/>
      <use xlink:href="#STIXGeneral-Regular-4f" transform="translate(501.69989 0)"/>
      <use xlink:href="#STIXGeneral-Regular-20" transform="translate(573.899872 0)"/>
      <use xlink:href="#STIXGeneral-Regular-28" transform="translate(598.899857 0)"/>
      <use xlink:href="#STIXGeneral-Regular-6f" transform="translate(632.199844 0)"/>
      <use xlink:href="#STIXGeneral-Regular-75" transform="translate(682.199829 0)"/>
      <use xlink:href="#STIXGeneral-Regular-72" transform="translate(732.199814 0)"/>
      <use xlink:href="#STIXGeneral-Regular-73" transform="translate(765.499802 0)"/>
      <use xlink:href="#STIXGeneral-Regular-29" transform="translate(804.399796 0)"/>
     </g>
    </g>
   </g>
  </g>
 </g>
 <defs>
  <clipPath id="pfc237acdb1">
   <rect x="105.723529" y="31.640156" width="295.411765" height="221.76"/>
  </clipPath>
  <clipPath id="p1933de12c1">
   <rect x="460.217647" y="31.640156" width="295.411765" height="221.76"/>
  </clipPath>
  <clipPath id="p3c60113a31">
   <rect x="814.711765" y="31.640156" width="295.411765" height="221.76"/>
  </clipPath>
 </defs>
</svg>
