<?xml version="1.0" encoding="utf-8" standalone="no"?>
<!DOCTYPE svg PUBLIC "-//W3C//DTD SVG 1.1//EN"
  "http://www.w3.org/Graphics/SVG/1.1/DTD/svg11.dtd">
<svg xmlns:xlink="http://www.w3.org/1999/xlink" width="1183.583116pt" height="313.220156pt" viewBox="0 0 1183.583116 313.220156" xmlns="http://www.w3.org/2000/svg" version="1.1">
 <metadata>
  <rdf:RDF xmlns:dc="http://purl.org/dc/elements/1.1/" xmlns:cc="http://creativecommons.org/ns#" xmlns:rdf="http://www.w3.org/1999/02/22-rdf-syntax-ns#">
   <cc:Work>
    <dc:type rdf:resource="http://purl.org/dc/dcmitype/StillImage"/>
    <dc:date>2026-02-10T15:02:45.599749</dc:date>
    <dc:format>image/svg+xml</dc:format>
    <dc:creator>
     <cc:Agent>
      <dc:title>Matplotlib v3.10.1, https://matplotlib.org/</dc:title>
     </cc:Agent>
    </dc:creator>
   </cc:Work>
  </rdf:RDF>
 </metadata>
 <defs>
  <style type="text/css">*{stroke-linejoin: round; stroke-linecap: butt}</style>
 </defs>
 <g id="figure_1">
  <g id="patch_1">
   <path d="M -0 313.220156 
L 1183.583116 313.220156 
L 1183.583116 0 
L -0 0 
z
" style="fill: #ffffff"/>
  </g>
  <g id="axes_1">
   <g id="patch_2">
    <path d="M 148.489535 253.400156 
L 440.466279 253.400156 
L 440.466279 31.640156 
L 148.489535 31.640156 
z
" style="fill: #ffffff"/>
   </g>
   <g id="matplotlib.axis_1">
    <g id="xtick_1">
     <g id="line2d_1">
      <path d="M 182.83974 253.400156 
L 182.83974 31.640156 
" clip-path="url(#p6debe59d9d)" style="fill: none; stroke: #b0b0b0; stroke-width: 0.8; stroke-linecap: square"/>
     </g>
     <g id="line2d_2">
      <defs>
       <path id="m62b740f934" d="M 0 0 
L 0 3.5 
" style="stroke: #000000; stroke-width: 0.8"/>
      </defs>
      <g>
       <use xlink:href="#m62b740f934" x="182.83974" y="253.400156" style="stroke: #000000; stroke-width: 0.8"/>
      </g>
     </g>
     <g id="text_1">
      <!-- 100 -->
      <g transform="translate(164.83974 276.791406) scale(0.24 -0.24)">
       <defs>
        <path id="STIXGeneral-Regular-31" d="M 2522 0 
L 755 0 
L 755 96 
Q 1107 115 1235 227 
Q 1363 339 1363 608 
L 1363 3482 
Q 1363 3795 1171 3795 
Q 1082 3795 883 3718 
L 710 3654 
L 710 3744 
L 1856 4326 
L 1914 4307 
L 1914 486 
Q 1914 275 2042 185 
Q 2170 96 2522 96 
L 2522 0 
z
" transform="scale(0.015625)"/>
        <path id="STIXGeneral-Regular-30" d="M 3046 2112 
Q 3046 1683 2963 1302 
Q 2880 922 2717 602 
Q 2554 282 2266 96 
Q 1978 -90 1600 -90 
Q 1210 -90 915 108 
Q 621 307 461 640 
Q 301 973 227 1350 
Q 154 1728 154 2150 
Q 154 2746 301 3222 
Q 448 3699 790 4012 
Q 1133 4326 1626 4326 
Q 2253 4326 2649 3712 
Q 3046 3098 3046 2112 
z
M 2432 2080 
Q 2432 3091 2217 3625 
Q 2003 4160 1587 4160 
Q 1190 4160 979 3622 
Q 768 3085 768 2106 
Q 768 1120 979 598 
Q 1190 77 1600 77 
Q 2003 77 2217 598 
Q 2432 1120 2432 2080 
z
" transform="scale(0.015625)"/>
       </defs>
       <use xlink:href="#STIXGeneral-Regular-31"/>
       <use xlink:href="#STIXGeneral-Regular-30" transform="translate(49.999985 0)"/>
       <use xlink:href="#STIXGeneral-Regular-30" transform="translate(99.999969 0)"/>
      </g>
     </g>
    </g>
    <g id="xtick_2">
     <g id="line2d_3">
      <path d="M 268.715253 253.400156 
L 268.715253 31.640156 
" clip-path="url(#p6debe59d9d)" style="fill: none; stroke: #b0b0b0; stroke-width: 0.8; stroke-linecap: square"/>
     </g>
     <g id="line2d_4">
      <g>
       <use xlink:href="#m62b740f934" x="268.715253" y="253.400156" style="stroke: #000000; stroke-width: 0.8"/>
      </g>
     </g>
     <g id="text_2">
      <!-- 150 -->
      <g transform="translate(250.715253 276.791406) scale(0.24 -0.24)">
       <defs>
        <path id="STIXGeneral-Regular-35" d="M 2803 4358 
L 2573 3814 
Q 2534 3731 2400 3731 
L 1158 3731 
L 902 3187 
Q 1606 3053 1920 2896 
Q 2234 2739 2502 2368 
Q 2726 2061 2726 1555 
Q 2726 1094 2576 780 
Q 2426 467 2099 224 
Q 1664 -90 1011 -90 
Q 646 -90 422 19 
Q 198 128 198 307 
Q 198 550 486 550 
Q 717 550 960 352 
Q 1210 147 1414 147 
Q 1747 147 2012 480 
Q 2278 813 2278 1229 
Q 2278 1843 1850 2189 
Q 1293 2637 486 2637 
Q 410 2637 410 2688 
L 416 2720 
L 1114 4237 
L 2438 4237 
Q 2547 4237 2608 4269 
Q 2669 4301 2746 4403 
L 2803 4358 
z
" transform="scale(0.015625)"/>
       </defs>
       <use xlink:href="#STIXGeneral-Regular-31"/>
       <use xlink:href="#STIXGeneral-Regular-35" transform="translate(49.999985 0)"/>
       <use xlink:href="#STIXGeneral-Regular-30" transform="translate(99.999969 0)"/>
      </g>
     </g>
    </g>
    <g id="xtick_3">
     <g id="line2d_5">
      <path d="M 354.590766 253.400156 
L 354.590766 31.640156 
" clip-path="url(#p6debe59d9d)" style="fill: none; stroke: #b0b0b0; stroke-width: 0.8; stroke-linecap: square"/>
     </g>
     <g id="line2d_6">
      <g>
       <use xlink:href="#m62b740f934" x="354.590766" y="253.400156" style="stroke: #000000; stroke-width: 0.8"/>
      </g>
     </g>
     <g id="text_3">
      <!-- 200 -->
      <g transform="translate(336.590766 276.791406) scale(0.24 -0.24)">
       <defs>
        <path id="STIXGeneral-Regular-32" d="M 3034 877 
L 2688 0 
L 186 0 
L 186 77 
L 1325 1286 
Q 1773 1754 1965 2144 
Q 2157 2534 2157 2950 
Q 2157 3379 1920 3616 
Q 1683 3853 1267 3853 
Q 922 3853 720 3673 
Q 518 3494 326 3021 
L 192 3053 
Q 301 3648 630 3987 
Q 960 4326 1523 4326 
Q 2054 4326 2380 4006 
Q 2707 3686 2707 3200 
Q 2707 2477 1888 1613 
L 832 486 
L 2330 486 
Q 2541 486 2665 569 
Q 2790 653 2944 915 
L 3034 877 
z
" transform="scale(0.015625)"/>
       </defs>
       <use xlink:href="#STIXGeneral-Regular-32"/>
       <use xlink:href="#STIXGeneral-Regular-30" transform="translate(49.999985 0)"/>
       <use xlink:href="#STIXGeneral-Regular-30" transform="translate(99.999969 0)"/>
      </g>
     </g>
    </g>
    <g id="xtick_4">
     <g id="line2d_7">
      <path d="M 440.466279 253.400156 
L 440.466279 31.640156 
" clip-path="url(#p6debe59d9d)" style="fill: none; stroke: #b0b0b0; stroke-width: 0.8; stroke-linecap: square"/>
     </g>
     <g id="line2d_8">
      <g>
       <use xlink:href="#m62b740f934" x="440.466279" y="253.400156" style="stroke: #000000; stroke-width: 0.8"/>
      </g>
     </g>
     <g id="text_4">
      <!-- 250 -->
      <g transform="translate(422.466279 276.791406) scale(0.24 -0.24)">
       <use xlink:href="#STIXGeneral-Regular-32"/>
       <use xlink:href="#STIXGeneral-Regular-35" transform="translate(49.999985 0)"/>
       <use xlink:href="#STIXGeneral-Regular-30" transform="translate(99.999969 0)"/>
      </g>
     </g>
    </g>
    <g id="text_5">
     <!-- in % of CQL -->
     <g transform="translate(267.487925 301.025469) scale(0.22 -0.22)">
      <defs>
       <path id="STIXGeneral-Regular-69" d="M 1152 4045 
Q 1152 3904 1056 3811 
Q 960 3718 819 3718 
Q 685 3718 592 3811 
Q 499 3904 499 4045 
Q 499 4179 595 4275 
Q 691 4371 826 4371 
Q 966 4371 1059 4275 
Q 1152 4179 1152 4045 
z
M 1619 0 
L 102 0 
L 102 96 
Q 435 115 521 211 
Q 608 307 608 666 
L 608 2118 
Q 608 2342 563 2432 
Q 518 2522 397 2522 
Q 243 2522 128 2490 
L 128 2592 
L 1120 2944 
L 1146 2918 
L 1146 672 
Q 1146 314 1226 218 
Q 1306 122 1619 96 
L 1619 0 
z
" transform="scale(0.015625)"/>
       <path id="STIXGeneral-Regular-6e" d="M 3104 0 
L 1773 0 
L 1779 96 
Q 2016 115 2096 233 
Q 2176 352 2176 672 
L 2176 1946 
Q 2176 2592 1709 2592 
Q 1549 2592 1408 2515 
Q 1267 2438 1050 2227 
L 1050 461 
Q 1050 269 1136 192 
Q 1222 115 1466 96 
L 1466 0 
L 115 0 
L 115 96 
Q 358 115 435 214 
Q 512 314 512 602 
L 512 2157 
Q 512 2394 467 2483 
Q 422 2573 288 2573 
Q 160 2573 102 2547 
L 102 2656 
Q 550 2784 979 2944 
L 1030 2925 
L 1030 2426 
L 1037 2426 
Q 1491 2944 1958 2944 
Q 2323 2944 2518 2688 
Q 2714 2432 2714 1958 
L 2714 544 
Q 2714 288 2790 205 
Q 2867 122 3104 96 
L 3104 0 
z
" transform="scale(0.015625)"/>
       <path id="STIXGeneral-Regular-20" transform="scale(0.015625)"/>
       <path id="STIXGeneral-Regular-25" d="M 4390 1363 
Q 4390 781 4070 329 
Q 3750 -122 3341 -122 
Q 3014 -122 2790 134 
Q 2566 390 2566 762 
Q 2566 1274 2940 1693 
Q 3315 2112 3776 2112 
Q 4070 2112 4230 1917 
Q 4390 1722 4390 1363 
z
M 4243 1376 
Q 4243 1626 4131 1779 
Q 4019 1933 3840 1933 
Q 3654 1933 3526 1786 
Q 3315 1562 3171 1187 
Q 3027 813 3027 486 
Q 3027 301 3129 176 
Q 3232 51 3386 51 
Q 3718 51 3980 457 
Q 4243 864 4243 1376 
z
M 3974 4518 
L 1222 -115 
L 922 -115 
L 3443 4096 
Q 3264 3891 3094 3811 
Q 2925 3731 2669 3731 
Q 2445 3731 2182 3821 
Q 2208 3674 2208 3539 
Q 2208 3206 2067 2873 
Q 1926 2541 1696 2323 
Q 1453 2086 1146 2086 
Q 826 2086 608 2339 
Q 390 2592 390 2963 
Q 390 3507 761 3916 
Q 1133 4326 1626 4326 
Q 1792 4326 2010 4147 
Q 2310 3898 2624 3898 
Q 2918 3898 3084 3994 
Q 3251 4090 3693 4518 
L 3974 4518 
z
M 2054 3642 
Q 2054 3782 2025 3833 
Q 1997 3885 1894 3936 
Q 1747 4006 1613 4154 
Q 1414 4058 1331 3984 
Q 1248 3910 1152 3750 
Q 845 3264 845 2707 
Q 845 2509 944 2384 
Q 1043 2259 1210 2259 
Q 1549 2259 1801 2675 
Q 2054 3091 2054 3642 
z
" transform="scale(0.015625)"/>
       <path id="STIXGeneral-Regular-6f" d="M 3008 1478 
Q 3008 806 2608 371 
Q 2208 -64 1568 -64 
Q 979 -64 582 368 
Q 186 800 186 1459 
Q 186 2125 582 2534 
Q 979 2944 1626 2944 
Q 2221 2944 2614 2537 
Q 3008 2131 3008 1478 
z
M 2432 1306 
Q 2432 2035 2112 2445 
Q 1856 2765 1504 2765 
Q 1171 2765 966 2493 
Q 762 2221 762 1747 
Q 762 928 1101 435 
Q 1318 115 1677 115 
Q 2029 115 2230 432 
Q 2432 749 2432 1306 
z
" transform="scale(0.015625)"/>
       <path id="STIXGeneral-Regular-66" d="M 134 2880 
L 659 2880 
Q 666 3264 710 3478 
Q 755 3693 883 3910 
Q 1152 4371 1786 4371 
Q 2074 4371 2262 4259 
Q 2451 4147 2451 3974 
Q 2451 3866 2374 3789 
Q 2298 3712 2182 3712 
Q 2029 3712 1894 3942 
Q 1741 4192 1555 4192 
Q 1197 4192 1197 3622 
L 1197 2880 
L 1978 2880 
L 1978 2675 
L 1197 2675 
L 1197 666 
Q 1197 307 1299 208 
Q 1402 109 1792 96 
L 1792 0 
L 128 0 
L 128 96 
Q 474 115 566 214 
Q 659 314 659 666 
L 659 2675 
L 134 2675 
L 134 2880 
z
" transform="scale(0.015625)"/>
       <path id="STIXGeneral-Regular-43" d="M 3930 838 
L 4051 723 
Q 3482 -90 2304 -90 
Q 1376 -90 794 480 
Q 179 1082 179 2080 
Q 179 3014 755 3661 
Q 1357 4326 2310 4326 
Q 2720 4326 3072 4230 
Q 3475 4115 3514 4115 
Q 3725 4115 3782 4326 
L 3910 4326 
L 3968 2874 
L 3821 2874 
Q 3718 3334 3488 3584 
Q 3034 4070 2458 4070 
Q 1747 4070 1334 3548 
Q 922 3027 922 2182 
Q 922 1152 1382 653 
Q 1811 192 2522 192 
Q 2944 192 3251 339 
Q 3558 486 3930 838 
z
" transform="scale(0.015625)"/>
       <path id="STIXGeneral-Regular-51" d="M 4486 -1133 
L 4179 -1133 
Q 2586 -1133 1958 -339 
L 1696 -6 
Q 1312 128 1097 265 
Q 883 403 704 640 
Q 218 1286 218 2125 
Q 218 3123 806 3724 
Q 1395 4326 2310 4326 
Q 3232 4326 3817 3721 
Q 4403 3117 4403 2131 
Q 4403 1568 4236 1158 
Q 4070 749 3712 410 
Q 3514 211 3293 115 
Q 3072 19 2726 -45 
Q 3066 -531 3491 -758 
Q 3917 -986 4486 -1018 
L 4486 -1133 
z
M 3674 2163 
Q 3674 2714 3520 3146 
Q 3366 3578 3091 3808 
Q 2746 4096 2291 4096 
Q 1741 4096 1370 3642 
Q 1178 3418 1062 3008 
Q 947 2598 947 2144 
Q 947 1158 1318 640 
Q 1472 416 1750 278 
Q 2029 141 2310 141 
Q 2867 141 3264 602 
Q 3456 819 3565 1248 
Q 3674 1677 3674 2163 
z
" transform="scale(0.015625)"/>
       <path id="STIXGeneral-Regular-4c" d="M 3827 1114 
L 3520 0 
L 77 0 
L 77 122 
Q 429 141 531 256 
Q 634 371 634 736 
L 634 3494 
Q 634 3872 541 3981 
Q 448 4090 77 4115 
L 77 4237 
L 1888 4237 
L 1888 4115 
Q 1498 4090 1392 3984 
Q 1286 3878 1286 3507 
L 1286 538 
Q 1286 358 1398 304 
Q 1510 250 1862 250 
L 2310 250 
Q 3085 250 3392 640 
Q 3520 813 3661 1114 
L 3827 1114 
z
" transform="scale(0.015625)"/>
      </defs>
      <use xlink:href="#STIXGeneral-Regular-69"/>
      <use xlink:href="#STIXGeneral-Regular-6e" transform="translate(27.799988 0)"/>
      <use xlink:href="#STIXGeneral-Regular-20" transform="translate(77.799973 0)"/>
      <use xlink:href="#STIXGeneral-Regular-25" transform="translate(102.799957 0)"/>
      <use xlink:href="#STIXGeneral-Regular-20" transform="translate(177.499939 0)"/>
      <use xlink:href="#STIXGeneral-Regular-6f" transform="translate(202.499924 0)"/>
      <use xlink:href="#STIXGeneral-Regular-66" transform="translate(252.499908 0)"/>
      <use xlink:href="#STIXGeneral-Regular-20" transform="translate(285.799896 0)"/>
      <use xlink:href="#STIXGeneral-Regular-43" transform="translate(310.799881 0)"/>
      <use xlink:href="#STIXGeneral-Regular-51" transform="translate(377.499878 0)"/>
      <use xlink:href="#STIXGeneral-Regular-4c" transform="translate(449.69986 0)"/>
     </g>
    </g>
   </g>
   <g id="matplotlib.axis_2">
    <g id="ytick_1">
     <g id="line2d_9">
      <path d="M 148.489535 226.520156 
L 440.466279 226.520156 
" clip-path="url(#p6debe59d9d)" style="fill: none; stroke: #b0b0b0; stroke-width: 0.8; stroke-linecap: square"/>
     </g>
     <g id="line2d_10">
      <defs>
       <path id="m5c66223142" d="M 0 0 
L -3.5 0 
" style="stroke: #000000; stroke-width: 0.8"/>
      </defs>
      <g>
       <use xlink:href="#m5c66223142" x="148.489535" y="226.520156" style="stroke: #000000; stroke-width: 0.8"/>
      </g>
     </g>
     <g id="text_6">
      <!-- CQL -->
      <g transform="translate(105.489535 232.666875) scale(0.18 -0.18)">
       <use xlink:href="#STIXGeneral-Regular-43"/>
       <use xlink:href="#STIXGeneral-Regular-51" transform="translate(66.699997 0)"/>
       <use xlink:href="#STIXGeneral-Regular-4c" transform="translate(138.899979 0)"/>
      </g>
     </g>
    </g>
    <g id="ytick_2">
     <g id="line2d_11">
      <path d="M 148.489535 170.520156 
L 440.466279 170.520156 
" clip-path="url(#p6debe59d9d)" style="fill: none; stroke: #b0b0b0; stroke-width: 0.8; stroke-linecap: square"/>
     </g>
     <g id="line2d_12">
      <g>
       <use xlink:href="#m5c66223142" x="148.489535" y="170.520156" style="stroke: #000000; stroke-width: 0.8"/>
      </g>
     </g>
     <g id="text_7">
      <!-- CQL+MINTO -->
      <g transform="translate(34.172972 176.666875) scale(0.18 -0.18)">
       <defs>
        <path id="STIXGeneral-Regular-2b" d="M 4070 1408 
L 2400 1408 
L 2400 -262 
L 1978 -262 
L 1978 1408 
L 307 1408 
L 307 1830 
L 1978 1830 
L 1978 3501 
L 2400 3501 
L 2400 1830 
L 4070 1830 
L 4070 1408 
z
" transform="scale(0.015625)"/>
        <path id="STIXGeneral-Regular-4d" d="M 5530 0 
L 3738 0 
L 3738 122 
Q 4115 147 4214 265 
Q 4314 384 4314 787 
L 4314 3661 
L 2682 0 
L 2592 0 
L 979 3514 
L 979 966 
Q 979 448 1088 294 
Q 1197 141 1574 122 
L 1574 0 
L 77 0 
L 77 122 
Q 358 141 480 205 
Q 602 269 650 432 
Q 698 595 698 966 
L 698 3514 
Q 698 3878 589 3984 
Q 480 4090 90 4115 
L 90 4237 
L 1357 4237 
L 2835 1024 
L 4250 4237 
L 5523 4237 
L 5523 4115 
Q 5178 4109 5072 3993 
Q 4966 3878 4966 3520 
L 4966 717 
Q 4966 378 5072 262 
Q 5178 147 5530 122 
L 5530 0 
z
" transform="scale(0.015625)"/>
        <path id="STIXGeneral-Regular-49" d="M 2016 0 
L 115 0 
L 115 122 
Q 518 134 627 240 
Q 736 346 736 717 
L 736 3526 
Q 736 3898 633 3994 
Q 531 4090 115 4115 
L 115 4237 
L 2016 4237 
L 2016 4115 
Q 1613 4096 1501 3993 
Q 1389 3891 1389 3526 
L 1389 717 
Q 1389 358 1504 246 
Q 1619 134 2016 122 
L 2016 0 
z
" transform="scale(0.015625)"/>
        <path id="STIXGeneral-Regular-4e" d="M 4525 4237 
L 4525 4115 
Q 4198 4083 4102 4000 
Q 4000 3910 3958 3756 
Q 3917 3603 3917 3245 
L 3917 -70 
L 3802 -70 
L 979 3443 
L 979 960 
Q 979 474 1088 323 
Q 1197 173 1574 122 
L 1574 0 
L 77 0 
L 77 122 
Q 474 166 586 310 
Q 698 454 698 960 
L 698 3776 
Q 531 3981 416 4048 
Q 301 4115 77 4115 
L 77 4237 
L 1165 4237 
L 3635 1146 
L 3635 3322 
Q 3635 3808 3514 3949 
Q 3437 4032 3344 4061 
Q 3251 4090 3008 4115 
L 3008 4237 
L 4525 4237 
z
" transform="scale(0.015625)"/>
        <path id="STIXGeneral-Regular-54" d="M 3795 3149 
L 3642 3149 
Q 3539 3674 3353 3821 
Q 3168 3968 2656 3968 
L 2278 3968 
L 2278 710 
Q 2278 346 2387 243 
Q 2496 141 2893 122 
L 2893 0 
L 1024 0 
L 1024 122 
Q 1427 147 1526 256 
Q 1626 365 1626 787 
L 1626 3968 
L 1242 3968 
Q 723 3968 540 3817 
Q 358 3667 262 3149 
L 109 3149 
L 154 4237 
L 3750 4237 
L 3795 3149 
z
" transform="scale(0.015625)"/>
        <path id="STIXGeneral-Regular-4f" d="M 4403 2118 
Q 4403 1133 3820 521 
Q 3238 -90 2310 -90 
Q 1376 -90 797 524 
Q 218 1139 218 2138 
Q 218 3110 797 3718 
Q 1376 4326 2310 4326 
Q 3245 4326 3824 3702 
Q 4403 3078 4403 2118 
z
M 3674 2157 
Q 3674 2701 3520 3133 
Q 3366 3565 3091 3795 
Q 2733 4096 2304 4096 
Q 1760 4096 1389 3667 
Q 1184 3437 1065 3011 
Q 947 2586 947 2125 
Q 947 960 1523 429 
Q 1837 141 2317 141 
Q 2816 141 3142 448 
Q 3674 960 3674 2157 
z
" transform="scale(0.015625)"/>
       </defs>
       <use xlink:href="#STIXGeneral-Regular-43"/>
       <use xlink:href="#STIXGeneral-Regular-51" transform="translate(66.699997 0)"/>
       <use xlink:href="#STIXGeneral-Regular-4c" transform="translate(138.899979 0)"/>
       <use xlink:href="#STIXGeneral-Regular-2b" transform="translate(199.999969 0)"/>
       <use xlink:href="#STIXGeneral-Regular-4d" transform="translate(268.499954 0)"/>
       <use xlink:href="#STIXGeneral-Regular-49" transform="translate(357.399948 0)"/>
       <use xlink:href="#STIXGeneral-Regular-4e" transform="translate(390.699936 0)"/>
       <use xlink:href="#STIXGeneral-Regular-54" transform="translate(462.899918 0)"/>
       <use xlink:href="#STIXGeneral-Regular-4f" transform="translate(523.999908 0)"/>
      </g>
     </g>
    </g>
    <g id="ytick_3">
     <g id="line2d_13">
      <path d="M 148.489535 114.520156 
L 440.466279 114.520156 
" clip-path="url(#p6debe59d9d)" style="fill: none; stroke: #b0b0b0; stroke-width: 0.8; stroke-linecap: square"/>
     </g>
     <g id="line2d_14">
      <g>
       <use xlink:href="#m5c66223142" x="148.489535" y="114.520156" style="stroke: #000000; stroke-width: 0.8"/>
      </g>
     </g>
     <g id="text_8">
      <!-- CQL -->
      <g transform="translate(105.489535 120.666875) scale(0.18 -0.18)">
       <use xlink:href="#STIXGeneral-Regular-43"/>
       <use xlink:href="#STIXGeneral-Regular-51" transform="translate(66.699997 0)"/>
       <use xlink:href="#STIXGeneral-Regular-4c" transform="translate(138.899979 0)"/>
      </g>
     </g>
    </g>
    <g id="ytick_4">
     <g id="line2d_15">
      <path d="M 148.489535 58.520156 
L 440.466279 58.520156 
" clip-path="url(#p6debe59d9d)" style="fill: none; stroke: #b0b0b0; stroke-width: 0.8; stroke-linecap: square"/>
     </g>
     <g id="line2d_16">
      <g>
       <use xlink:href="#m5c66223142" x="148.489535" y="58.520156" style="stroke: #000000; stroke-width: 0.8"/>
      </g>
     </g>
     <g id="text_9">
      <!-- CQL+MINTO -->
      <g transform="translate(34.172972 64.666875) scale(0.18 -0.18)">
       <use xlink:href="#STIXGeneral-Regular-43"/>
       <use xlink:href="#STIXGeneral-Regular-51" transform="translate(66.699997 0)"/>
       <use xlink:href="#STIXGeneral-Regular-4c" transform="translate(138.899979 0)"/>
       <use xlink:href="#STIXGeneral-Regular-2b" transform="translate(199.999969 0)"/>
       <use xlink:href="#STIXGeneral-Regular-4d" transform="translate(268.499954 0)"/>
       <use xlink:href="#STIXGeneral-Regular-49" transform="translate(357.399948 0)"/>
       <use xlink:href="#STIXGeneral-Regular-4e" transform="translate(390.699936 0)"/>
       <use xlink:href="#STIXGeneral-Regular-54" transform="translate(462.899918 0)"/>
       <use xlink:href="#STIXGeneral-Regular-4f" transform="translate(523.999908 0)"/>
      </g>
     </g>
    </g>
   </g>
   <g id="patch_3">
    <path d="M 156.340622 243.320156 
L 211.656038 243.320156 
L 211.656038 209.720156 
L 156.340622 209.720156 
z
" clip-path="url(#p6debe59d9d)" style="fill: #7f7f7f; opacity: 0.7"/>
   </g>
   <g id="patch_4">
    <path d="M 364.328682 187.320156 
L 428.465232 187.320156 
L 428.465232 153.720156 
L 364.328682 153.720156 
z
" clip-path="url(#p6debe59d9d)" style="fill: #ce1126; opacity: 0.7"/>
   </g>
   <g id="patch_5">
    <path d="M 173.150163 131.320156 
L 193.10655 131.320156 
L 193.10655 97.720156 
L 173.150163 97.720156 
z
" clip-path="url(#p6debe59d9d)" style="fill: #7f7f7f; opacity: 0.7"/>
   </g>
   <g id="patch_6">
    <path d="M 198.007379 75.320156 
L 224.943976 75.320156 
L 224.943976 41.720156 
L 198.007379 41.720156 
z
" clip-path="url(#p6debe59d9d)" style="fill: #ce1126; opacity: 0.7"/>
   </g>
   <g id="line2d_17">
    <path d="M 31.698837 142.520156 
L 440.466279 142.520156 
" style="fill: none; stroke-dasharray: 11.1,4.8; stroke-dashoffset: 0; stroke: #000000; stroke-width: 3"/>
   </g>
   <g id="patch_7">
    <path d="M 148.489535 253.400156 
L 148.489535 31.640156 
" style="fill: none; stroke: #000000; stroke-width: 0.8; stroke-linejoin: miter; stroke-linecap: square"/>
   </g>
   <g id="patch_8">
    <path d="M 440.466279 253.400156 
L 440.466279 31.640156 
" style="fill: none; stroke: #000000; stroke-width: 0.8; stroke-linejoin: miter; stroke-linecap: square"/>
   </g>
   <g id="patch_9">
    <path d="M 148.489535 253.400156 
L 440.466279 253.400156 
" style="fill: none; stroke: #000000; stroke-width: 0.8; stroke-linejoin: miter; stroke-linecap: square"/>
   </g>
   <g id="patch_10">
    <path d="M 148.489535 31.640156 
L 440.466279 31.640156 
" style="fill: none; stroke: #000000; stroke-width: 0.8; stroke-linejoin: miter; stroke-linecap: square"/>
   </g>
   <g id="LineCollection_1">
    <path d="M 182.83974 243.320156 
L 182.83974 209.720156 
" clip-path="url(#p6debe59d9d)" style="fill: none; stroke: #000000; stroke-width: 3"/>
   </g>
   <g id="LineCollection_2">
    <path d="M 395.440197 187.320156 
L 395.440197 153.720156 
" clip-path="url(#p6debe59d9d)" style="fill: none; stroke: #000000; stroke-width: 3"/>
   </g>
   <g id="LineCollection_3">
    <path d="M 182.83974 131.320156 
L 182.83974 97.720156 
" clip-path="url(#p6debe59d9d)" style="fill: none; stroke: #000000; stroke-width: 3"/>
   </g>
   <g id="LineCollection_4">
    <path d="M 211.625204 75.320156 
L 211.625204 41.720156 
" clip-path="url(#p6debe59d9d)" style="fill: none; stroke: #000000; stroke-width: 3"/>
   </g>
   <g id="text_10">
    <!-- CNN -->
    <g transform="translate(22.225312 221.182188) rotate(-90) scale(0.22 -0.22)">
     <use xlink:href="#STIXGeneral-Regular-43"/>
     <use xlink:href="#STIXGeneral-Regular-4e" transform="translate(66.699997 0)"/>
     <use xlink:href="#STIXGeneral-Regular-4e" transform="translate(138.899979 0)"/>
    </g>
   </g>
   <g id="text_11">
    <!-- IMPALA -->
    <g transform="translate(22.225312 129.254844) rotate(-90) scale(0.22 -0.22)">
     <defs>
      <path id="STIXGeneral-Regular-50" d="M 102 4237 
L 1760 4237 
Q 2669 4237 3149 3834 
Q 3469 3565 3469 3072 
Q 3469 2560 3104 2234 
Q 2835 1990 2553 1916 
Q 2272 1843 1734 1843 
Q 1549 1843 1293 1862 
L 1293 717 
Q 1293 352 1398 246 
Q 1504 141 1894 122 
L 1894 0 
L 102 0 
L 102 122 
Q 474 147 557 256 
Q 640 365 640 781 
L 640 3526 
Q 640 3885 547 3987 
Q 454 4090 102 4115 
L 102 4237 
z
M 1293 3770 
L 1293 2118 
Q 1510 2099 1683 2099 
Q 2202 2099 2486 2352 
Q 2771 2605 2771 3040 
Q 2771 3558 2476 3779 
Q 2182 4000 1517 4000 
Q 1382 4000 1337 3952 
Q 1293 3904 1293 3770 
z
" transform="scale(0.015625)"/>
      <path id="STIXGeneral-Regular-41" d="M 4525 0 
L 2893 0 
L 2893 122 
Q 3149 122 3245 179 
Q 3334 224 3334 333 
Q 3334 499 3213 781 
L 2950 1382 
L 1274 1382 
L 979 653 
Q 922 506 922 384 
Q 922 237 1027 179 
Q 1133 122 1370 122 
L 1370 0 
L 96 0 
L 96 122 
Q 365 147 486 316 
Q 608 486 902 1190 
L 2221 4314 
L 2349 4314 
L 3923 710 
Q 4064 378 4176 262 
Q 4288 147 4525 122 
L 4525 0 
z
M 2861 1645 
L 2118 3405 
L 1382 1645 
L 2861 1645 
z
" transform="scale(0.015625)"/>
     </defs>
     <use xlink:href="#STIXGeneral-Regular-49"/>
     <use xlink:href="#STIXGeneral-Regular-4d" transform="translate(33.299988 0)"/>
     <use xlink:href="#STIXGeneral-Regular-50" transform="translate(122.199982 0)"/>
     <use xlink:href="#STIXGeneral-Regular-41" transform="translate(177.899979 0)"/>
     <use xlink:href="#STIXGeneral-Regular-4c" transform="translate(250.09996 0)"/>
     <use xlink:href="#STIXGeneral-Regular-41" transform="translate(311.199951 0)"/>
    </g>
   </g>
   <g id="text_12">
    <!-- Area Under the Curve -->
    <g transform="translate(157.372505 25.640156) scale(0.27 -0.27)">
     <defs>
      <path id="STIXGeneral-Regular-72" d="M 1024 2931 
L 1024 2342 
Q 1267 2688 1430 2816 
Q 1594 2944 1792 2944 
Q 1958 2944 2051 2854 
Q 2144 2765 2144 2605 
Q 2144 2470 2077 2393 
Q 2010 2317 1894 2317 
Q 1773 2317 1638 2445 
Q 1536 2541 1472 2541 
Q 1338 2541 1181 2355 
Q 1024 2170 1024 2016 
L 1024 576 
Q 1024 301 1133 205 
Q 1242 109 1568 96 
L 1568 0 
L 32 0 
L 32 96 
Q 339 154 412 224 
Q 486 294 486 538 
L 486 2138 
Q 486 2349 438 2435 
Q 390 2522 269 2522 
Q 166 2522 45 2496 
L 45 2598 
Q 448 2726 992 2944 
L 1024 2931 
z
" transform="scale(0.015625)"/>
      <path id="STIXGeneral-Regular-65" d="M 2611 1050 
L 2714 1005 
Q 2330 -64 1376 -64 
Q 813 -64 486 329 
Q 160 723 160 1389 
Q 160 2074 525 2509 
Q 890 2944 1485 2944 
Q 2061 2944 2374 2502 
Q 2560 2246 2592 1773 
L 621 1773 
Q 646 1370 700 1158 
Q 755 947 915 730 
Q 1184 378 1626 378 
Q 1939 378 2153 531 
Q 2368 685 2611 1050 
z
M 634 1978 
L 1939 1978 
Q 1882 2381 1750 2547 
Q 1619 2714 1312 2714 
Q 1043 2714 864 2525 
Q 685 2336 634 1978 
z
" transform="scale(0.015625)"/>
      <path id="STIXGeneral-Regular-61" d="M 2829 422 
L 2829 243 
Q 2586 -64 2253 -64 
Q 1888 -64 1843 403 
L 1837 403 
Q 1427 -64 909 -64 
Q 608 -64 422 112 
Q 237 288 237 602 
Q 237 1050 685 1350 
Q 992 1555 1837 1869 
L 1837 2214 
Q 1837 2502 1699 2646 
Q 1562 2790 1338 2790 
Q 1146 2790 1018 2697 
Q 890 2605 890 2477 
Q 890 2419 909 2348 
Q 928 2278 928 2208 
Q 928 2112 841 2029 
Q 755 1946 634 1946 
Q 525 1946 441 2029 
Q 358 2112 358 2240 
Q 358 2547 685 2752 
Q 986 2944 1421 2944 
Q 1939 2944 2176 2656 
Q 2291 2522 2323 2384 
Q 2355 2246 2355 1946 
L 2355 723 
Q 2355 301 2554 301 
Q 2682 301 2829 422 
z
M 1837 813 
L 1837 1715 
Q 1248 1510 1018 1293 
Q 800 1094 800 800 
Q 800 557 921 432 
Q 1043 307 1242 307 
Q 1453 307 1613 410 
Q 1747 506 1792 589 
Q 1837 672 1837 813 
z
" transform="scale(0.015625)"/>
      <path id="STIXGeneral-Regular-55" d="M 4512 4237 
L 4512 4115 
Q 4122 4077 4016 3926 
Q 3910 3776 3910 3302 
L 3910 1670 
Q 3910 1178 3840 896 
Q 3770 614 3565 378 
Q 3155 -90 2272 -90 
Q 1574 -90 1184 205 
Q 666 589 666 1594 
L 666 3578 
Q 666 3898 566 3994 
Q 467 4090 90 4115 
L 90 4237 
L 1901 4237 
L 1901 4115 
Q 1517 4083 1417 3977 
Q 1318 3872 1318 3514 
L 1318 1517 
Q 1318 1101 1369 877 
Q 1421 653 1600 480 
Q 1901 192 2419 192 
Q 3066 192 3392 570 
Q 3539 749 3584 963 
Q 3629 1178 3629 1600 
L 3629 3283 
Q 3629 3782 3520 3936 
Q 3411 4090 3027 4115 
L 3027 4237 
L 4512 4237 
z
" transform="scale(0.015625)"/>
      <path id="STIXGeneral-Regular-64" d="M 3142 269 
L 2202 -64 
L 2176 -45 
L 2176 365 
Q 1869 -64 1357 -64 
Q 826 -64 499 317 
Q 173 698 173 1312 
Q 173 1990 563 2467 
Q 954 2944 1504 2944 
Q 1850 2944 2176 2669 
L 2176 3667 
Q 2176 3866 2118 3930 
Q 2061 3994 1882 3994 
Q 1792 3994 1741 3987 
L 1741 4090 
Q 2323 4243 2682 4371 
L 2714 4358 
L 2714 730 
Q 2714 506 2768 435 
Q 2822 365 2995 365 
Q 3034 365 3142 371 
L 3142 269 
z
M 2176 653 
L 2176 2125 
Q 2176 2381 1981 2573 
Q 1786 2765 1523 2765 
Q 1158 2765 940 2438 
Q 723 2112 723 1568 
Q 723 979 963 624 
Q 1203 269 1606 269 
Q 1907 269 2080 474 
Q 2176 582 2176 653 
z
" transform="scale(0.015625)"/>
      <path id="STIXGeneral-Regular-74" d="M 1702 493 
L 1786 422 
Q 1478 -64 1011 -64 
Q 448 -64 448 749 
L 448 2675 
L 109 2675 
Q 83 2694 83 2720 
Q 83 2771 192 2842 
Q 435 2982 813 3526 
Q 826 3546 874 3606 
Q 922 3667 941 3706 
Q 986 3706 986 3622 
L 986 2880 
L 1632 2880 
L 1632 2675 
L 986 2675 
L 986 845 
Q 986 538 1062 403 
Q 1139 269 1318 269 
Q 1510 269 1702 493 
z
" transform="scale(0.015625)"/>
      <path id="STIXGeneral-Regular-68" d="M 3117 0 
L 1760 0 
L 1760 96 
Q 2042 128 2118 224 
Q 2195 320 2195 653 
L 2195 1920 
Q 2195 2598 1722 2598 
Q 1530 2598 1370 2508 
Q 1210 2419 1005 2195 
L 1005 653 
Q 1005 320 1081 224 
Q 1158 128 1440 96 
L 1440 0 
L 58 0 
L 58 96 
Q 333 134 400 224 
Q 467 314 467 653 
L 467 3667 
Q 467 3872 406 3933 
Q 346 3994 141 3994 
Q 83 3994 64 3987 
L 64 4090 
L 237 4141 
Q 730 4288 973 4371 
L 1005 4352 
L 1005 2406 
Q 1229 2694 1446 2819 
Q 1664 2944 1946 2944 
Q 2733 2944 2733 1926 
L 2733 653 
Q 2733 320 2793 233 
Q 2854 147 3117 96 
L 3117 0 
z
" transform="scale(0.015625)"/>
      <path id="STIXGeneral-Regular-75" d="M 3072 320 
L 3072 230 
Q 2573 96 2195 -58 
L 2163 -38 
L 2163 486 
L 2150 486 
Q 1747 -64 1235 -64 
Q 870 -64 662 160 
Q 454 384 454 755 
L 454 2362 
Q 454 2598 371 2688 
Q 288 2778 58 2790 
L 58 2880 
L 992 2880 
L 992 813 
Q 992 595 1123 451 
Q 1254 307 1446 307 
Q 1760 307 1984 506 
Q 2067 582 2099 649 
Q 2131 717 2131 877 
L 2131 2355 
Q 2131 2605 2041 2678 
Q 1952 2752 1658 2771 
L 1658 2880 
L 2669 2880 
L 2669 685 
Q 2669 461 2742 390 
Q 2816 320 3034 320 
L 3072 320 
z
" transform="scale(0.015625)"/>
      <path id="STIXGeneral-Regular-76" d="M 3053 2880 
L 3053 2784 
Q 2906 2771 2835 2688 
Q 2765 2605 2637 2285 
L 1818 230 
Q 1690 -90 1638 -90 
Q 1587 -90 1523 77 
Q 1510 96 1497 141 
Q 1485 186 1472 211 
L 704 2048 
Q 499 2534 403 2652 
Q 307 2771 122 2784 
L 122 2880 
L 1376 2880 
L 1376 2784 
Q 1210 2771 1146 2732 
Q 1082 2694 1082 2611 
Q 1082 2509 1139 2368 
L 1792 730 
L 2426 2387 
Q 2464 2483 2464 2579 
Q 2464 2758 2163 2784 
L 2163 2880 
L 3053 2880 
z
" transform="scale(0.015625)"/>
     </defs>
     <use xlink:href="#STIXGeneral-Regular-41"/>
     <use xlink:href="#STIXGeneral-Regular-72" transform="translate(72.199982 0)"/>
     <use xlink:href="#STIXGeneral-Regular-65" transform="translate(105.499969 0)"/>
     <use xlink:href="#STIXGeneral-Regular-61" transform="translate(149.899963 0)"/>
     <use xlink:href="#STIXGeneral-Regular-20" transform="translate(194.299957 0)"/>
     <use xlink:href="#STIXGeneral-Regular-55" transform="translate(219.299942 0)"/>
     <use xlink:href="#STIXGeneral-Regular-6e" transform="translate(291.499924 0)"/>
     <use xlink:href="#STIXGeneral-Regular-64" transform="translate(341.499908 0)"/>
     <use xlink:href="#STIXGeneral-Regular-65" transform="translate(391.499893 0)"/>
     <use xlink:href="#STIXGeneral-Regular-72" transform="translate(435.899887 0)"/>
     <use xlink:href="#STIXGeneral-Regular-20" transform="translate(469.199875 0)"/>
     <use xlink:href="#STIXGeneral-Regular-74" transform="translate(494.19986 0)"/>
     <use xlink:href="#STIXGeneral-Regular-68" transform="translate(521.999847 0)"/>
     <use xlink:href="#STIXGeneral-Regular-65" transform="translate(571.999832 0)"/>
     <use xlink:href="#STIXGeneral-Regular-20" transform="translate(616.399826 0)"/>
     <use xlink:href="#STIXGeneral-Regular-43" transform="translate(641.399811 0)"/>
     <use xlink:href="#STIXGeneral-Regular-75" transform="translate(708.099808 0)"/>
     <use xlink:href="#STIXGeneral-Regular-72" transform="translate(758.099792 0)"/>
     <use xlink:href="#STIXGeneral-Regular-76" transform="translate(791.39978 0)"/>
     <use xlink:href="#STIXGeneral-Regular-65" transform="translate(841.399765 0)"/>
    </g>
   </g>
  </g>
  <g id="axes_2">
   <g id="patch_11">
    <path d="M 504.701163 253.400156 
L 796.677907 253.400156 
L 796.677907 31.640156 
L 504.701163 31.640156 
z
" style="fill: #ffffff"/>
   </g>
   <g id="FillBetweenPolyCollection_1">
    <defs>
     <path id="md7920e7768" d="M 504.701163 -82.695967 
L 504.701163 -73.99968 
L 510.540698 -77.977628 
L 516.380233 -82.104091 
L 522.219767 -85.711977 
L 528.059302 -89.254932 
L 533.898837 -92.682226 
L 539.738372 -100.169035 
L 545.577907 -109.392939 
L 551.417442 -115.382549 
L 557.256977 -122.33724 
L 563.096512 -125.199754 
L 568.936047 -126.245032 
L 574.775581 -121.989485 
L 580.615116 -119.594859 
L 586.454651 -121.568079 
L 592.294186 -121.627268 
L 598.133721 -119.328526 
L 603.973256 -116.863073 
L 609.812791 -116.939912 
L 615.652326 -119.170813 
L 621.49186 -120.582322 
L 627.331395 -121.505957 
L 633.17093 -123.826465 
L 639.010465 -126.568276 
L 644.85 -124.285814 
L 650.689535 -124.795589 
L 656.52907 -127.165387 
L 662.368605 -127.187124 
L 668.20814 -127.915547 
L 674.047674 -128.63896 
L 679.887209 -126.217984 
L 685.726744 -126.615197 
L 691.566279 -125.691102 
L 697.405814 -123.934407 
L 703.245349 -123.351445 
L 709.084884 -124.840805 
L 714.924419 -123.46169 
L 720.763953 -123.955283 
L 726.603488 -124.242671 
L 732.443023 -124.095225 
L 738.282558 -125.369015 
L 744.122093 -127.260819 
L 749.961628 -128.266185 
L 755.801163 -128.173407 
L 761.640698 -129.495077 
L 767.480233 -128.446912 
L 773.319767 -127.361201 
L 779.159302 -127.781278 
L 784.998837 -127.089734 
L 790.838372 -125.620971 
L 796.677907 -125.04854 
L 796.677907 -149.87121 
L 796.677907 -149.87121 
L 790.838372 -149.077642 
L 784.998837 -150.105825 
L 779.159302 -151.143063 
L 773.319767 -151.90448 
L 767.480233 -151.395854 
L 761.640698 -154.702124 
L 755.801163 -155.108805 
L 749.961628 -155.113935 
L 744.122093 -153.730851 
L 738.282558 -151.575171 
L 732.443023 -151.632704 
L 726.603488 -152.099038 
L 720.763953 -151.247764 
L 714.924419 -150.00718 
L 709.084884 -151.944957 
L 703.245349 -148.506365 
L 697.405814 -146.688511 
L 691.566279 -148.29538 
L 685.726744 -150.607112 
L 679.887209 -152.095523 
L 674.047674 -150.597047 
L 668.20814 -148.933396 
L 662.368605 -149.729173 
L 656.52907 -148.749985 
L 650.689535 -146.945073 
L 644.85 -145.147818 
L 639.010465 -144.710703 
L 633.17093 -140.451608 
L 627.331395 -137.336585 
L 621.49186 -135.226968 
L 615.652326 -134.006229 
L 609.812791 -134.44836 
L 603.973256 -133.76458 
L 598.133721 -139.559111 
L 592.294186 -151.462895 
L 586.454651 -151.070467 
L 580.615116 -149.29129 
L 574.775581 -149.44406 
L 568.936047 -145.756576 
L 563.096512 -141.622235 
L 557.256977 -136.647624 
L 551.417442 -129.63057 
L 545.577907 -122.735522 
L 539.738372 -112.653073 
L 533.898837 -105.391394 
L 528.059302 -103.073448 
L 522.219767 -99.620564 
L 516.380233 -95.27267 
L 510.540698 -88.68549 
L 504.701163 -82.695967 
z
" style="stroke: #7f7f7f; stroke-opacity: 0.3"/>
    </defs>
    <g clip-path="url(#pcb309c8282)">
     <use xlink:href="#md7920e7768" x="0" y="313.220156" style="fill: #7f7f7f; fill-opacity: 0.3; stroke: #7f7f7f; stroke-opacity: 0.3"/>
    </g>
   </g>
   <g id="FillBetweenPolyCollection_2">
    <defs>
     <path id="ma194aaffc3" d="M 504.701163 -84.672789 
L 504.701163 -76.488824 
L 510.540698 -82.02075 
L 516.380233 -88.90128 
L 522.219767 -95.077828 
L 528.059302 -103.153447 
L 533.898837 -108.678959 
L 539.738372 -121.059948 
L 545.577907 -137.137212 
L 551.417442 -148.5168 
L 557.256977 -156.773821 
L 563.096512 -164.836917 
L 568.936047 -173.132668 
L 574.775581 -178.935361 
L 580.615116 -183.432035 
L 586.454651 -187.171289 
L 592.294186 -190.526419 
L 598.133721 -191.294059 
L 603.973256 -192.965636 
L 609.812791 -193.317907 
L 615.652326 -198.951349 
L 621.49186 -199.936952 
L 627.331395 -202.038097 
L 633.17093 -205.773615 
L 639.010465 -214.148915 
L 644.85 -214.022442 
L 650.689535 -215.274604 
L 656.52907 -213.863501 
L 662.368605 -208.608139 
L 668.20814 -207.567565 
L 674.047674 -211.222023 
L 679.887209 -214.663828 
L 685.726744 -219.008875 
L 691.566279 -222.021156 
L 697.405814 -221.312129 
L 703.245349 -222.386856 
L 709.084884 -223.803723 
L 714.924419 -225.382992 
L 720.763953 -227.015034 
L 726.603488 -228.311991 
L 732.443023 -229.395149 
L 738.282558 -228.900807 
L 744.122093 -227.829808 
L 749.961628 -228.527153 
L 755.801163 -229.005957 
L 761.640698 -228.805387 
L 767.480233 -228.331876 
L 773.319767 -228.882826 
L 779.159302 -229.697598 
L 784.998837 -229.589036 
L 790.838372 -229.351631 
L 796.677907 -225.600471 
L 796.677907 -263.435841 
L 796.677907 -263.435841 
L 790.838372 -263.75336 
L 784.998837 -264.901674 
L 779.159302 -266.006532 
L 773.319767 -266.243269 
L 767.480233 -267.529417 
L 761.640698 -270.946256 
L 755.801163 -271.320084 
L 749.961628 -271.695223 
L 744.122093 -270.588359 
L 738.282558 -267.52383 
L 732.443023 -266.20956 
L 726.603488 -262.985938 
L 720.763953 -262.50019 
L 714.924419 -258.779631 
L 709.084884 -253.419207 
L 703.245349 -249.261161 
L 697.405814 -246.663194 
L 691.566279 -248.25571 
L 685.726744 -245.89949 
L 679.887209 -248.514099 
L 674.047674 -245.699237 
L 668.20814 -241.309848 
L 662.368605 -241.581324 
L 656.52907 -242.039689 
L 650.689535 -241.395004 
L 644.85 -239.320031 
L 639.010465 -237.041628 
L 633.17093 -232.950839 
L 627.331395 -228.021321 
L 621.49186 -225.101077 
L 615.652326 -223.138089 
L 609.812791 -222.826908 
L 603.973256 -219.968517 
L 598.133721 -216.945721 
L 592.294186 -216.202456 
L 586.454651 -212.360882 
L 580.615116 -208.073423 
L 574.775581 -203.218155 
L 568.936047 -197.769401 
L 563.096512 -192.752313 
L 557.256977 -183.809313 
L 551.417442 -169.34999 
L 545.577907 -157.298114 
L 539.738372 -141.572393 
L 533.898837 -126.70195 
L 528.059302 -119.01427 
L 522.219767 -109.715601 
L 516.380233 -101.29886 
L 510.540698 -92.665181 
L 504.701163 -84.672789 
z
" style="stroke: #ce1126; stroke-opacity: 0.3"/>
    </defs>
    <g clip-path="url(#pcb309c8282)">
     <use xlink:href="#ma194aaffc3" x="0" y="313.220156" style="fill: #ce1126; fill-opacity: 0.3; stroke: #ce1126; stroke-opacity: 0.3"/>
    </g>
   </g>
   <g id="matplotlib.axis_3">
    <g id="xtick_5">
     <g id="line2d_18">
      <path d="M 504.701163 253.400156 
L 504.701163 31.640156 
" clip-path="url(#pcb309c8282)" style="fill: none; stroke: #b0b0b0; stroke-width: 0.8; stroke-linecap: square"/>
     </g>
     <g id="line2d_19">
      <g>
       <use xlink:href="#m62b740f934" x="504.701163" y="253.400156" style="stroke: #000000; stroke-width: 0.8"/>
      </g>
     </g>
     <g id="text_13">
      <!-- 0 -->
      <g transform="translate(498.701163 276.791406) scale(0.24 -0.24)">
       <use xlink:href="#STIXGeneral-Regular-30"/>
      </g>
     </g>
    </g>
    <g id="xtick_6">
     <g id="line2d_20">
      <path d="M 563.096512 253.400156 
L 563.096512 31.640156 
" clip-path="url(#pcb309c8282)" style="fill: none; stroke: #b0b0b0; stroke-width: 0.8; stroke-linecap: square"/>
     </g>
     <g id="line2d_21">
      <g>
       <use xlink:href="#m62b740f934" x="563.096512" y="253.400156" style="stroke: #000000; stroke-width: 0.8"/>
      </g>
     </g>
     <g id="text_14">
      <!-- 10 -->
      <g transform="translate(551.096512 276.791406) scale(0.24 -0.24)">
       <use xlink:href="#STIXGeneral-Regular-31"/>
       <use xlink:href="#STIXGeneral-Regular-30" transform="translate(49.999985 0)"/>
      </g>
     </g>
    </g>
    <g id="xtick_7">
     <g id="line2d_22">
      <path d="M 621.49186 253.400156 
L 621.49186 31.640156 
" clip-path="url(#pcb309c8282)" style="fill: none; stroke: #b0b0b0; stroke-width: 0.8; stroke-linecap: square"/>
     </g>
     <g id="line2d_23">
      <g>
       <use xlink:href="#m62b740f934" x="621.49186" y="253.400156" style="stroke: #000000; stroke-width: 0.8"/>
      </g>
     </g>
     <g id="text_15">
      <!-- 20 -->
      <g transform="translate(609.49186 276.791406) scale(0.24 -0.24)">
       <use xlink:href="#STIXGeneral-Regular-32"/>
       <use xlink:href="#STIXGeneral-Regular-30" transform="translate(49.999985 0)"/>
      </g>
     </g>
    </g>
    <g id="xtick_8">
     <g id="line2d_24">
      <path d="M 679.887209 253.400156 
L 679.887209 31.640156 
" clip-path="url(#pcb309c8282)" style="fill: none; stroke: #b0b0b0; stroke-width: 0.8; stroke-linecap: square"/>
     </g>
     <g id="line2d_25">
      <g>
       <use xlink:href="#m62b740f934" x="679.887209" y="253.400156" style="stroke: #000000; stroke-width: 0.8"/>
      </g>
     </g>
     <g id="text_16">
      <!-- 30 -->
      <g transform="translate(667.887209 276.791406) scale(0.24 -0.24)">
       <defs>
        <path id="STIXGeneral-Regular-33" d="M 390 3264 
L 288 3290 
Q 435 3770 748 4048 
Q 1062 4326 1542 4326 
Q 1990 4326 2265 4083 
Q 2541 3840 2541 3450 
Q 2541 2925 1946 2566 
Q 2298 2413 2477 2227 
Q 2758 1914 2758 1402 
Q 2758 890 2464 506 
Q 2246 211 1840 60 
Q 1434 -90 979 -90 
Q 262 -90 262 275 
Q 262 378 339 442 
Q 416 506 525 506 
Q 685 506 915 339 
Q 1197 141 1466 141 
Q 1818 141 2058 425 
Q 2298 710 2298 1120 
Q 2298 1856 1632 2048 
Q 1434 2112 979 2112 
L 979 2202 
Q 1338 2323 1517 2432 
Q 2035 2726 2035 3290 
Q 2035 3610 1852 3776 
Q 1670 3942 1344 3942 
Q 768 3942 390 3264 
z
" transform="scale(0.015625)"/>
       </defs>
       <use xlink:href="#STIXGeneral-Regular-33"/>
       <use xlink:href="#STIXGeneral-Regular-30" transform="translate(49.999985 0)"/>
      </g>
     </g>
    </g>
    <g id="xtick_9">
     <g id="line2d_26">
      <path d="M 738.282558 253.400156 
L 738.282558 31.640156 
" clip-path="url(#pcb309c8282)" style="fill: none; stroke: #b0b0b0; stroke-width: 0.8; stroke-linecap: square"/>
     </g>
     <g id="line2d_27">
      <g>
       <use xlink:href="#m62b740f934" x="738.282558" y="253.400156" style="stroke: #000000; stroke-width: 0.8"/>
      </g>
     </g>
     <g id="text_17">
      <!-- 40 -->
      <g transform="translate(726.282558 276.791406) scale(0.24 -0.24)">
       <defs>
        <path id="STIXGeneral-Regular-34" d="M 3027 1069 
L 2368 1069 
L 2368 0 
L 1869 0 
L 1869 1069 
L 77 1069 
L 77 1478 
L 2086 4326 
L 2368 4326 
L 2368 1478 
L 3027 1478 
L 3027 1069 
z
M 1869 1478 
L 1869 3674 
L 333 1478 
L 1869 1478 
z
" transform="scale(0.015625)"/>
       </defs>
       <use xlink:href="#STIXGeneral-Regular-34"/>
       <use xlink:href="#STIXGeneral-Regular-30" transform="translate(49.999985 0)"/>
      </g>
     </g>
    </g>
    <g id="xtick_10">
     <g id="line2d_28">
      <path d="M 796.677907 253.400156 
L 796.677907 31.640156 
" clip-path="url(#pcb309c8282)" style="fill: none; stroke: #b0b0b0; stroke-width: 0.8; stroke-linecap: square"/>
     </g>
     <g id="line2d_29">
      <g>
       <use xlink:href="#m62b740f934" x="796.677907" y="253.400156" style="stroke: #000000; stroke-width: 0.8"/>
      </g>
     </g>
     <g id="text_18">
      <!-- 50 -->
      <g transform="translate(784.677907 276.791406) scale(0.24 -0.24)">
       <use xlink:href="#STIXGeneral-Regular-35"/>
       <use xlink:href="#STIXGeneral-Regular-30" transform="translate(49.999985 0)"/>
      </g>
     </g>
    </g>
    <g id="text_19">
     <!-- Gradient Steps ($\times$ 62.5K) -->
     <g transform="translate(684.477907 301.180156) scale(0.22 -0.22)">
      <defs>
       <path id="STIXGeneral-Regular-47" d="M 4538 2266 
L 4538 2150 
Q 4256 2125 4173 2035 
Q 4090 1946 4090 1638 
L 4090 358 
Q 3539 -90 2464 -90 
Q 1965 -90 1507 89 
Q 1050 269 736 595 
Q 205 1152 205 2093 
Q 205 3155 890 3776 
Q 1491 4326 2419 4326 
Q 2829 4326 3270 4179 
Q 3443 4115 3552 4115 
Q 3654 4115 3731 4176 
Q 3808 4237 3840 4326 
L 3981 4326 
L 4032 2976 
L 3885 2976 
Q 3680 3475 3430 3718 
Q 3059 4070 2496 4070 
Q 1856 4070 1427 3629 
Q 934 3136 934 2074 
Q 934 1190 1395 678 
Q 1856 166 2618 166 
Q 2982 166 3225 281 
Q 3469 397 3469 557 
L 3469 1562 
Q 3469 1933 3376 2025 
Q 3283 2118 2899 2150 
L 2899 2266 
L 4538 2266 
z
" transform="scale(0.015625)"/>
       <path id="STIXGeneral-Regular-53" d="M 3002 2963 
L 2842 2963 
Q 2733 3360 2579 3565 
Q 2189 4064 1651 4064 
Q 1357 4064 1181 3894 
Q 1005 3725 1005 3456 
Q 1005 3328 1069 3206 
Q 1133 3085 1206 2998 
Q 1280 2912 1465 2784 
Q 1651 2656 1766 2589 
Q 1882 2522 2150 2362 
Q 2669 2061 2905 1763 
Q 3142 1466 3142 1107 
Q 3142 576 2771 243 
Q 2400 -90 1837 -90 
Q 1421 -90 1082 58 
Q 915 128 781 128 
Q 704 128 653 70 
Q 602 13 602 -83 
L 461 -83 
L 275 1274 
L 416 1274 
Q 845 141 1734 141 
Q 2074 141 2285 342 
Q 2496 544 2496 858 
Q 2496 1158 2310 1363 
Q 2003 1696 1235 2106 
Q 454 2522 454 3206 
Q 454 3718 768 4022 
Q 1082 4326 1568 4326 
Q 1907 4326 2240 4186 
Q 2413 4109 2522 4109 
Q 2688 4109 2726 4326 
L 2861 4326 
L 3002 2963 
z
" transform="scale(0.015625)"/>
       <path id="STIXGeneral-Regular-70" d="M 1018 2931 
L 1018 2438 
Q 1421 2944 1939 2944 
Q 2406 2944 2707 2560 
Q 3008 2176 3008 1581 
Q 3008 883 2621 409 
Q 2234 -64 1664 -64 
Q 1466 -64 1328 -6 
Q 1190 51 1018 211 
L 1018 -794 
Q 1018 -1094 1120 -1180 
Q 1222 -1267 1581 -1274 
L 1581 -1389 
L 32 -1389 
L 32 -1280 
Q 314 -1254 397 -1171 
Q 480 -1088 480 -838 
L 480 2157 
Q 480 2381 429 2451 
Q 378 2522 218 2522 
Q 115 2522 58 2515 
L 58 2618 
Q 506 2752 979 2944 
L 1018 2931 
z
M 1018 2138 
L 1018 563 
Q 1018 422 1238 281 
Q 1459 141 1683 141 
Q 2029 141 2243 467 
Q 2458 794 2458 1325 
Q 2458 1888 2243 2224 
Q 2029 2560 1670 2560 
Q 1446 2560 1232 2419 
Q 1018 2278 1018 2138 
z
" transform="scale(0.015625)"/>
       <path id="STIXGeneral-Regular-73" d="M 998 1926 
L 1664 1523 
Q 1984 1331 2105 1164 
Q 2227 998 2227 736 
Q 2227 416 1961 176 
Q 1696 -64 1331 -64 
Q 1030 -64 864 -6 
Q 691 51 570 51 
Q 461 51 416 -26 
L 333 -26 
L 333 979 
L 435 979 
Q 538 512 730 294 
Q 922 77 1248 77 
Q 1485 77 1632 211 
Q 1779 346 1779 550 
Q 1779 845 1440 1030 
L 1094 1222 
Q 326 1651 326 2150 
Q 326 2522 566 2730 
Q 806 2938 1210 2938 
Q 1491 2938 1638 2867 
Q 1754 2816 1818 2816 
Q 1862 2816 1920 2880 
L 1990 2880 
L 2022 2010 
L 1926 2010 
Q 1818 2445 1654 2621 
Q 1491 2797 1203 2797 
Q 986 2797 854 2688 
Q 723 2579 723 2362 
Q 723 2253 796 2128 
Q 870 2003 998 1926 
z
" transform="scale(0.015625)"/>
       <path id="STIXGeneral-Regular-28" d="M 1946 -1030 
L 1869 -1133 
Q 1126 -710 716 32 
Q 307 774 307 1613 
Q 307 3386 1888 4326 
L 1946 4224 
Q 1293 3667 1075 3126 
Q 858 2586 858 1632 
Q 858 685 1082 96 
Q 1306 -493 1946 -1030 
z
" transform="scale(0.015625)"/>
       <path id="STIXGeneral-Regular-d7" d="M 3821 141 
L 3526 -160 
L 2048 1312 
L 570 -160 
L 275 134 
L 1747 1613 
L 275 3091 
L 576 3386 
L 2048 1914 
L 3526 3386 
L 3821 3098 
L 2349 1613 
L 3821 141 
z
" transform="scale(0.015625)"/>
       <path id="STIXGeneral-Regular-36" d="M 2854 4378 
L 2867 4275 
Q 2112 4154 1606 3664 
Q 1101 3174 973 2451 
Q 1344 2739 1786 2739 
Q 2349 2739 2672 2380 
Q 2995 2022 2995 1402 
Q 2995 774 2669 378 
Q 2291 -90 1651 -90 
Q 870 -90 518 557 
Q 218 1107 218 1786 
Q 218 2835 915 3552 
Q 1312 3962 1731 4131 
Q 2150 4301 2854 4378 
z
M 2419 1203 
Q 2419 2445 1555 2445 
Q 1235 2445 1024 2275 
Q 813 2106 813 1702 
Q 813 954 1046 522 
Q 1280 90 1722 90 
Q 2061 90 2240 394 
Q 2419 698 2419 1203 
z
" transform="scale(0.015625)"/>
       <path id="STIXGeneral-Regular-2e" d="M 1158 275 
Q 1158 134 1052 32 
Q 947 -70 800 -70 
Q 653 -70 550 32 
Q 448 134 448 281 
Q 448 429 553 534 
Q 659 640 806 640 
Q 947 640 1052 531 
Q 1158 422 1158 275 
z
" transform="scale(0.015625)"/>
       <path id="STIXGeneral-Regular-4b" d="M 4627 0 
L 2688 0 
L 2688 122 
L 2861 128 
Q 3130 134 3130 282 
Q 3130 397 2922 643 
Q 2714 890 2253 1370 
L 1613 2029 
L 1446 1894 
L 1446 710 
Q 1446 352 1548 253 
Q 1651 154 2016 122 
L 2016 0 
L 211 0 
L 211 122 
Q 589 141 691 262 
Q 794 384 794 800 
L 794 3514 
Q 794 3872 691 3981 
Q 589 4090 218 4115 
L 218 4237 
L 2022 4237 
L 2022 4115 
Q 1632 4090 1539 3987 
Q 1446 3885 1446 3507 
L 1446 2227 
L 2586 3277 
Q 2861 3533 2973 3667 
Q 3085 3802 3085 3910 
Q 3085 4013 3030 4057 
Q 2976 4102 2822 4109 
L 2662 4115 
L 2662 4237 
L 4320 4237 
L 4320 4115 
Q 3994 4090 3824 4003 
Q 3654 3917 3322 3597 
L 2131 2458 
L 3629 819 
Q 4026 384 4214 253 
Q 4403 122 4627 122 
L 4627 0 
z
" transform="scale(0.015625)"/>
       <path id="STIXGeneral-Regular-29" d="M 186 4224 
L 262 4326 
Q 992 3891 1408 3148 
Q 1824 2406 1824 1581 
Q 1824 -166 243 -1133 
L 186 -1030 
Q 845 -486 1059 54 
Q 1274 595 1274 1562 
Q 1274 2534 1059 3120 
Q 845 3706 186 4224 
z
" transform="scale(0.015625)"/>
      </defs>
      <use xlink:href="#STIXGeneral-Regular-47" transform="translate(0 0.203125)"/>
      <use xlink:href="#STIXGeneral-Regular-72" transform="translate(72.199982 0.203125)"/>
      <use xlink:href="#STIXGeneral-Regular-61" transform="translate(105.499969 0.203125)"/>
      <use xlink:href="#STIXGeneral-Regular-64" transform="translate(149.899963 0.203125)"/>
      <use xlink:href="#STIXGeneral-Regular-69" transform="translate(199.899948 0.203125)"/>
      <use xlink:href="#STIXGeneral-Regular-65" transform="translate(227.699936 0.203125)"/>
      <use xlink:href="#STIXGeneral-Regular-6e" transform="translate(272.09993 0.203125)"/>
      <use xlink:href="#STIXGeneral-Regular-74" transform="translate(322.099915 0.203125)"/>
      <use xlink:href="#STIXGeneral-Regular-20" transform="translate(349.899902 0.203125)"/>
      <use xlink:href="#STIXGeneral-Regular-53" transform="translate(374.899887 0.203125)"/>
      <use xlink:href="#STIXGeneral-Regular-74" transform="translate(430.499878 0.203125)"/>
      <use xlink:href="#STIXGeneral-Regular-65" transform="translate(458.299866 0.203125)"/>
      <use xlink:href="#STIXGeneral-Regular-70" transform="translate(502.69986 0.203125)"/>
      <use xlink:href="#STIXGeneral-Regular-73" transform="translate(552.699844 0.203125)"/>
      <use xlink:href="#STIXGeneral-Regular-20" transform="translate(591.599838 0.203125)"/>
      <use xlink:href="#STIXGeneral-Regular-28" transform="translate(616.599823 0.203125)"/>
      <use xlink:href="#STIXGeneral-Regular-d7" transform="translate(649.899811 0.203125)"/>
      <use xlink:href="#STIXGeneral-Regular-20" transform="translate(713.899796 0.203125)"/>
      <use xlink:href="#STIXGeneral-Regular-36" transform="translate(738.89978 0.203125)"/>
      <use xlink:href="#STIXGeneral-Regular-32" transform="translate(788.899765 0.203125)"/>
      <use xlink:href="#STIXGeneral-Regular-2e" transform="translate(838.89975 0.203125)"/>
      <use xlink:href="#STIXGeneral-Regular-35" transform="translate(863.899734 0.203125)"/>
      <use xlink:href="#STIXGeneral-Regular-4b" transform="translate(913.899719 0.203125)"/>
      <use xlink:href="#STIXGeneral-Regular-29" transform="translate(986.099701 0.203125)"/>
     </g>
    </g>
   </g>
   <g id="matplotlib.axis_4">
    <g id="ytick_5">
     <g id="line2d_30">
      <path d="M 504.701163 253.400156 
L 796.677907 253.400156 
" clip-path="url(#pcb309c8282)" style="fill: none; stroke: #b0b0b0; stroke-width: 0.8; stroke-linecap: square"/>
     </g>
     <g id="line2d_31">
      <g>
       <use xlink:href="#m5c66223142" x="504.701163" y="253.400156" style="stroke: #000000; stroke-width: 0.8"/>
      </g>
     </g>
     <g id="text_20">
      <!-- 0.0 -->
      <g transform="translate(467.701163 261.595781) scale(0.24 -0.24)">
       <use xlink:href="#STIXGeneral-Regular-30"/>
       <use xlink:href="#STIXGeneral-Regular-2e" transform="translate(49.999985 0)"/>
       <use xlink:href="#STIXGeneral-Regular-30" transform="translate(74.999969 0)"/>
      </g>
     </g>
    </g>
    <g id="ytick_6">
     <g id="line2d_32">
      <path d="M 504.701163 144.349455 
L 796.677907 144.349455 
" clip-path="url(#pcb309c8282)" style="fill: none; stroke: #b0b0b0; stroke-width: 0.8; stroke-linecap: square"/>
     </g>
     <g id="line2d_33">
      <g>
       <use xlink:href="#m5c66223142" x="504.701163" y="144.349455" style="stroke: #000000; stroke-width: 0.8"/>
      </g>
     </g>
     <g id="text_21">
      <!-- 0.5 -->
      <g transform="translate(467.701163 152.54508) scale(0.24 -0.24)">
       <use xlink:href="#STIXGeneral-Regular-30"/>
       <use xlink:href="#STIXGeneral-Regular-2e" transform="translate(49.999985 0)"/>
       <use xlink:href="#STIXGeneral-Regular-35" transform="translate(74.999969 0)"/>
      </g>
     </g>
    </g>
    <g id="ytick_7">
     <g id="line2d_34">
      <path d="M 504.701163 35.298753 
L 796.677907 35.298753 
" clip-path="url(#pcb309c8282)" style="fill: none; stroke: #b0b0b0; stroke-width: 0.8; stroke-linecap: square"/>
     </g>
     <g id="line2d_35">
      <g>
       <use xlink:href="#m5c66223142" x="504.701163" y="35.298753" style="stroke: #000000; stroke-width: 0.8"/>
      </g>
     </g>
     <g id="text_22">
      <!-- 1.0 -->
      <g transform="translate(467.701163 43.494378) scale(0.24 -0.24)">
       <use xlink:href="#STIXGeneral-Regular-31"/>
       <use xlink:href="#STIXGeneral-Regular-2e" transform="translate(49.999985 0)"/>
       <use xlink:href="#STIXGeneral-Regular-30" transform="translate(74.999969 0)"/>
      </g>
     </g>
    </g>
    <g id="text_23">
     <!-- IQM Return -->
     <g transform="translate(463.492413 201.513281) rotate(-90) scale(0.24 -0.24)">
      <defs>
       <path id="STIXGeneral-Regular-52" d="M 4224 0 
L 3187 0 
L 1664 1971 
L 1306 1958 
L 1306 717 
Q 1306 352 1405 249 
Q 1504 147 1875 122 
L 1875 0 
L 109 0 
L 109 122 
Q 474 154 563 262 
Q 653 371 653 794 
L 653 3526 
Q 653 3885 563 3987 
Q 474 4090 109 4115 
L 109 4237 
L 1850 4237 
Q 2726 4237 3187 3859 
Q 3501 3603 3501 3091 
Q 3501 2221 2342 2042 
L 3622 422 
Q 3757 256 3878 198 
Q 4000 141 4224 122 
L 4224 0 
z
M 1306 3731 
L 1306 2195 
Q 1766 2202 1990 2246 
Q 2214 2291 2438 2413 
Q 2803 2618 2803 3142 
Q 2803 4000 1632 4000 
Q 1459 4000 1382 3945 
Q 1306 3891 1306 3731 
z
" transform="scale(0.015625)"/>
      </defs>
      <use xlink:href="#STIXGeneral-Regular-49"/>
      <use xlink:href="#STIXGeneral-Regular-51" transform="translate(33.299988 0)"/>
      <use xlink:href="#STIXGeneral-Regular-4d" transform="translate(105.499969 0)"/>
      <use xlink:href="#STIXGeneral-Regular-20" transform="translate(194.399963 0)"/>
      <use xlink:href="#STIXGeneral-Regular-52" transform="translate(219.399948 0)"/>
      <use xlink:href="#STIXGeneral-Regular-65" transform="translate(286.099945 0)"/>
      <use xlink:href="#STIXGeneral-Regular-74" transform="translate(330.499939 0)"/>
      <use xlink:href="#STIXGeneral-Regular-75" transform="translate(358.299927 0)"/>
      <use xlink:href="#STIXGeneral-Regular-72" transform="translate(408.299911 0)"/>
      <use xlink:href="#STIXGeneral-Regular-6e" transform="translate(441.599899 0)"/>
     </g>
    </g>
   </g>
   <g id="patch_12">
    <path d="M 504.701163 253.400156 
L 504.701163 31.640156 
" style="fill: none; stroke: #000000; stroke-width: 0.8; stroke-linejoin: miter; stroke-linecap: square"/>
   </g>
   <g id="patch_13">
    <path d="M 796.677907 253.400156 
L 796.677907 31.640156 
" style="fill: none; stroke: #000000; stroke-width: 0.8; stroke-linejoin: miter; stroke-linecap: square"/>
   </g>
   <g id="patch_14">
    <path d="M 504.701163 253.400156 
L 796.677907 253.400156 
" style="fill: none; stroke: #000000; stroke-width: 0.8; stroke-linejoin: miter; stroke-linecap: square"/>
   </g>
   <g id="patch_15">
    <path d="M 504.701163 31.640156 
L 796.677907 31.640156 
" style="fill: none; stroke: #000000; stroke-width: 0.8; stroke-linejoin: miter; stroke-linecap: square"/>
   </g>
   <g id="line2d_36">
    <path d="M 504.701163 235.81479 
L 510.540698 230.611407 
L 516.380233 225.284727 
L 522.219767 221.311784 
L 528.059302 217.810794 
L 533.898837 214.684559 
L 539.738372 207.189327 
L 545.577907 197.811081 
L 551.417442 191.234601 
L 557.256977 184.186124 
L 563.096512 180.222753 
L 568.936047 177.834777 
L 574.775581 178.089041 
L 580.615116 179.092128 
L 586.454651 177.468839 
L 592.294186 177.824106 
L 598.133721 183.979418 
L 603.973256 188.829508 
L 609.812791 188.107799 
L 615.652326 187.097684 
L 621.49186 185.326206 
L 627.331395 183.643129 
L 633.17093 181.118736 
L 639.010465 177.753367 
L 644.85 178.843527 
L 650.689535 177.964442 
L 656.52907 175.49714 
L 662.368605 174.941018 
L 668.20814 174.367835 
L 674.047674 173.768183 
L 679.887209 174.576087 
L 685.726744 174.620572 
L 691.566279 176.521994 
L 697.405814 178.230793 
L 703.245349 177.679965 
L 709.084884 175.67053 
L 714.924419 177.093153 
L 720.763953 176.340338 
L 726.603488 176.239048 
L 732.443023 175.902476 
L 738.282558 175.376383 
L 744.122093 173.645418 
L 749.961628 172.517 
L 755.801163 172.306798 
L 761.640698 172.104611 
L 767.480233 174.051817 
L 773.319767 174.321395 
L 779.159302 175.025588 
L 784.998837 176.101523 
L 790.838372 176.605241 
L 796.677907 177.230598 
" clip-path="url(#pcb309c8282)" style="fill: none; stroke: #7f7f7f; stroke-width: 3; stroke-linecap: square"/>
   </g>
   <g id="text_24">
    <!-- Performance Curve (CNN) -->
    <g transform="translate(504.46766 25.640156) scale(0.27 -0.27)">
     <defs>
      <path id="STIXGeneral-Regular-6d" d="M 4960 0 
L 3565 0 
L 3565 96 
Q 3834 122 3907 208 
Q 3981 294 3981 576 
L 3981 1894 
Q 3981 2278 3869 2444 
Q 3757 2611 3488 2611 
Q 3264 2611 3107 2521 
Q 2950 2432 2803 2221 
L 2803 608 
Q 2803 301 2896 201 
Q 2989 102 3264 96 
L 3264 0 
L 1830 0 
L 1830 96 
Q 2112 115 2189 188 
Q 2266 262 2266 550 
L 2266 1901 
Q 2266 2611 1850 2611 
Q 1670 2611 1468 2531 
Q 1267 2451 1171 2336 
Q 1088 2240 1088 2227 
L 1088 448 
Q 1088 243 1177 176 
Q 1267 109 1523 96 
L 1523 0 
L 102 0 
L 102 96 
Q 371 102 460 195 
Q 550 288 550 563 
L 550 2150 
Q 550 2387 499 2480 
Q 448 2573 326 2573 
Q 230 2573 122 2547 
L 122 2656 
Q 557 2778 1011 2944 
L 1062 2925 
L 1062 2451 
L 1075 2451 
Q 1363 2752 1584 2848 
Q 1805 2944 2054 2944 
Q 2560 2944 2733 2406 
Q 3232 2944 3776 2944 
Q 4518 2944 4518 1792 
L 4518 493 
Q 4518 282 4582 202 
Q 4646 122 4794 109 
L 4960 96 
L 4960 0 
z
" transform="scale(0.015625)"/>
      <path id="STIXGeneral-Regular-63" d="M 2547 998 
L 2637 941 
Q 2362 403 2112 205 
Q 1786 -64 1376 -64 
Q 845 -64 502 336 
Q 160 736 160 1357 
Q 160 2170 698 2618 
Q 1094 2944 1562 2944 
Q 1965 2944 2256 2749 
Q 2547 2554 2547 2285 
Q 2547 2176 2457 2096 
Q 2368 2016 2246 2016 
Q 2022 2016 1939 2310 
L 1901 2451 
Q 1850 2630 1773 2694 
Q 1696 2758 1523 2758 
Q 1133 2758 893 2451 
Q 653 2144 653 1645 
Q 653 1094 928 745 
Q 1203 397 1645 397 
Q 1920 397 2118 528 
Q 2317 659 2547 998 
z
" transform="scale(0.015625)"/>
     </defs>
     <use xlink:href="#STIXGeneral-Regular-50"/>
     <use xlink:href="#STIXGeneral-Regular-65" transform="translate(55.699997 0)"/>
     <use xlink:href="#STIXGeneral-Regular-72" transform="translate(100.099991 0)"/>
     <use xlink:href="#STIXGeneral-Regular-66" transform="translate(133.399979 0)"/>
     <use xlink:href="#STIXGeneral-Regular-6f" transform="translate(166.699966 0)"/>
     <use xlink:href="#STIXGeneral-Regular-72" transform="translate(216.699951 0)"/>
     <use xlink:href="#STIXGeneral-Regular-6d" transform="translate(249.999939 0)"/>
     <use xlink:href="#STIXGeneral-Regular-61" transform="translate(327.799927 0)"/>
     <use xlink:href="#STIXGeneral-Regular-6e" transform="translate(372.199921 0)"/>
     <use xlink:href="#STIXGeneral-Regular-63" transform="translate(422.199905 0)"/>
     <use xlink:href="#STIXGeneral-Regular-65" transform="translate(466.599899 0)"/>
     <use xlink:href="#STIXGeneral-Regular-20" transform="translate(510.999893 0)"/>
     <use xlink:href="#STIXGeneral-Regular-43" transform="translate(535.999878 0)"/>
     <use xlink:href="#STIXGeneral-Regular-75" transform="translate(602.699875 0)"/>
     <use xlink:href="#STIXGeneral-Regular-72" transform="translate(652.69986 0)"/>
     <use xlink:href="#STIXGeneral-Regular-76" transform="translate(685.999847 0)"/>
     <use xlink:href="#STIXGeneral-Regular-65" transform="translate(735.999832 0)"/>
     <use xlink:href="#STIXGeneral-Regular-20" transform="translate(780.399826 0)"/>
     <use xlink:href="#STIXGeneral-Regular-28" transform="translate(805.399811 0)"/>
     <use xlink:href="#STIXGeneral-Regular-43" transform="translate(838.699799 0)"/>
     <use xlink:href="#STIXGeneral-Regular-4e" transform="translate(905.399796 0)"/>
     <use xlink:href="#STIXGeneral-Regular-4e" transform="translate(977.599777 0)"/>
     <use xlink:href="#STIXGeneral-Regular-29" transform="translate(1049.799759 0)"/>
    </g>
   </g>
   <g id="line2d_37">
    <path d="M 504.701163 233.137441 
L 510.540698 226.41411 
L 516.380233 219.227006 
L 522.219767 211.477324 
L 528.059302 203.086124 
L 533.898837 196.313428 
L 539.738372 182.721296 
L 545.577907 166.683801 
L 551.417442 154.670498 
L 557.256977 143.173078 
L 563.096512 133.610059 
L 568.936047 127.610217 
L 574.775581 122.089927 
L 580.615116 117.80269 
L 586.454651 114.03773 
L 592.294186 110.878148 
L 598.133721 109.918508 
L 603.973256 107.805811 
L 609.812791 107.267195 
L 615.652326 103.374157 
L 621.49186 102.02038 
L 627.331395 98.806858 
L 633.17093 94.705599 
L 639.010465 89.28946 
L 644.85 88.291312 
L 650.689535 86.377937 
L 656.52907 86.722201 
L 662.368605 88.81268 
L 668.20814 87.358932 
L 674.047674 84.45056 
L 679.887209 82.521677 
L 685.726744 80.587669 
L 691.566279 78.540626 
L 697.405814 80.165185 
L 703.245349 78.777448 
L 709.084884 75.616854 
L 714.924419 72.991628 
L 720.763953 70.521413 
L 726.603488 68.135452 
L 732.443023 66.042134 
L 738.282558 65.085614 
L 744.122093 65.954714 
L 749.961628 64.477113 
L 755.801163 64.074528 
L 761.640698 65.721133 
L 767.480233 67.31616 
L 773.319767 68.39757 
L 779.159302 68.153894 
L 784.998837 69.001336 
L 790.838372 70.525277 
L 796.677907 73.225485 
" clip-path="url(#pcb309c8282)" style="fill: none; stroke: #ce1126; stroke-width: 3; stroke-linecap: square"/>
   </g>
  </g>
  <g id="axes_3">
   <g id="patch_16">
    <path d="M 860.912791 253.400156 
L 1152.889535 253.400156 
L 1152.889535 31.640156 
L 860.912791 31.640156 
z
" style="fill: #ffffff"/>
   </g>
   <g id="FillBetweenPolyCollection_3">
    <defs>
     <path id="mb01e24ec64" d="M 860.912791 -116.178353 
L 860.912791 -108.222595 
L 866.752326 -116.381592 
L 872.59186 -122.537562 
L 878.431395 -126.692445 
L 884.27093 -130.015864 
L 890.110465 -132.802365 
L 895.95 -144.904365 
L 901.789535 -152.140772 
L 907.62907 -159.282086 
L 913.468605 -163.25579 
L 919.30814 -165.821911 
L 925.147674 -171.146885 
L 930.987209 -178.283922 
L 936.826744 -182.705858 
L 942.666279 -187.27193 
L 948.505814 -191.421546 
L 954.345349 -193.147655 
L 960.184884 -194.836412 
L 966.024419 -199.108299 
L 971.863953 -204.96922 
L 977.703488 -207.570838 
L 983.543023 -208.246013 
L 989.382558 -208.063627 
L 995.222093 -212.324258 
L 1001.061628 -212.40825 
L 1006.901163 -213.269207 
L 1012.740698 -215.448093 
L 1018.580233 -213.953482 
L 1024.419767 -214.788535 
L 1030.259302 -215.062272 
L 1036.098837 -214.389893 
L 1041.938372 -215.197887 
L 1047.777907 -216.685574 
L 1053.617442 -212.729624 
L 1059.456977 -215.548124 
L 1065.296512 -215.781624 
L 1071.136047 -212.825266 
L 1076.975581 -212.200042 
L 1082.815116 -211.373902 
L 1088.654651 -211.87096 
L 1094.494186 -212.266413 
L 1100.333721 -210.456185 
L 1106.173256 -213.196367 
L 1112.012791 -213.385757 
L 1117.852326 -210.940485 
L 1123.69186 -211.407514 
L 1129.531395 -213.956351 
L 1135.37093 -215.58134 
L 1141.210465 -213.84999 
L 1147.05 -212.369709 
L 1152.889535 -212.567519 
L 1152.889535 -243.238163 
L 1152.889535 -243.238163 
L 1147.05 -241.549159 
L 1141.210465 -244.021923 
L 1135.37093 -245.475995 
L 1129.531395 -244.760725 
L 1123.69186 -242.665925 
L 1117.852326 -243.607958 
L 1112.012791 -247.281378 
L 1106.173256 -246.641327 
L 1100.333721 -246.478801 
L 1094.494186 -247.550522 
L 1088.654651 -248.344055 
L 1082.815116 -246.653715 
L 1076.975581 -244.565399 
L 1071.136047 -242.408284 
L 1065.296512 -241.077888 
L 1059.456977 -240.377396 
L 1053.617442 -236.66771 
L 1047.777907 -237.219836 
L 1041.938372 -237.466273 
L 1036.098837 -234.978365 
L 1030.259302 -233.457077 
L 1024.419767 -233.428362 
L 1018.580233 -232.978283 
L 1012.740698 -232.139765 
L 1006.901163 -230.351747 
L 1001.061628 -229.256604 
L 995.222093 -226.905199 
L 989.382558 -221.925868 
L 983.543023 -222.933503 
L 977.703488 -220.773279 
L 971.863953 -217.409033 
L 966.024419 -212.564014 
L 960.184884 -209.6445 
L 954.345349 -205.429144 
L 948.505814 -204.391846 
L 942.666279 -199.946481 
L 936.826744 -195.719479 
L 930.987209 -192.19881 
L 925.147674 -186.139313 
L 919.30814 -183.021133 
L 913.468605 -181.555287 
L 907.62907 -174.745078 
L 901.789535 -168.198188 
L 895.95 -158.887287 
L 890.110465 -142.725489 
L 884.27093 -138.578001 
L 878.431395 -136.031988 
L 872.59186 -131.917181 
L 866.752326 -125.063542 
L 860.912791 -116.178353 
z
" style="stroke: #7f7f7f; stroke-opacity: 0.3"/>
    </defs>
    <g clip-path="url(#p78088907d3)">
     <use xlink:href="#mb01e24ec64" x="0" y="313.220156" style="fill: #7f7f7f; fill-opacity: 0.3; stroke: #7f7f7f; stroke-opacity: 0.3"/>
    </g>
   </g>
   <g id="FillBetweenPolyCollection_4">
    <defs>
     <path id="ma209788117" d="M 860.912791 -122.857912 
L 860.912791 -115.055201 
L 866.752326 -122.457925 
L 872.59186 -128.967412 
L 878.431395 -135.462115 
L 884.27093 -142.989043 
L 890.110465 -147.767377 
L 895.95 -164.359181 
L 901.789535 -176.828946 
L 907.62907 -186.601423 
L 913.468605 -190.767266 
L 919.30814 -196.903777 
L 925.147674 -201.142185 
L 930.987209 -205.896978 
L 936.826744 -207.928916 
L 942.666279 -210.524566 
L 948.505814 -212.570628 
L 954.345349 -213.947263 
L 960.184884 -216.435744 
L 966.024419 -217.242463 
L 971.863953 -223.187072 
L 977.703488 -227.031303 
L 983.543023 -231.097079 
L 989.382558 -233.565721 
L 995.222093 -237.806151 
L 1001.061628 -239.165364 
L 1006.901163 -240.664896 
L 1012.740698 -242.663099 
L 1018.580233 -242.871467 
L 1024.419767 -246.104991 
L 1030.259302 -247.218832 
L 1036.098837 -246.055347 
L 1041.938372 -246.708057 
L 1047.777907 -246.499147 
L 1053.617442 -242.566482 
L 1059.456977 -243.50349 
L 1065.296512 -240.857392 
L 1071.136047 -238.36862 
L 1076.975581 -236.469748 
L 1082.815116 -231.025085 
L 1088.654651 -230.35402 
L 1094.494186 -228.484276 
L 1100.333721 -227.677397 
L 1106.173256 -228.566881 
L 1112.012791 -227.858885 
L 1117.852326 -226.689832 
L 1123.69186 -225.173365 
L 1129.531395 -225.977735 
L 1135.37093 -226.845078 
L 1141.210465 -228.437569 
L 1147.05 -226.443895 
L 1152.889535 -226.483855 
L 1152.889535 -267.027871 
L 1152.889535 -267.027871 
L 1147.05 -265.345131 
L 1141.210465 -266.179648 
L 1135.37093 -267.290573 
L 1129.531395 -266.949585 
L 1123.69186 -264.966753 
L 1117.852326 -266.478755 
L 1112.012791 -268.011591 
L 1106.173256 -268.546484 
L 1100.333721 -268.964702 
L 1094.494186 -268.310012 
L 1088.654651 -270.9841 
L 1082.815116 -270.547193 
L 1076.975581 -271.744351 
L 1071.136047 -271.966376 
L 1065.296512 -271.284499 
L 1059.456977 -271.768732 
L 1053.617442 -271.121064 
L 1047.777907 -271.78575 
L 1041.938372 -273.324885 
L 1036.098837 -272.586375 
L 1030.259302 -271.427174 
L 1024.419767 -268.735969 
L 1018.580233 -266.982529 
L 1012.740698 -268.129172 
L 1006.901163 -265.802798 
L 1001.061628 -262.650245 
L 995.222093 -261.814043 
L 989.382558 -257.153231 
L 983.543023 -253.118175 
L 977.703488 -249.486418 
L 971.863953 -245.07235 
L 966.024419 -241.830426 
L 960.184884 -238.509781 
L 954.345349 -233.491458 
L 948.505814 -231.775702 
L 942.666279 -228.025068 
L 936.826744 -225.597486 
L 930.987209 -222.505871 
L 925.147674 -216.784598 
L 919.30814 -211.305768 
L 913.468605 -205.102675 
L 907.62907 -197.106496 
L 901.789535 -187.800675 
L 895.95 -174.827007 
L 890.110465 -157.877702 
L 884.27093 -152.289957 
L 878.431395 -145.776911 
L 872.59186 -139.405534 
L 866.752326 -131.242 
L 860.912791 -122.857912 
z
" style="stroke: #ce1126; stroke-opacity: 0.3"/>
    </defs>
    <g clip-path="url(#p78088907d3)">
     <use xlink:href="#ma209788117" x="0" y="313.220156" style="fill: #ce1126; fill-opacity: 0.3; stroke: #ce1126; stroke-opacity: 0.3"/>
    </g>
   </g>
   <g id="matplotlib.axis_5">
    <g id="xtick_11">
     <g id="line2d_38">
      <path d="M 860.912791 253.400156 
L 860.912791 31.640156 
" clip-path="url(#p78088907d3)" style="fill: none; stroke: #b0b0b0; stroke-width: 0.8; stroke-linecap: square"/>
     </g>
     <g id="line2d_39">
      <g>
       <use xlink:href="#m62b740f934" x="860.912791" y="253.400156" style="stroke: #000000; stroke-width: 0.8"/>
      </g>
     </g>
     <g id="text_25">
      <!-- 0 -->
      <g transform="translate(854.912791 276.791406) scale(0.24 -0.24)">
       <use xlink:href="#STIXGeneral-Regular-30"/>
      </g>
     </g>
    </g>
    <g id="xtick_12">
     <g id="line2d_40">
      <path d="M 919.30814 253.400156 
L 919.30814 31.640156 
" clip-path="url(#p78088907d3)" style="fill: none; stroke: #b0b0b0; stroke-width: 0.8; stroke-linecap: square"/>
     </g>
     <g id="line2d_41">
      <g>
       <use xlink:href="#m62b740f934" x="919.30814" y="253.400156" style="stroke: #000000; stroke-width: 0.8"/>
      </g>
     </g>
     <g id="text_26">
      <!-- 10 -->
      <g transform="translate(907.30814 276.791406) scale(0.24 -0.24)">
       <use xlink:href="#STIXGeneral-Regular-31"/>
       <use xlink:href="#STIXGeneral-Regular-30" transform="translate(49.999985 0)"/>
      </g>
     </g>
    </g>
    <g id="xtick_13">
     <g id="line2d_42">
      <path d="M 977.703488 253.400156 
L 977.703488 31.640156 
" clip-path="url(#p78088907d3)" style="fill: none; stroke: #b0b0b0; stroke-width: 0.8; stroke-linecap: square"/>
     </g>
     <g id="line2d_43">
      <g>
       <use xlink:href="#m62b740f934" x="977.703488" y="253.400156" style="stroke: #000000; stroke-width: 0.8"/>
      </g>
     </g>
     <g id="text_27">
      <!-- 20 -->
      <g transform="translate(965.703488 276.791406) scale(0.24 -0.24)">
       <use xlink:href="#STIXGeneral-Regular-32"/>
       <use xlink:href="#STIXGeneral-Regular-30" transform="translate(49.999985 0)"/>
      </g>
     </g>
    </g>
    <g id="xtick_14">
     <g id="line2d_44">
      <path d="M 1036.098837 253.400156 
L 1036.098837 31.640156 
" clip-path="url(#p78088907d3)" style="fill: none; stroke: #b0b0b0; stroke-width: 0.8; stroke-linecap: square"/>
     </g>
     <g id="line2d_45">
      <g>
       <use xlink:href="#m62b740f934" x="1036.098837" y="253.400156" style="stroke: #000000; stroke-width: 0.8"/>
      </g>
     </g>
     <g id="text_28">
      <!-- 30 -->
      <g transform="translate(1024.098837 276.791406) scale(0.24 -0.24)">
       <use xlink:href="#STIXGeneral-Regular-33"/>
       <use xlink:href="#STIXGeneral-Regular-30" transform="translate(49.999985 0)"/>
      </g>
     </g>
    </g>
    <g id="xtick_15">
     <g id="line2d_46">
      <path d="M 1094.494186 253.400156 
L 1094.494186 31.640156 
" clip-path="url(#p78088907d3)" style="fill: none; stroke: #b0b0b0; stroke-width: 0.8; stroke-linecap: square"/>
     </g>
     <g id="line2d_47">
      <g>
       <use xlink:href="#m62b740f934" x="1094.494186" y="253.400156" style="stroke: #000000; stroke-width: 0.8"/>
      </g>
     </g>
     <g id="text_29">
      <!-- 40 -->
      <g transform="translate(1082.494186 276.791406) scale(0.24 -0.24)">
       <use xlink:href="#STIXGeneral-Regular-34"/>
       <use xlink:href="#STIXGeneral-Regular-30" transform="translate(49.999985 0)"/>
      </g>
     </g>
    </g>
    <g id="xtick_16">
     <g id="line2d_48">
      <path d="M 1152.889535 253.400156 
L 1152.889535 31.640156 
" clip-path="url(#p78088907d3)" style="fill: none; stroke: #b0b0b0; stroke-width: 0.8; stroke-linecap: square"/>
     </g>
     <g id="line2d_49">
      <g>
       <use xlink:href="#m62b740f934" x="1152.889535" y="253.400156" style="stroke: #000000; stroke-width: 0.8"/>
      </g>
     </g>
     <g id="text_30">
      <!-- 50 -->
      <g transform="translate(1140.889535 276.791406) scale(0.24 -0.24)">
       <use xlink:href="#STIXGeneral-Regular-35"/>
       <use xlink:href="#STIXGeneral-Regular-30" transform="translate(49.999985 0)"/>
      </g>
     </g>
    </g>
   </g>
   <g id="matplotlib.axis_6">
    <g id="ytick_8">
     <g id="line2d_50">
      <path d="M 860.912791 253.400156 
L 1152.889535 253.400156 
" clip-path="url(#p78088907d3)" style="fill: none; stroke: #b0b0b0; stroke-width: 0.8; stroke-linecap: square"/>
     </g>
     <g id="line2d_51">
      <g>
       <use xlink:href="#m5c66223142" x="860.912791" y="253.400156" style="stroke: #000000; stroke-width: 0.8"/>
      </g>
     </g>
     <g id="text_31">
      <!-- 0.0 -->
      <g transform="translate(823.912791 261.595781) scale(0.24 -0.24)">
       <use xlink:href="#STIXGeneral-Regular-30"/>
       <use xlink:href="#STIXGeneral-Regular-2e" transform="translate(49.999985 0)"/>
       <use xlink:href="#STIXGeneral-Regular-30" transform="translate(74.999969 0)"/>
      </g>
     </g>
    </g>
    <g id="ytick_9">
     <g id="line2d_52">
      <path d="M 860.912791 187.642284 
L 1152.889535 187.642284 
" clip-path="url(#p78088907d3)" style="fill: none; stroke: #b0b0b0; stroke-width: 0.8; stroke-linecap: square"/>
     </g>
     <g id="line2d_53">
      <g>
       <use xlink:href="#m5c66223142" x="860.912791" y="187.642284" style="stroke: #000000; stroke-width: 0.8"/>
      </g>
     </g>
     <g id="text_32">
      <!-- 0.5 -->
      <g transform="translate(823.912791 195.837909) scale(0.24 -0.24)">
       <use xlink:href="#STIXGeneral-Regular-30"/>
       <use xlink:href="#STIXGeneral-Regular-2e" transform="translate(49.999985 0)"/>
       <use xlink:href="#STIXGeneral-Regular-35" transform="translate(74.999969 0)"/>
      </g>
     </g>
    </g>
    <g id="ytick_10">
     <g id="line2d_54">
      <path d="M 860.912791 121.884412 
L 1152.889535 121.884412 
" clip-path="url(#p78088907d3)" style="fill: none; stroke: #b0b0b0; stroke-width: 0.8; stroke-linecap: square"/>
     </g>
     <g id="line2d_55">
      <g>
       <use xlink:href="#m5c66223142" x="860.912791" y="121.884412" style="stroke: #000000; stroke-width: 0.8"/>
      </g>
     </g>
     <g id="text_33">
      <!-- 1.0 -->
      <g transform="translate(823.912791 130.080037) scale(0.24 -0.24)">
       <use xlink:href="#STIXGeneral-Regular-31"/>
       <use xlink:href="#STIXGeneral-Regular-2e" transform="translate(49.999985 0)"/>
       <use xlink:href="#STIXGeneral-Regular-30" transform="translate(74.999969 0)"/>
      </g>
     </g>
    </g>
    <g id="ytick_11">
     <g id="line2d_56">
      <path d="M 860.912791 56.12654 
L 1152.889535 56.12654 
" clip-path="url(#p78088907d3)" style="fill: none; stroke: #b0b0b0; stroke-width: 0.8; stroke-linecap: square"/>
     </g>
     <g id="line2d_57">
      <g>
       <use xlink:href="#m5c66223142" x="860.912791" y="56.12654" style="stroke: #000000; stroke-width: 0.8"/>
      </g>
     </g>
     <g id="text_34">
      <!-- 1.5 -->
      <g transform="translate(823.912791 64.322165) scale(0.24 -0.24)">
       <use xlink:href="#STIXGeneral-Regular-31"/>
       <use xlink:href="#STIXGeneral-Regular-2e" transform="translate(49.999985 0)"/>
       <use xlink:href="#STIXGeneral-Regular-35" transform="translate(74.999969 0)"/>
      </g>
     </g>
    </g>
   </g>
   <g id="patch_17">
    <path d="M 860.912791 253.400156 
L 860.912791 31.640156 
" style="fill: none; stroke: #000000; stroke-width: 0.8; stroke-linejoin: miter; stroke-linecap: square"/>
   </g>
   <g id="patch_18">
    <path d="M 1152.889535 253.400156 
L 1152.889535 31.640156 
" style="fill: none; stroke: #000000; stroke-width: 0.8; stroke-linejoin: miter; stroke-linecap: square"/>
   </g>
   <g id="patch_19">
    <path d="M 860.912791 253.400156 
L 1152.889535 253.400156 
" style="fill: none; stroke: #000000; stroke-width: 0.8; stroke-linejoin: miter; stroke-linecap: square"/>
   </g>
   <g id="patch_20">
    <path d="M 860.912791 31.640156 
L 1152.889535 31.640156 
" style="fill: none; stroke: #000000; stroke-width: 0.8; stroke-linejoin: miter; stroke-linecap: square"/>
   </g>
   <g id="line2d_58">
    <path d="M 860.912791 201.440182 
L 866.752326 192.754157 
L 872.59186 186.44766 
L 878.431395 182.087394 
L 884.27093 179.316105 
L 890.110465 175.910128 
L 895.95 161.925674 
L 901.789535 153.403959 
L 907.62907 146.838839 
L 913.468605 141.138154 
L 919.30814 139.099268 
L 925.147674 134.913983 
L 930.987209 128.15153 
L 936.826744 124.300004 
L 942.666279 120.046685 
L 948.505814 115.44026 
L 954.345349 113.82034 
L 960.184884 111.477889 
L 966.024419 108.06476 
L 971.863953 102.255523 
L 977.703488 99.276917 
L 983.543023 98.136012 
L 989.382558 98.929299 
L 995.222093 94.239434 
L 1001.061628 93.277495 
L 1006.901163 91.629106 
L 1012.740698 89.843298 
L 1018.580233 90.438521 
L 1024.419767 89.41704 
L 1030.259302 89.514319 
L 1036.098837 88.827589 
L 1041.938372 86.798296 
L 1047.777907 86.309408 
L 1053.617442 88.469296 
L 1059.456977 85.806179 
L 1065.296512 85.546789 
L 1071.136047 85.604851 
L 1076.975581 84.794812 
L 1082.815116 84.399367 
L 1088.654651 83.101186 
L 1094.494186 83.205734 
L 1100.333721 85.520651 
L 1106.173256 84.668965 
L 1112.012791 84.303165 
L 1117.852326 87.148012 
L 1123.69186 87.758085 
L 1129.531395 85.827085 
L 1135.37093 85.0324 
L 1141.210465 86.375867 
L 1147.05 88.550958 
L 1152.889535 88.349484 
" clip-path="url(#p78088907d3)" style="fill: none; stroke: #7f7f7f; stroke-width: 3; stroke-linecap: square"/>
   </g>
   <g id="text_35">
    <!-- Performance Curve (IMPALA) -->
    <g transform="translate(837.41921 25.640156) scale(0.27 -0.27)">
     <use xlink:href="#STIXGeneral-Regular-50"/>
     <use xlink:href="#STIXGeneral-Regular-65" transform="translate(55.699997 0)"/>
     <use xlink:href="#STIXGeneral-Regular-72" transform="translate(100.099991 0)"/>
     <use xlink:href="#STIXGeneral-Regular-66" transform="translate(133.399979 0)"/>
     <use xlink:href="#STIXGeneral-Regular-6f" transform="translate(166.699966 0)"/>
     <use xlink:href="#STIXGeneral-Regular-72" transform="translate(216.699951 0)"/>
     <use xlink:href="#STIXGeneral-Regular-6d" transform="translate(249.999939 0)"/>
     <use xlink:href="#STIXGeneral-Regular-61" transform="translate(327.799927 0)"/>
     <use xlink:href="#STIXGeneral-Regular-6e" transform="translate(372.199921 0)"/>
     <use xlink:href="#STIXGeneral-Regular-63" transform="translate(422.199905 0)"/>
     <use xlink:href="#STIXGeneral-Regular-65" transform="translate(466.599899 0)"/>
     <use xlink:href="#STIXGeneral-Regular-20" transform="translate(510.999893 0)"/>
     <use xlink:href="#STIXGeneral-Regular-43" transform="translate(535.999878 0)"/>
     <use xlink:href="#STIXGeneral-Regular-75" transform="translate(602.699875 0)"/>
     <use xlink:href="#STIXGeneral-Regular-72" transform="translate(652.69986 0)"/>
     <use xlink:href="#STIXGeneral-Regular-76" transform="translate(685.999847 0)"/>
     <use xlink:href="#STIXGeneral-Regular-65" transform="translate(735.999832 0)"/>
     <use xlink:href="#STIXGeneral-Regular-20" transform="translate(780.399826 0)"/>
     <use xlink:href="#STIXGeneral-Regular-28" transform="translate(805.399811 0)"/>
     <use xlink:href="#STIXGeneral-Regular-49" transform="translate(838.699799 0)"/>
     <use xlink:href="#STIXGeneral-Regular-4d" transform="translate(871.999786 0)"/>
     <use xlink:href="#STIXGeneral-Regular-50" transform="translate(960.89978 0)"/>
     <use xlink:href="#STIXGeneral-Regular-41" transform="translate(1016.599777 0)"/>
     <use xlink:href="#STIXGeneral-Regular-4c" transform="translate(1088.799759 0)"/>
     <use xlink:href="#STIXGeneral-Regular-41" transform="translate(1149.89975 0)"/>
     <use xlink:href="#STIXGeneral-Regular-29" transform="translate(1222.099731 0)"/>
    </g>
   </g>
   <g id="line2d_59">
    <path d="M 860.912791 194.582191 
L 866.752326 186.610144 
L 872.59186 179.576848 
L 878.431395 173.391955 
L 884.27093 165.93838 
L 890.110465 160.423066 
L 895.95 143.483794 
L 901.789535 130.929325 
L 907.62907 121.211833 
L 913.468605 115.166058 
L 919.30814 109.273956 
L 925.147674 104.45294 
L 930.987209 99.248146 
L 936.826744 96.655933 
L 942.666279 94.816985 
L 948.505814 91.862447 
L 954.345349 90.372916 
L 960.184884 86.980828 
L 966.024419 85.655344 
L 971.863953 79.951869 
L 977.703488 75.593526 
L 983.543023 72.072889 
L 989.382558 68.84867 
L 995.222093 64.568405 
L 1001.061628 64.008275 
L 1006.901163 61.85766 
L 1012.740698 60.214197 
L 1018.580233 59.305565 
L 1024.419767 56.715872 
L 1030.259302 55.159062 
L 1036.098837 55.051193 
L 1041.938372 54.350084 
L 1047.777907 55.506849 
L 1053.617442 57.080268 
L 1059.456977 56.737601 
L 1065.296512 57.708262 
L 1071.136047 59.122711 
L 1076.975581 60.545646 
L 1082.815116 63.788306 
L 1088.654651 64.133158 
L 1094.494186 66.527785 
L 1100.333721 66.987098 
L 1106.173256 66.049892 
L 1112.012791 66.602493 
L 1117.852326 67.699485 
L 1123.69186 69.880657 
L 1129.531395 68.443926 
L 1135.37093 68.468245 
L 1141.210465 68.267991 
L 1147.05 70.043697 
L 1152.889535 69.526654 
" clip-path="url(#p78088907d3)" style="fill: none; stroke: #ce1126; stroke-width: 3; stroke-linecap: square"/>
   </g>
   <g id="legend_1">
    <g id="patch_21">
     <path d="M 927.889535 244.400156 
L 1140.289535 244.400156 
Q 1143.889535 244.400156 1143.889535 240.800156 
L 1143.889535 191.587031 
Q 1143.889535 187.987031 1140.289535 187.987031 
L 927.889535 187.987031 
Q 924.289535 187.987031 924.289535 191.587031 
L 924.289535 240.800156 
Q 924.289535 244.400156 927.889535 244.400156 
z
" style="fill: #ffffff; opacity: 0.8; stroke: #cccccc; stroke-linejoin: miter"/>
    </g>
    <g id="line2d_60">
     <path d="M 931.489535 201.487031 
L 949.489535 201.487031 
L 967.489535 201.487031 
" style="fill: none; stroke: #7f7f7f; stroke-width: 3; stroke-linecap: square"/>
    </g>
    <g id="text_36">
     <!-- CQL -->
     <g transform="translate(981.889535 207.787031) scale(0.18 -0.18)">
      <use xlink:href="#STIXGeneral-Regular-43"/>
      <use xlink:href="#STIXGeneral-Regular-51" transform="translate(66.699997 0)"/>
      <use xlink:href="#STIXGeneral-Regular-4c" transform="translate(138.899979 0)"/>
     </g>
    </g>
    <g id="line2d_61">
     <path d="M 931.489535 226.993594 
L 949.489535 226.993594 
L 967.489535 226.993594 
" style="fill: none; stroke: #ce1126; stroke-width: 3; stroke-linecap: square"/>
    </g>
    <g id="text_37">
     <!-- CQL+MINTO (ours) -->
     <g transform="translate(981.889535 233.293594) scale(0.18 -0.18)">
      <use xlink:href="#STIXGeneral-Regular-43"/>
      <use xlink:href="#STIXGeneral-Regular-51" transform="translate(66.699997 0)"/>
      <use xlink:href="#STIXGeneral-Regular-4c" transform="translate(138.899979 0)"/>
      <use xlink:href="#STIXGeneral-Regular-2b" transform="translate(199.999969 0)"/>
      <use xlink:href="#STIXGeneral-Regular-4d" transform="translate(268.499954 0)"/>
      <use xlink:href="#STIXGeneral-Regular-49" transform="translate(357.399948 0)"/>
      <use xlink:href="#STIXGeneral-Regular-4e" transform="translate(390.699936 0)"/>
      <use xlink:href="#STIXGeneral-Regular-54" transform="translate(462.899918 0)"/>
      <use xlink:href="#STIXGeneral-Regular-4f" transform="translate(523.999908 0)"/>
      <use xlink:href="#STIXGeneral-Regular-20" transform="translate(596.19989 0)"/>
      <use xlink:href="#STIXGeneral-Regular-28" transform="translate(621.199875 0)"/>
      <use xlink:href="#STIXGeneral-Regular-6f" transform="translate(654.499863 0)"/>
      <use xlink:href="#STIXGeneral-Regular-75" transform="translate(704.499847 0)"/>
      <use xlink:href="#STIXGeneral-Regular-72" transform="translate(754.499832 0)"/>
      <use xlink:href="#STIXGeneral-Regular-73" transform="translate(787.79982 0)"/>
      <use xlink:href="#STIXGeneral-Regular-29" transform="translate(826.699814 0)"/>
     </g>
    </g>
   </g>
  </g>
 </g>
 <defs>
  <clipPath id="p6debe59d9d">
   <rect x="148.489535" y="31.640156" width="291.976744" height="221.76"/>
  </clipPath>
  <clipPath id="pcb309c8282">
   <rect x="504.701163" y="31.640156" width="291.976744" height="221.76"/>
  </clipPath>
  <clipPath id="p78088907d3">
   <rect x="860.912791" y="31.640156" width="291.976744" height="221.76"/>
  </clipPath>
 </defs>
</svg>
