<?xml version="1.0" encoding="utf-8" standalone="no"?>
<!DOCTYPE svg PUBLIC "-//W3C//DTD SVG 1.1//EN"
  "http://www.w3.org/Graphics/SVG/1.1/DTD/svg11.dtd">
<svg xmlns:xlink="http://www.w3.org/1999/xlink" width="1139.0996pt" height="313.000156pt" viewBox="0 0 1139.0996 313.000156" xmlns="http://www.w3.org/2000/svg" version="1.1">
 <metadata>
  <rdf:RDF xmlns:dc="http://purl.org/dc/elements/1.1/" xmlns:cc="http://creativecommons.org/ns#" xmlns:rdf="http://www.w3.org/1999/02/22-rdf-syntax-ns#">
   <cc:Work>
    <dc:type rdf:resource="http://purl.org/dc/dcmitype/StillImage"/>
    <dc:date>2026-02-09T17:57:26.336847</dc:date>
    <dc:format>image/svg+xml</dc:format>
    <dc:creator>
     <cc:Agent>
      <dc:title>Matplotlib v3.10.1, https://matplotlib.org/</dc:title>
     </cc:Agent>
    </dc:creator>
   </cc:Work>
  </rdf:RDF>
 </metadata>
 <defs>
  <style type="text/css">*{stroke-linejoin: round; stroke-linecap: butt}</style>
 </defs>
 <g id="figure_1">
  <g id="patch_1">
   <path d="M 0 313.000156 
L 1139.0996 313.000156 
L 1139.0996 0 
L 0 0 
z
" style="fill: #ffffff"/>
  </g>
  <g id="axes_1">
   <g id="patch_2">
    <path d="M 105.723529 253.400156 
L 401.135294 253.400156 
L 401.135294 31.640156 
L 105.723529 31.640156 
z
" style="fill: #ffffff"/>
   </g>
   <g id="matplotlib.axis_1">
    <g id="xtick_1">
     <g id="line2d_1">
      <path d="M 142.65 253.400156 
L 142.65 31.640156 
" clip-path="url(#p3944d42f2d)" style="fill: none; stroke: #b0b0b0; stroke-width: 0.8; stroke-linecap: square"/>
     </g>
     <g id="line2d_2">
      <defs>
       <path id="m919a3c225c" d="M 0 0 
L 0 3.5 
" style="stroke: #000000; stroke-width: 0.8"/>
      </defs>
      <g>
       <use xlink:href="#m919a3c225c" x="142.65" y="253.400156" style="stroke: #000000; stroke-width: 0.8"/>
      </g>
     </g>
     <g id="text_1">
      <!-- 100 -->
      <g transform="translate(124.65 276.791406) scale(0.24 -0.24)">
       <defs>
        <path id="STIXGeneral-Regular-31" d="M 2522 0 
L 755 0 
L 755 96 
Q 1107 115 1235 227 
Q 1363 339 1363 608 
L 1363 3482 
Q 1363 3795 1171 3795 
Q 1082 3795 883 3718 
L 710 3654 
L 710 3744 
L 1856 4326 
L 1914 4307 
L 1914 486 
Q 1914 275 2042 185 
Q 2170 96 2522 96 
L 2522 0 
z
" transform="scale(0.015625)"/>
        <path id="STIXGeneral-Regular-30" d="M 3046 2112 
Q 3046 1683 2963 1302 
Q 2880 922 2717 602 
Q 2554 282 2266 96 
Q 1978 -90 1600 -90 
Q 1210 -90 915 108 
Q 621 307 461 640 
Q 301 973 227 1350 
Q 154 1728 154 2150 
Q 154 2746 301 3222 
Q 448 3699 790 4012 
Q 1133 4326 1626 4326 
Q 2253 4326 2649 3712 
Q 3046 3098 3046 2112 
z
M 2432 2080 
Q 2432 3091 2217 3625 
Q 2003 4160 1587 4160 
Q 1190 4160 979 3622 
Q 768 3085 768 2106 
Q 768 1120 979 598 
Q 1190 77 1600 77 
Q 2003 77 2217 598 
Q 2432 1120 2432 2080 
z
" transform="scale(0.015625)"/>
       </defs>
       <use xlink:href="#STIXGeneral-Regular-31"/>
       <use xlink:href="#STIXGeneral-Regular-30" transform="translate(49.999985 0)"/>
       <use xlink:href="#STIXGeneral-Regular-30" transform="translate(99.999969 0)"/>
      </g>
     </g>
    </g>
    <g id="xtick_2">
     <g id="line2d_3">
      <path d="M 216.502941 253.400156 
L 216.502941 31.640156 
" clip-path="url(#p3944d42f2d)" style="fill: none; stroke: #b0b0b0; stroke-width: 0.8; stroke-linecap: square"/>
     </g>
     <g id="line2d_4">
      <g>
       <use xlink:href="#m919a3c225c" x="216.502941" y="253.400156" style="stroke: #000000; stroke-width: 0.8"/>
      </g>
     </g>
     <g id="text_2">
      <!-- 110 -->
      <g transform="translate(198.502941 276.791406) scale(0.24 -0.24)">
       <use xlink:href="#STIXGeneral-Regular-31"/>
       <use xlink:href="#STIXGeneral-Regular-31" transform="translate(49.999985 0)"/>
       <use xlink:href="#STIXGeneral-Regular-30" transform="translate(99.999969 0)"/>
      </g>
     </g>
    </g>
    <g id="xtick_3">
     <g id="line2d_5">
      <path d="M 290.355882 253.400156 
L 290.355882 31.640156 
" clip-path="url(#p3944d42f2d)" style="fill: none; stroke: #b0b0b0; stroke-width: 0.8; stroke-linecap: square"/>
     </g>
     <g id="line2d_6">
      <g>
       <use xlink:href="#m919a3c225c" x="290.355882" y="253.400156" style="stroke: #000000; stroke-width: 0.8"/>
      </g>
     </g>
     <g id="text_3">
      <!-- 120 -->
      <g transform="translate(272.355882 276.791406) scale(0.24 -0.24)">
       <defs>
        <path id="STIXGeneral-Regular-32" d="M 3034 877 
L 2688 0 
L 186 0 
L 186 77 
L 1325 1286 
Q 1773 1754 1965 2144 
Q 2157 2534 2157 2950 
Q 2157 3379 1920 3616 
Q 1683 3853 1267 3853 
Q 922 3853 720 3673 
Q 518 3494 326 3021 
L 192 3053 
Q 301 3648 630 3987 
Q 960 4326 1523 4326 
Q 2054 4326 2380 4006 
Q 2707 3686 2707 3200 
Q 2707 2477 1888 1613 
L 832 486 
L 2330 486 
Q 2541 486 2665 569 
Q 2790 653 2944 915 
L 3034 877 
z
" transform="scale(0.015625)"/>
       </defs>
       <use xlink:href="#STIXGeneral-Regular-31"/>
       <use xlink:href="#STIXGeneral-Regular-32" transform="translate(49.999985 0)"/>
       <use xlink:href="#STIXGeneral-Regular-30" transform="translate(99.999969 0)"/>
      </g>
     </g>
    </g>
    <g id="xtick_4">
     <g id="line2d_7">
      <path d="M 364.208824 253.400156 
L 364.208824 31.640156 
" clip-path="url(#p3944d42f2d)" style="fill: none; stroke: #b0b0b0; stroke-width: 0.8; stroke-linecap: square"/>
     </g>
     <g id="line2d_8">
      <g>
       <use xlink:href="#m919a3c225c" x="364.208824" y="253.400156" style="stroke: #000000; stroke-width: 0.8"/>
      </g>
     </g>
     <g id="text_4">
      <!-- 130 -->
      <g transform="translate(346.208824 276.791406) scale(0.24 -0.24)">
       <defs>
        <path id="STIXGeneral-Regular-33" d="M 390 3264 
L 288 3290 
Q 435 3770 748 4048 
Q 1062 4326 1542 4326 
Q 1990 4326 2265 4083 
Q 2541 3840 2541 3450 
Q 2541 2925 1946 2566 
Q 2298 2413 2477 2227 
Q 2758 1914 2758 1402 
Q 2758 890 2464 506 
Q 2246 211 1840 60 
Q 1434 -90 979 -90 
Q 262 -90 262 275 
Q 262 378 339 442 
Q 416 506 525 506 
Q 685 506 915 339 
Q 1197 141 1466 141 
Q 1818 141 2058 425 
Q 2298 710 2298 1120 
Q 2298 1856 1632 2048 
Q 1434 2112 979 2112 
L 979 2202 
Q 1338 2323 1517 2432 
Q 2035 2726 2035 3290 
Q 2035 3610 1852 3776 
Q 1670 3942 1344 3942 
Q 768 3942 390 3264 
z
" transform="scale(0.015625)"/>
       </defs>
       <use xlink:href="#STIXGeneral-Regular-31"/>
       <use xlink:href="#STIXGeneral-Regular-33" transform="translate(49.999985 0)"/>
       <use xlink:href="#STIXGeneral-Regular-30" transform="translate(99.999969 0)"/>
      </g>
     </g>
    </g>
    <g id="text_5">
     <!-- in % of DQN -->
     <g transform="translate(195.414724 301.025469) scale(0.22 -0.22)">
      <defs>
       <path id="STIXGeneral-Regular-69" d="M 1152 4045 
Q 1152 3904 1056 3811 
Q 960 3718 819 3718 
Q 685 3718 592 3811 
Q 499 3904 499 4045 
Q 499 4179 595 4275 
Q 691 4371 826 4371 
Q 966 4371 1059 4275 
Q 1152 4179 1152 4045 
z
M 1619 0 
L 102 0 
L 102 96 
Q 435 115 521 211 
Q 608 307 608 666 
L 608 2118 
Q 608 2342 563 2432 
Q 518 2522 397 2522 
Q 243 2522 128 2490 
L 128 2592 
L 1120 2944 
L 1146 2918 
L 1146 672 
Q 1146 314 1226 218 
Q 1306 122 1619 96 
L 1619 0 
z
" transform="scale(0.015625)"/>
       <path id="STIXGeneral-Regular-6e" d="M 3104 0 
L 1773 0 
L 1779 96 
Q 2016 115 2096 233 
Q 2176 352 2176 672 
L 2176 1946 
Q 2176 2592 1709 2592 
Q 1549 2592 1408 2515 
Q 1267 2438 1050 2227 
L 1050 461 
Q 1050 269 1136 192 
Q 1222 115 1466 96 
L 1466 0 
L 115 0 
L 115 96 
Q 358 115 435 214 
Q 512 314 512 602 
L 512 2157 
Q 512 2394 467 2483 
Q 422 2573 288 2573 
Q 160 2573 102 2547 
L 102 2656 
Q 550 2784 979 2944 
L 1030 2925 
L 1030 2426 
L 1037 2426 
Q 1491 2944 1958 2944 
Q 2323 2944 2518 2688 
Q 2714 2432 2714 1958 
L 2714 544 
Q 2714 288 2790 205 
Q 2867 122 3104 96 
L 3104 0 
z
" transform="scale(0.015625)"/>
       <path id="STIXGeneral-Regular-20" transform="scale(0.015625)"/>
       <path id="STIXGeneral-Regular-25" d="M 4390 1363 
Q 4390 781 4070 329 
Q 3750 -122 3341 -122 
Q 3014 -122 2790 134 
Q 2566 390 2566 762 
Q 2566 1274 2940 1693 
Q 3315 2112 3776 2112 
Q 4070 2112 4230 1917 
Q 4390 1722 4390 1363 
z
M 4243 1376 
Q 4243 1626 4131 1779 
Q 4019 1933 3840 1933 
Q 3654 1933 3526 1786 
Q 3315 1562 3171 1187 
Q 3027 813 3027 486 
Q 3027 301 3129 176 
Q 3232 51 3386 51 
Q 3718 51 3980 457 
Q 4243 864 4243 1376 
z
M 3974 4518 
L 1222 -115 
L 922 -115 
L 3443 4096 
Q 3264 3891 3094 3811 
Q 2925 3731 2669 3731 
Q 2445 3731 2182 3821 
Q 2208 3674 2208 3539 
Q 2208 3206 2067 2873 
Q 1926 2541 1696 2323 
Q 1453 2086 1146 2086 
Q 826 2086 608 2339 
Q 390 2592 390 2963 
Q 390 3507 761 3916 
Q 1133 4326 1626 4326 
Q 1792 4326 2010 4147 
Q 2310 3898 2624 3898 
Q 2918 3898 3084 3994 
Q 3251 4090 3693 4518 
L 3974 4518 
z
M 2054 3642 
Q 2054 3782 2025 3833 
Q 1997 3885 1894 3936 
Q 1747 4006 1613 4154 
Q 1414 4058 1331 3984 
Q 1248 3910 1152 3750 
Q 845 3264 845 2707 
Q 845 2509 944 2384 
Q 1043 2259 1210 2259 
Q 1549 2259 1801 2675 
Q 2054 3091 2054 3642 
z
" transform="scale(0.015625)"/>
       <path id="STIXGeneral-Regular-6f" d="M 3008 1478 
Q 3008 806 2608 371 
Q 2208 -64 1568 -64 
Q 979 -64 582 368 
Q 186 800 186 1459 
Q 186 2125 582 2534 
Q 979 2944 1626 2944 
Q 2221 2944 2614 2537 
Q 3008 2131 3008 1478 
z
M 2432 1306 
Q 2432 2035 2112 2445 
Q 1856 2765 1504 2765 
Q 1171 2765 966 2493 
Q 762 2221 762 1747 
Q 762 928 1101 435 
Q 1318 115 1677 115 
Q 2029 115 2230 432 
Q 2432 749 2432 1306 
z
" transform="scale(0.015625)"/>
       <path id="STIXGeneral-Regular-66" d="M 134 2880 
L 659 2880 
Q 666 3264 710 3478 
Q 755 3693 883 3910 
Q 1152 4371 1786 4371 
Q 2074 4371 2262 4259 
Q 2451 4147 2451 3974 
Q 2451 3866 2374 3789 
Q 2298 3712 2182 3712 
Q 2029 3712 1894 3942 
Q 1741 4192 1555 4192 
Q 1197 4192 1197 3622 
L 1197 2880 
L 1978 2880 
L 1978 2675 
L 1197 2675 
L 1197 666 
Q 1197 307 1299 208 
Q 1402 109 1792 96 
L 1792 0 
L 128 0 
L 128 96 
Q 474 115 566 214 
Q 659 314 659 666 
L 659 2675 
L 134 2675 
L 134 2880 
z
" transform="scale(0.015625)"/>
       <path id="STIXGeneral-Regular-44" d="M 102 4237 
L 1830 4237 
Q 3078 4237 3750 3654 
Q 4384 3110 4384 2138 
Q 4384 966 3514 410 
Q 2880 0 1901 0 
L 102 0 
L 102 122 
Q 474 147 570 252 
Q 666 358 666 736 
L 666 3520 
Q 666 3891 570 3990 
Q 474 4090 102 4115 
L 102 4237 
z
M 1318 3731 
L 1318 538 
Q 1318 365 1379 301 
Q 1440 237 1626 237 
Q 2125 237 2432 307 
Q 2739 378 3021 570 
Q 3686 1018 3686 2099 
Q 3686 3027 3078 3558 
Q 2803 3802 2476 3901 
Q 2150 4000 1658 4000 
Q 1472 4000 1395 3942 
Q 1318 3885 1318 3731 
z
" transform="scale(0.015625)"/>
       <path id="STIXGeneral-Regular-51" d="M 4486 -1133 
L 4179 -1133 
Q 2586 -1133 1958 -339 
L 1696 -6 
Q 1312 128 1097 265 
Q 883 403 704 640 
Q 218 1286 218 2125 
Q 218 3123 806 3724 
Q 1395 4326 2310 4326 
Q 3232 4326 3817 3721 
Q 4403 3117 4403 2131 
Q 4403 1568 4236 1158 
Q 4070 749 3712 410 
Q 3514 211 3293 115 
Q 3072 19 2726 -45 
Q 3066 -531 3491 -758 
Q 3917 -986 4486 -1018 
L 4486 -1133 
z
M 3674 2163 
Q 3674 2714 3520 3146 
Q 3366 3578 3091 3808 
Q 2746 4096 2291 4096 
Q 1741 4096 1370 3642 
Q 1178 3418 1062 3008 
Q 947 2598 947 2144 
Q 947 1158 1318 640 
Q 1472 416 1750 278 
Q 2029 141 2310 141 
Q 2867 141 3264 602 
Q 3456 819 3565 1248 
Q 3674 1677 3674 2163 
z
" transform="scale(0.015625)"/>
       <path id="STIXGeneral-Regular-4e" d="M 4525 4237 
L 4525 4115 
Q 4198 4083 4102 4000 
Q 4000 3910 3958 3756 
Q 3917 3603 3917 3245 
L 3917 -70 
L 3802 -70 
L 979 3443 
L 979 960 
Q 979 474 1088 323 
Q 1197 173 1574 122 
L 1574 0 
L 77 0 
L 77 122 
Q 474 166 586 310 
Q 698 454 698 960 
L 698 3776 
Q 531 3981 416 4048 
Q 301 4115 77 4115 
L 77 4237 
L 1165 4237 
L 3635 1146 
L 3635 3322 
Q 3635 3808 3514 3949 
Q 3437 4032 3344 4061 
Q 3251 4090 3008 4115 
L 3008 4237 
L 4525 4237 
z
" transform="scale(0.015625)"/>
      </defs>
      <use xlink:href="#STIXGeneral-Regular-69"/>
      <use xlink:href="#STIXGeneral-Regular-6e" transform="translate(27.799988 0)"/>
      <use xlink:href="#STIXGeneral-Regular-20" transform="translate(77.799973 0)"/>
      <use xlink:href="#STIXGeneral-Regular-25" transform="translate(102.799957 0)"/>
      <use xlink:href="#STIXGeneral-Regular-20" transform="translate(177.499939 0)"/>
      <use xlink:href="#STIXGeneral-Regular-6f" transform="translate(202.499924 0)"/>
      <use xlink:href="#STIXGeneral-Regular-66" transform="translate(252.499908 0)"/>
      <use xlink:href="#STIXGeneral-Regular-20" transform="translate(285.799896 0)"/>
      <use xlink:href="#STIXGeneral-Regular-44" transform="translate(310.799881 0)"/>
      <use xlink:href="#STIXGeneral-Regular-51" transform="translate(382.999863 0)"/>
      <use xlink:href="#STIXGeneral-Regular-4e" transform="translate(455.199844 0)"/>
     </g>
    </g>
   </g>
   <g id="matplotlib.axis_2">
    <g id="ytick_1">
     <g id="line2d_9">
      <path d="M 105.723529 226.520156 
L 401.135294 226.520156 
" clip-path="url(#p3944d42f2d)" style="fill: none; stroke: #b0b0b0; stroke-width: 0.8; stroke-linecap: square"/>
     </g>
     <g id="line2d_10">
      <defs>
       <path id="m104a2e394e" d="M 0 0 
L -3.5 0 
" style="stroke: #000000; stroke-width: 0.8"/>
      </defs>
      <g>
       <use xlink:href="#m104a2e394e" x="105.723529" y="226.520156" style="stroke: #000000; stroke-width: 0.8"/>
      </g>
     </g>
     <g id="text_6">
      <!-- DQN -->
      <g transform="translate(59.733842 232.666875) scale(0.18 -0.18)">
       <use xlink:href="#STIXGeneral-Regular-44"/>
       <use xlink:href="#STIXGeneral-Regular-51" transform="translate(72.199982 0)"/>
       <use xlink:href="#STIXGeneral-Regular-4e" transform="translate(144.399963 0)"/>
      </g>
     </g>
    </g>
    <g id="ytick_2">
     <g id="line2d_11">
      <path d="M 105.723529 170.520156 
L 401.135294 170.520156 
" clip-path="url(#p3944d42f2d)" style="fill: none; stroke: #b0b0b0; stroke-width: 0.8; stroke-linecap: square"/>
     </g>
     <g id="line2d_12">
      <g>
       <use xlink:href="#m104a2e394e" x="105.723529" y="170.520156" style="stroke: #000000; stroke-width: 0.8"/>
      </g>
     </g>
     <g id="text_7">
      <!-- MINTO -->
      <g transform="translate(39.736967 176.666875) scale(0.18 -0.18)">
       <defs>
        <path id="STIXGeneral-Regular-4d" d="M 5530 0 
L 3738 0 
L 3738 122 
Q 4115 147 4214 265 
Q 4314 384 4314 787 
L 4314 3661 
L 2682 0 
L 2592 0 
L 979 3514 
L 979 966 
Q 979 448 1088 294 
Q 1197 141 1574 122 
L 1574 0 
L 77 0 
L 77 122 
Q 358 141 480 205 
Q 602 269 650 432 
Q 698 595 698 966 
L 698 3514 
Q 698 3878 589 3984 
Q 480 4090 90 4115 
L 90 4237 
L 1357 4237 
L 2835 1024 
L 4250 4237 
L 5523 4237 
L 5523 4115 
Q 5178 4109 5072 3993 
Q 4966 3878 4966 3520 
L 4966 717 
Q 4966 378 5072 262 
Q 5178 147 5530 122 
L 5530 0 
z
" transform="scale(0.015625)"/>
        <path id="STIXGeneral-Regular-49" d="M 2016 0 
L 115 0 
L 115 122 
Q 518 134 627 240 
Q 736 346 736 717 
L 736 3526 
Q 736 3898 633 3994 
Q 531 4090 115 4115 
L 115 4237 
L 2016 4237 
L 2016 4115 
Q 1613 4096 1501 3993 
Q 1389 3891 1389 3526 
L 1389 717 
Q 1389 358 1504 246 
Q 1619 134 2016 122 
L 2016 0 
z
" transform="scale(0.015625)"/>
        <path id="STIXGeneral-Regular-54" d="M 3795 3149 
L 3642 3149 
Q 3539 3674 3353 3821 
Q 3168 3968 2656 3968 
L 2278 3968 
L 2278 710 
Q 2278 346 2387 243 
Q 2496 141 2893 122 
L 2893 0 
L 1024 0 
L 1024 122 
Q 1427 147 1526 256 
Q 1626 365 1626 787 
L 1626 3968 
L 1242 3968 
Q 723 3968 540 3817 
Q 358 3667 262 3149 
L 109 3149 
L 154 4237 
L 3750 4237 
L 3795 3149 
z
" transform="scale(0.015625)"/>
        <path id="STIXGeneral-Regular-4f" d="M 4403 2118 
Q 4403 1133 3820 521 
Q 3238 -90 2310 -90 
Q 1376 -90 797 524 
Q 218 1139 218 2138 
Q 218 3110 797 3718 
Q 1376 4326 2310 4326 
Q 3245 4326 3824 3702 
Q 4403 3078 4403 2118 
z
M 3674 2157 
Q 3674 2701 3520 3133 
Q 3366 3565 3091 3795 
Q 2733 4096 2304 4096 
Q 1760 4096 1389 3667 
Q 1184 3437 1065 3011 
Q 947 2586 947 2125 
Q 947 960 1523 429 
Q 1837 141 2317 141 
Q 2816 141 3142 448 
Q 3674 960 3674 2157 
z
" transform="scale(0.015625)"/>
       </defs>
       <use xlink:href="#STIXGeneral-Regular-4d"/>
       <use xlink:href="#STIXGeneral-Regular-49" transform="translate(88.899994 0)"/>
       <use xlink:href="#STIXGeneral-Regular-4e" transform="translate(122.199982 0)"/>
       <use xlink:href="#STIXGeneral-Regular-54" transform="translate(194.399963 0)"/>
       <use xlink:href="#STIXGeneral-Regular-4f" transform="translate(255.499954 0)"/>
      </g>
     </g>
    </g>
    <g id="ytick_3">
     <g id="line2d_13">
      <path d="M 105.723529 114.520156 
L 401.135294 114.520156 
" clip-path="url(#p3944d42f2d)" style="fill: none; stroke: #b0b0b0; stroke-width: 0.8; stroke-linecap: square"/>
     </g>
     <g id="line2d_14">
      <g>
       <use xlink:href="#m104a2e394e" x="105.723529" y="114.520156" style="stroke: #000000; stroke-width: 0.8"/>
      </g>
     </g>
     <g id="text_8">
      <!-- DQN -->
      <g transform="translate(59.733842 120.666875) scale(0.18 -0.18)">
       <use xlink:href="#STIXGeneral-Regular-44"/>
       <use xlink:href="#STIXGeneral-Regular-51" transform="translate(72.199982 0)"/>
       <use xlink:href="#STIXGeneral-Regular-4e" transform="translate(144.399963 0)"/>
      </g>
     </g>
    </g>
    <g id="ytick_4">
     <g id="line2d_15">
      <path d="M 105.723529 58.520156 
L 401.135294 58.520156 
" clip-path="url(#p3944d42f2d)" style="fill: none; stroke: #b0b0b0; stroke-width: 0.8; stroke-linecap: square"/>
     </g>
     <g id="line2d_16">
      <g>
       <use xlink:href="#m104a2e394e" x="105.723529" y="58.520156" style="stroke: #000000; stroke-width: 0.8"/>
      </g>
     </g>
     <g id="text_9">
      <!-- MINTO -->
      <g transform="translate(39.736967 64.666875) scale(0.18 -0.18)">
       <use xlink:href="#STIXGeneral-Regular-4d"/>
       <use xlink:href="#STIXGeneral-Regular-49" transform="translate(88.899994 0)"/>
       <use xlink:href="#STIXGeneral-Regular-4e" transform="translate(122.199982 0)"/>
       <use xlink:href="#STIXGeneral-Regular-54" transform="translate(194.399963 0)"/>
       <use xlink:href="#STIXGeneral-Regular-4f" transform="translate(255.499954 0)"/>
      </g>
     </g>
    </g>
   </g>
   <g id="patch_3">
    <path d="M 136.246895 243.320156 
L 148.97898 243.320156 
L 148.97898 209.720156 
L 136.246895 209.720156 
z
" clip-path="url(#p3944d42f2d)" style="fill: #1f77b4; opacity: 0.7"/>
   </g>
   <g id="patch_4">
    <path d="M 263.336061 187.320156 
L 275.953962 187.320156 
L 275.953962 153.720156 
L 263.336061 153.720156 
z
" clip-path="url(#p3944d42f2d)" style="fill: #ce1126; opacity: 0.7"/>
   </g>
   <g id="patch_5">
    <path d="M 125.934496 131.320156 
L 161.141351 131.320156 
L 161.141351 97.720156 
L 125.934496 97.720156 
z
" clip-path="url(#p3944d42f2d)" style="fill: #1f77b4; opacity: 0.7"/>
   </g>
   <g id="patch_6">
    <path d="M 285.789907 75.320156 
L 355.867616 75.320156 
L 355.867616 41.720156 
L 285.789907 41.720156 
z
" clip-path="url(#p3944d42f2d)" style="fill: #ce1126; opacity: 0.7"/>
   </g>
   <g id="line2d_17">
    <path d="M 2.329412 142.520156 
L 401.135294 142.520156 
" style="fill: none; stroke-dasharray: 11.1,4.8; stroke-dashoffset: 0; stroke: #000000; stroke-width: 3"/>
   </g>
   <g id="patch_7">
    <path d="M 105.723529 253.400156 
L 105.723529 31.640156 
" style="fill: none; stroke: #000000; stroke-width: 0.8; stroke-linejoin: miter; stroke-linecap: square"/>
   </g>
   <g id="patch_8">
    <path d="M 401.135294 253.400156 
L 401.135294 31.640156 
" style="fill: none; stroke: #000000; stroke-width: 0.8; stroke-linejoin: miter; stroke-linecap: square"/>
   </g>
   <g id="patch_9">
    <path d="M 105.723529 253.400156 
L 401.135294 253.400156 
" style="fill: none; stroke: #000000; stroke-width: 0.8; stroke-linejoin: miter; stroke-linecap: square"/>
   </g>
   <g id="patch_10">
    <path d="M 105.723529 31.640156 
L 401.135294 31.640156 
" style="fill: none; stroke: #000000; stroke-width: 0.8; stroke-linejoin: miter; stroke-linecap: square"/>
   </g>
   <g id="LineCollection_1">
    <path d="M 142.65 243.320156 
L 142.65 209.720156 
" clip-path="url(#p3944d42f2d)" style="fill: none; stroke: #000000; stroke-width: 3"/>
   </g>
   <g id="LineCollection_2">
    <path d="M 269.748776 187.320156 
L 269.748776 153.720156 
" clip-path="url(#p3944d42f2d)" style="fill: none; stroke: #000000; stroke-width: 3"/>
   </g>
   <g id="LineCollection_3">
    <path d="M 142.65 131.320156 
L 142.65 97.720156 
" clip-path="url(#p3944d42f2d)" style="fill: none; stroke: #000000; stroke-width: 3"/>
   </g>
   <g id="LineCollection_4">
    <path d="M 318.455829 75.320156 
L 318.455829 41.720156 
" clip-path="url(#p3944d42f2d)" style="fill: none; stroke: #000000; stroke-width: 3"/>
   </g>
   <g id="text_10">
    <!-- CNN -->
    <g transform="translate(22.225313 221.182188) rotate(-90) scale(0.22 -0.22)">
     <defs>
      <path id="STIXGeneral-Regular-43" d="M 3930 838 
L 4051 723 
Q 3482 -90 2304 -90 
Q 1376 -90 794 480 
Q 179 1082 179 2080 
Q 179 3014 755 3661 
Q 1357 4326 2310 4326 
Q 2720 4326 3072 4230 
Q 3475 4115 3514 4115 
Q 3725 4115 3782 4326 
L 3910 4326 
L 3968 2874 
L 3821 2874 
Q 3718 3334 3488 3584 
Q 3034 4070 2458 4070 
Q 1747 4070 1334 3548 
Q 922 3027 922 2182 
Q 922 1152 1382 653 
Q 1811 192 2522 192 
Q 2944 192 3251 339 
Q 3558 486 3930 838 
z
" transform="scale(0.015625)"/>
     </defs>
     <use xlink:href="#STIXGeneral-Regular-43"/>
     <use xlink:href="#STIXGeneral-Regular-4e" transform="translate(66.699997 0)"/>
     <use xlink:href="#STIXGeneral-Regular-4e" transform="translate(138.899979 0)"/>
    </g>
   </g>
   <g id="text_11">
    <!-- IMPALA -->
    <g transform="translate(22.225313 129.254844) rotate(-90) scale(0.22 -0.22)">
     <defs>
      <path id="STIXGeneral-Regular-50" d="M 102 4237 
L 1760 4237 
Q 2669 4237 3149 3834 
Q 3469 3565 3469 3072 
Q 3469 2560 3104 2234 
Q 2835 1990 2553 1916 
Q 2272 1843 1734 1843 
Q 1549 1843 1293 1862 
L 1293 717 
Q 1293 352 1398 246 
Q 1504 141 1894 122 
L 1894 0 
L 102 0 
L 102 122 
Q 474 147 557 256 
Q 640 365 640 781 
L 640 3526 
Q 640 3885 547 3987 
Q 454 4090 102 4115 
L 102 4237 
z
M 1293 3770 
L 1293 2118 
Q 1510 2099 1683 2099 
Q 2202 2099 2486 2352 
Q 2771 2605 2771 3040 
Q 2771 3558 2476 3779 
Q 2182 4000 1517 4000 
Q 1382 4000 1337 3952 
Q 1293 3904 1293 3770 
z
" transform="scale(0.015625)"/>
      <path id="STIXGeneral-Regular-41" d="M 4525 0 
L 2893 0 
L 2893 122 
Q 3149 122 3245 179 
Q 3334 224 3334 333 
Q 3334 499 3213 781 
L 2950 1382 
L 1274 1382 
L 979 653 
Q 922 506 922 384 
Q 922 237 1027 179 
Q 1133 122 1370 122 
L 1370 0 
L 96 0 
L 96 122 
Q 365 147 486 316 
Q 608 486 902 1190 
L 2221 4314 
L 2349 4314 
L 3923 710 
Q 4064 378 4176 262 
Q 4288 147 4525 122 
L 4525 0 
z
M 2861 1645 
L 2118 3405 
L 1382 1645 
L 2861 1645 
z
" transform="scale(0.015625)"/>
      <path id="STIXGeneral-Regular-4c" d="M 3827 1114 
L 3520 0 
L 77 0 
L 77 122 
Q 429 141 531 256 
Q 634 371 634 736 
L 634 3494 
Q 634 3872 541 3981 
Q 448 4090 77 4115 
L 77 4237 
L 1888 4237 
L 1888 4115 
Q 1498 4090 1392 3984 
Q 1286 3878 1286 3507 
L 1286 538 
Q 1286 358 1398 304 
Q 1510 250 1862 250 
L 2310 250 
Q 3085 250 3392 640 
Q 3520 813 3661 1114 
L 3827 1114 
z
" transform="scale(0.015625)"/>
     </defs>
     <use xlink:href="#STIXGeneral-Regular-49"/>
     <use xlink:href="#STIXGeneral-Regular-4d" transform="translate(33.299988 0)"/>
     <use xlink:href="#STIXGeneral-Regular-50" transform="translate(122.199982 0)"/>
     <use xlink:href="#STIXGeneral-Regular-41" transform="translate(177.899979 0)"/>
     <use xlink:href="#STIXGeneral-Regular-4c" transform="translate(250.09996 0)"/>
     <use xlink:href="#STIXGeneral-Regular-41" transform="translate(311.199951 0)"/>
    </g>
   </g>
   <g id="text_12">
    <!-- Area Under the Curve -->
    <g transform="translate(116.117909 25.640156) scale(0.27 -0.27)">
     <defs>
      <path id="STIXGeneral-Regular-72" d="M 1024 2931 
L 1024 2342 
Q 1267 2688 1430 2816 
Q 1594 2944 1792 2944 
Q 1958 2944 2051 2854 
Q 2144 2765 2144 2605 
Q 2144 2470 2077 2393 
Q 2010 2317 1894 2317 
Q 1773 2317 1638 2445 
Q 1536 2541 1472 2541 
Q 1338 2541 1181 2355 
Q 1024 2170 1024 2016 
L 1024 576 
Q 1024 301 1133 205 
Q 1242 109 1568 96 
L 1568 0 
L 32 0 
L 32 96 
Q 339 154 412 224 
Q 486 294 486 538 
L 486 2138 
Q 486 2349 438 2435 
Q 390 2522 269 2522 
Q 166 2522 45 2496 
L 45 2598 
Q 448 2726 992 2944 
L 1024 2931 
z
" transform="scale(0.015625)"/>
      <path id="STIXGeneral-Regular-65" d="M 2611 1050 
L 2714 1005 
Q 2330 -64 1376 -64 
Q 813 -64 486 329 
Q 160 723 160 1389 
Q 160 2074 525 2509 
Q 890 2944 1485 2944 
Q 2061 2944 2374 2502 
Q 2560 2246 2592 1773 
L 621 1773 
Q 646 1370 700 1158 
Q 755 947 915 730 
Q 1184 378 1626 378 
Q 1939 378 2153 531 
Q 2368 685 2611 1050 
z
M 634 1978 
L 1939 1978 
Q 1882 2381 1750 2547 
Q 1619 2714 1312 2714 
Q 1043 2714 864 2525 
Q 685 2336 634 1978 
z
" transform="scale(0.015625)"/>
      <path id="STIXGeneral-Regular-61" d="M 2829 422 
L 2829 243 
Q 2586 -64 2253 -64 
Q 1888 -64 1843 403 
L 1837 403 
Q 1427 -64 909 -64 
Q 608 -64 422 112 
Q 237 288 237 602 
Q 237 1050 685 1350 
Q 992 1555 1837 1869 
L 1837 2214 
Q 1837 2502 1699 2646 
Q 1562 2790 1338 2790 
Q 1146 2790 1018 2697 
Q 890 2605 890 2477 
Q 890 2419 909 2348 
Q 928 2278 928 2208 
Q 928 2112 841 2029 
Q 755 1946 634 1946 
Q 525 1946 441 2029 
Q 358 2112 358 2240 
Q 358 2547 685 2752 
Q 986 2944 1421 2944 
Q 1939 2944 2176 2656 
Q 2291 2522 2323 2384 
Q 2355 2246 2355 1946 
L 2355 723 
Q 2355 301 2554 301 
Q 2682 301 2829 422 
z
M 1837 813 
L 1837 1715 
Q 1248 1510 1018 1293 
Q 800 1094 800 800 
Q 800 557 921 432 
Q 1043 307 1242 307 
Q 1453 307 1613 410 
Q 1747 506 1792 589 
Q 1837 672 1837 813 
z
" transform="scale(0.015625)"/>
      <path id="STIXGeneral-Regular-55" d="M 4512 4237 
L 4512 4115 
Q 4122 4077 4016 3926 
Q 3910 3776 3910 3302 
L 3910 1670 
Q 3910 1178 3840 896 
Q 3770 614 3565 378 
Q 3155 -90 2272 -90 
Q 1574 -90 1184 205 
Q 666 589 666 1594 
L 666 3578 
Q 666 3898 566 3994 
Q 467 4090 90 4115 
L 90 4237 
L 1901 4237 
L 1901 4115 
Q 1517 4083 1417 3977 
Q 1318 3872 1318 3514 
L 1318 1517 
Q 1318 1101 1369 877 
Q 1421 653 1600 480 
Q 1901 192 2419 192 
Q 3066 192 3392 570 
Q 3539 749 3584 963 
Q 3629 1178 3629 1600 
L 3629 3283 
Q 3629 3782 3520 3936 
Q 3411 4090 3027 4115 
L 3027 4237 
L 4512 4237 
z
" transform="scale(0.015625)"/>
      <path id="STIXGeneral-Regular-64" d="M 3142 269 
L 2202 -64 
L 2176 -45 
L 2176 365 
Q 1869 -64 1357 -64 
Q 826 -64 499 317 
Q 173 698 173 1312 
Q 173 1990 563 2467 
Q 954 2944 1504 2944 
Q 1850 2944 2176 2669 
L 2176 3667 
Q 2176 3866 2118 3930 
Q 2061 3994 1882 3994 
Q 1792 3994 1741 3987 
L 1741 4090 
Q 2323 4243 2682 4371 
L 2714 4358 
L 2714 730 
Q 2714 506 2768 435 
Q 2822 365 2995 365 
Q 3034 365 3142 371 
L 3142 269 
z
M 2176 653 
L 2176 2125 
Q 2176 2381 1981 2573 
Q 1786 2765 1523 2765 
Q 1158 2765 940 2438 
Q 723 2112 723 1568 
Q 723 979 963 624 
Q 1203 269 1606 269 
Q 1907 269 2080 474 
Q 2176 582 2176 653 
z
" transform="scale(0.015625)"/>
      <path id="STIXGeneral-Regular-74" d="M 1702 493 
L 1786 422 
Q 1478 -64 1011 -64 
Q 448 -64 448 749 
L 448 2675 
L 109 2675 
Q 83 2694 83 2720 
Q 83 2771 192 2842 
Q 435 2982 813 3526 
Q 826 3546 874 3606 
Q 922 3667 941 3706 
Q 986 3706 986 3622 
L 986 2880 
L 1632 2880 
L 1632 2675 
L 986 2675 
L 986 845 
Q 986 538 1062 403 
Q 1139 269 1318 269 
Q 1510 269 1702 493 
z
" transform="scale(0.015625)"/>
      <path id="STIXGeneral-Regular-68" d="M 3117 0 
L 1760 0 
L 1760 96 
Q 2042 128 2118 224 
Q 2195 320 2195 653 
L 2195 1920 
Q 2195 2598 1722 2598 
Q 1530 2598 1370 2508 
Q 1210 2419 1005 2195 
L 1005 653 
Q 1005 320 1081 224 
Q 1158 128 1440 96 
L 1440 0 
L 58 0 
L 58 96 
Q 333 134 400 224 
Q 467 314 467 653 
L 467 3667 
Q 467 3872 406 3933 
Q 346 3994 141 3994 
Q 83 3994 64 3987 
L 64 4090 
L 237 4141 
Q 730 4288 973 4371 
L 1005 4352 
L 1005 2406 
Q 1229 2694 1446 2819 
Q 1664 2944 1946 2944 
Q 2733 2944 2733 1926 
L 2733 653 
Q 2733 320 2793 233 
Q 2854 147 3117 96 
L 3117 0 
z
" transform="scale(0.015625)"/>
      <path id="STIXGeneral-Regular-75" d="M 3072 320 
L 3072 230 
Q 2573 96 2195 -58 
L 2163 -38 
L 2163 486 
L 2150 486 
Q 1747 -64 1235 -64 
Q 870 -64 662 160 
Q 454 384 454 755 
L 454 2362 
Q 454 2598 371 2688 
Q 288 2778 58 2790 
L 58 2880 
L 992 2880 
L 992 813 
Q 992 595 1123 451 
Q 1254 307 1446 307 
Q 1760 307 1984 506 
Q 2067 582 2099 649 
Q 2131 717 2131 877 
L 2131 2355 
Q 2131 2605 2041 2678 
Q 1952 2752 1658 2771 
L 1658 2880 
L 2669 2880 
L 2669 685 
Q 2669 461 2742 390 
Q 2816 320 3034 320 
L 3072 320 
z
" transform="scale(0.015625)"/>
      <path id="STIXGeneral-Regular-76" d="M 3053 2880 
L 3053 2784 
Q 2906 2771 2835 2688 
Q 2765 2605 2637 2285 
L 1818 230 
Q 1690 -90 1638 -90 
Q 1587 -90 1523 77 
Q 1510 96 1497 141 
Q 1485 186 1472 211 
L 704 2048 
Q 499 2534 403 2652 
Q 307 2771 122 2784 
L 122 2880 
L 1376 2880 
L 1376 2784 
Q 1210 2771 1146 2732 
Q 1082 2694 1082 2611 
Q 1082 2509 1139 2368 
L 1792 730 
L 2426 2387 
Q 2464 2483 2464 2579 
Q 2464 2758 2163 2784 
L 2163 2880 
L 3053 2880 
z
" transform="scale(0.015625)"/>
     </defs>
     <use xlink:href="#STIXGeneral-Regular-41"/>
     <use xlink:href="#STIXGeneral-Regular-72" transform="translate(72.199982 0)"/>
     <use xlink:href="#STIXGeneral-Regular-65" transform="translate(105.499969 0)"/>
     <use xlink:href="#STIXGeneral-Regular-61" transform="translate(149.899963 0)"/>
     <use xlink:href="#STIXGeneral-Regular-20" transform="translate(194.299957 0)"/>
     <use xlink:href="#STIXGeneral-Regular-55" transform="translate(219.299942 0)"/>
     <use xlink:href="#STIXGeneral-Regular-6e" transform="translate(291.499924 0)"/>
     <use xlink:href="#STIXGeneral-Regular-64" transform="translate(341.499908 0)"/>
     <use xlink:href="#STIXGeneral-Regular-65" transform="translate(391.499893 0)"/>
     <use xlink:href="#STIXGeneral-Regular-72" transform="translate(435.899887 0)"/>
     <use xlink:href="#STIXGeneral-Regular-20" transform="translate(469.199875 0)"/>
     <use xlink:href="#STIXGeneral-Regular-74" transform="translate(494.19986 0)"/>
     <use xlink:href="#STIXGeneral-Regular-68" transform="translate(521.999847 0)"/>
     <use xlink:href="#STIXGeneral-Regular-65" transform="translate(571.999832 0)"/>
     <use xlink:href="#STIXGeneral-Regular-20" transform="translate(616.399826 0)"/>
     <use xlink:href="#STIXGeneral-Regular-43" transform="translate(641.399811 0)"/>
     <use xlink:href="#STIXGeneral-Regular-75" transform="translate(708.099808 0)"/>
     <use xlink:href="#STIXGeneral-Regular-72" transform="translate(758.099792 0)"/>
     <use xlink:href="#STIXGeneral-Regular-76" transform="translate(791.39978 0)"/>
     <use xlink:href="#STIXGeneral-Regular-65" transform="translate(841.399765 0)"/>
    </g>
   </g>
  </g>
  <g id="axes_2">
   <g id="patch_11">
    <path d="M 460.217647 253.400156 
L 755.629412 253.400156 
L 755.629412 31.640156 
L 460.217647 31.640156 
z
" style="fill: #ffffff"/>
   </g>
   <g id="FillBetweenPolyCollection_1">
    <defs>
     <path id="m8a35070006" d="M 460.217647 -85.555619 
L 460.217647 -83.881474 
L 463.201604 -89.547651 
L 466.185561 -93.733301 
L 469.169519 -97.751145 
L 472.153476 -101.679572 
L 475.137433 -105.608789 
L 478.12139 -113.763749 
L 481.105348 -122.11173 
L 484.089305 -129.255362 
L 487.073262 -135.569731 
L 490.057219 -141.459313 
L 493.041176 -146.559753 
L 496.025134 -151.809842 
L 499.009091 -156.181314 
L 501.993048 -160.418452 
L 504.977005 -163.830446 
L 507.960963 -166.541569 
L 510.94492 -168.955954 
L 513.928877 -170.815316 
L 516.912834 -172.638965 
L 519.896791 -174.111768 
L 522.880749 -175.569522 
L 525.864706 -176.83276 
L 528.848663 -178.376629 
L 531.83262 -179.778558 
L 534.816578 -181.432459 
L 537.800535 -182.723389 
L 540.784492 -184.266773 
L 543.768449 -186.222713 
L 546.752406 -187.690955 
L 549.736364 -189.079932 
L 552.720321 -190.527513 
L 555.704278 -191.836132 
L 558.688235 -192.899508 
L 561.672193 -194.053833 
L 564.65615 -194.710645 
L 567.640107 -195.605841 
L 570.624064 -196.314682 
L 573.608021 -197.088953 
L 576.591979 -198.077685 
L 579.575936 -198.447328 
L 582.559893 -199.362676 
L 585.54385 -200.22213 
L 588.527807 -200.724872 
L 591.511765 -201.125091 
L 594.495722 -202.124601 
L 597.479679 -203.69911 
L 600.463636 -204.223989 
L 603.447594 -205.239222 
L 606.431551 -205.877733 
L 609.415508 -206.911236 
L 612.399465 -207.555184 
L 615.383422 -208.219956 
L 618.36738 -209.382791 
L 621.351337 -210.341747 
L 624.335294 -211.310113 
L 627.319251 -212.030184 
L 630.303209 -213.235512 
L 633.287166 -213.765996 
L 636.271123 -213.965628 
L 639.25508 -214.86848 
L 642.239037 -215.050091 
L 645.222995 -215.747021 
L 648.206952 -216.760854 
L 651.190909 -217.074283 
L 654.174866 -217.866248 
L 657.158824 -218.059362 
L 660.142781 -218.261452 
L 663.126738 -218.791104 
L 666.110695 -219.128249 
L 669.094652 -219.486294 
L 672.07861 -220.041065 
L 675.062567 -220.670753 
L 678.046524 -220.998504 
L 681.030481 -221.469967 
L 684.014439 -221.453731 
L 686.998396 -221.836552 
L 689.982353 -222.765168 
L 692.96631 -223.536652 
L 695.950267 -224.299235 
L 698.934225 -225.020765 
L 701.918182 -225.851499 
L 704.902139 -226.811272 
L 707.886096 -227.929209 
L 710.870053 -228.398896 
L 713.854011 -229.238163 
L 716.837968 -229.777232 
L 719.821925 -229.920826 
L 722.805882 -230.934941 
L 725.78984 -231.394624 
L 728.773797 -231.77745 
L 731.757754 -231.999906 
L 734.741711 -232.391066 
L 737.725668 -232.284058 
L 740.709626 -233.12165 
L 743.693583 -233.786955 
L 746.67754 -234.096336 
L 749.661497 -234.388883 
L 752.645455 -234.224763 
L 755.629412 -234.525188 
L 755.629412 -239.687958 
L 755.629412 -239.687958 
L 752.645455 -238.99884 
L 749.661497 -239.00112 
L 746.67754 -238.342983 
L 743.693583 -238.140946 
L 740.709626 -237.226092 
L 737.725668 -236.254356 
L 734.741711 -236.638888 
L 731.757754 -236.154263 
L 728.773797 -235.635594 
L 725.78984 -234.859833 
L 722.805882 -234.370147 
L 719.821925 -233.227275 
L 716.837968 -233.291076 
L 713.854011 -232.316827 
L 710.870053 -231.453163 
L 707.886096 -231.045855 
L 704.902139 -230.462681 
L 701.918182 -229.696445 
L 698.934225 -229.133492 
L 695.950267 -228.473988 
L 692.96631 -228.03952 
L 689.982353 -227.519345 
L 686.998396 -226.78024 
L 684.014439 -226.542178 
L 681.030481 -226.230246 
L 678.046524 -225.702053 
L 675.062567 -225.016911 
L 672.07861 -224.7742 
L 669.094652 -224.113151 
L 666.110695 -223.860969 
L 663.126738 -223.26437 
L 660.142781 -222.648251 
L 657.158824 -222.395604 
L 654.174866 -222.013521 
L 651.190909 -221.720769 
L 648.206952 -221.563101 
L 645.222995 -221.081891 
L 642.239037 -220.132983 
L 639.25508 -219.679034 
L 636.271123 -218.733591 
L 633.287166 -218.142303 
L 630.303209 -217.784023 
L 627.319251 -216.65072 
L 624.335294 -215.608888 
L 621.351337 -214.484978 
L 618.36738 -213.120737 
L 615.383422 -212.682866 
L 612.399465 -212.155891 
L 609.415508 -211.328457 
L 606.431551 -210.154692 
L 603.447594 -209.363034 
L 600.463636 -208.466191 
L 597.479679 -207.610704 
L 594.495722 -206.580744 
L 591.511765 -205.629048 
L 588.527807 -204.873804 
L 585.54385 -204.067716 
L 582.559893 -203.692667 
L 579.575936 -203.010966 
L 576.591979 -202.234817 
L 573.608021 -201.381153 
L 570.624064 -200.591755 
L 567.640107 -199.525159 
L 564.65615 -198.318749 
L 561.672193 -197.556016 
L 558.688235 -196.308231 
L 555.704278 -194.845463 
L 552.720321 -193.264121 
L 549.736364 -191.95077 
L 546.752406 -190.691625 
L 543.768449 -189.150231 
L 540.784492 -187.483789 
L 537.800535 -186.185611 
L 534.816578 -184.829285 
L 531.83262 -183.18709 
L 528.848663 -182.062128 
L 525.864706 -180.519432 
L 522.880749 -179.299811 
L 519.896791 -177.731914 
L 516.912834 -175.859141 
L 513.928877 -174.145196 
L 510.94492 -172.182646 
L 507.960963 -169.684552 
L 504.977005 -167.193336 
L 501.993048 -164.089883 
L 499.009091 -159.999649 
L 496.025134 -155.467672 
L 493.041176 -150.258498 
L 490.057219 -145.168487 
L 487.073262 -139.224929 
L 484.089305 -132.778768 
L 481.105348 -125.433851 
L 478.12139 -116.575728 
L 475.137433 -107.850889 
L 472.153476 -103.723841 
L 469.169519 -99.482705 
L 466.185561 -95.290117 
L 463.201604 -90.991505 
L 460.217647 -85.555619 
z
" style="stroke: #1f77b4; stroke-opacity: 0.3"/>
    </defs>
    <g clip-path="url(#p5a3b9adfb9)">
     <use xlink:href="#m8a35070006" x="0" y="313.000156" style="fill: #1f77b4; fill-opacity: 0.3; stroke: #1f77b4; stroke-opacity: 0.3"/>
    </g>
   </g>
   <g id="FillBetweenPolyCollection_2">
    <defs>
     <path id="m7e4ef5b82d" d="M 460.217647 -87.241104 
L 460.217647 -85.567432 
L 463.201604 -91.037542 
L 466.185561 -95.488769 
L 469.169519 -100.003504 
L 472.153476 -104.508636 
L 475.137433 -109.166464 
L 478.12139 -118.299565 
L 481.105348 -127.870265 
L 484.089305 -136.657995 
L 487.073262 -144.01813 
L 490.057219 -151.031995 
L 493.041176 -157.574286 
L 496.025134 -164.283551 
L 499.009091 -170.295565 
L 501.993048 -175.614964 
L 504.977005 -179.845882 
L 507.960963 -183.964775 
L 510.94492 -187.578778 
L 513.928877 -190.906974 
L 516.912834 -193.442476 
L 519.896791 -195.695993 
L 522.880749 -197.858891 
L 525.864706 -199.429901 
L 528.848663 -201.273965 
L 531.83262 -203.173198 
L 534.816578 -205.108224 
L 537.800535 -206.360681 
L 540.784492 -208.219858 
L 543.768449 -209.384759 
L 546.752406 -211.178216 
L 549.736364 -212.341032 
L 552.720321 -213.723041 
L 555.704278 -214.932859 
L 558.688235 -216.064938 
L 561.672193 -217.217557 
L 564.65615 -218.186396 
L 567.640107 -219.523769 
L 570.624064 -220.353246 
L 573.608021 -221.67054 
L 576.591979 -222.647062 
L 579.575936 -223.866774 
L 582.559893 -224.822154 
L 585.54385 -225.553099 
L 588.527807 -226.62836 
L 591.511765 -227.334335 
L 594.495722 -228.768706 
L 597.479679 -230.088522 
L 600.463636 -230.88286 
L 603.447594 -231.38581 
L 606.431551 -232.193445 
L 609.415508 -232.871356 
L 612.399465 -233.899135 
L 615.383422 -234.68508 
L 618.36738 -235.084567 
L 621.351337 -235.981105 
L 624.335294 -236.435319 
L 627.319251 -237.184681 
L 630.303209 -237.764218 
L 633.287166 -238.182996 
L 636.271123 -238.45478 
L 639.25508 -239.202685 
L 642.239037 -239.414789 
L 645.222995 -239.885724 
L 648.206952 -240.776039 
L 651.190909 -241.193219 
L 654.174866 -241.779176 
L 657.158824 -242.576584 
L 660.142781 -243.485167 
L 663.126738 -244.87742 
L 666.110695 -246.191537 
L 669.094652 -247.113442 
L 672.07861 -247.934496 
L 675.062567 -248.63402 
L 678.046524 -249.225314 
L 681.030481 -250.203831 
L 684.014439 -250.848293 
L 686.998396 -251.374451 
L 689.982353 -251.416426 
L 692.96631 -252.065585 
L 695.950267 -252.435351 
L 698.934225 -252.92376 
L 701.918182 -253.710215 
L 704.902139 -254.622991 
L 707.886096 -255.479552 
L 710.870053 -255.672161 
L 713.854011 -256.299714 
L 716.837968 -256.941894 
L 719.821925 -257.767421 
L 722.805882 -258.239892 
L 725.78984 -258.507943 
L 728.773797 -259.169119 
L 731.757754 -259.847126 
L 734.741711 -260.979531 
L 737.725668 -261.385591 
L 740.709626 -261.786323 
L 743.693583 -262.044457 
L 746.67754 -262.41816 
L 749.661497 -262.127554 
L 752.645455 -263.005936 
L 755.629412 -263.413369 
L 755.629412 -271.956261 
L 755.629412 -271.956261 
L 752.645455 -271.208613 
L 749.661497 -270.617866 
L 746.67754 -270.426836 
L 743.693583 -269.743496 
L 740.709626 -269.57789 
L 737.725668 -268.501641 
L 734.741711 -267.572099 
L 731.757754 -266.363751 
L 728.773797 -265.326578 
L 725.78984 -264.556838 
L 722.805882 -263.439114 
L 719.821925 -262.475421 
L 716.837968 -261.771235 
L 713.854011 -261.260298 
L 710.870053 -260.134826 
L 707.886096 -259.841288 
L 704.902139 -258.894974 
L 701.918182 -258.032917 
L 698.934225 -257.165381 
L 695.950267 -256.440909 
L 692.96631 -256.017064 
L 689.982353 -255.445395 
L 686.998396 -254.600878 
L 684.014439 -253.71177 
L 681.030481 -252.758701 
L 678.046524 -251.842829 
L 675.062567 -251.230448 
L 672.07861 -250.322218 
L 669.094652 -249.48215 
L 666.110695 -248.771692 
L 663.126738 -247.772176 
L 660.142781 -246.888217 
L 657.158824 -246.064404 
L 654.174866 -245.416177 
L 651.190909 -245.112995 
L 648.206952 -244.551157 
L 645.222995 -243.793553 
L 642.239037 -243.450082 
L 639.25508 -242.875478 
L 636.271123 -242.060735 
L 633.287166 -242.023707 
L 630.303209 -241.369699 
L 627.319251 -240.807618 
L 624.335294 -240.146504 
L 621.351337 -239.586863 
L 618.36738 -238.924577 
L 615.383422 -238.415021 
L 612.399465 -237.435581 
L 609.415508 -236.353659 
L 606.431551 -235.82039 
L 603.447594 -234.850414 
L 600.463636 -234.334082 
L 597.479679 -233.244341 
L 594.495722 -231.809254 
L 591.511765 -230.32721 
L 588.527807 -229.273367 
L 585.54385 -228.116483 
L 582.559893 -227.057315 
L 579.575936 -225.955544 
L 576.591979 -224.658177 
L 573.608021 -223.765256 
L 570.624064 -222.426738 
L 567.640107 -221.403024 
L 564.65615 -220.254885 
L 561.672193 -219.329604 
L 558.688235 -218.171851 
L 555.704278 -216.995893 
L 552.720321 -215.809325 
L 549.736364 -214.647334 
L 546.752406 -213.392518 
L 543.768449 -211.832212 
L 540.784492 -210.764569 
L 537.800535 -209.365381 
L 534.816578 -207.98042 
L 531.83262 -206.288842 
L 528.848663 -204.486188 
L 525.864706 -203.057285 
L 522.880749 -201.508723 
L 519.896791 -199.322505 
L 516.912834 -197.297096 
L 513.928877 -194.989986 
L 510.94492 -191.928786 
L 507.960963 -188.329094 
L 504.977005 -184.254079 
L 501.993048 -179.720719 
L 499.009091 -174.795882 
L 496.025134 -168.635229 
L 493.041176 -162.208302 
L 490.057219 -155.401564 
L 487.073262 -147.676804 
L 484.089305 -139.754671 
L 481.105348 -130.729993 
L 478.12139 -120.892671 
L 475.137433 -111.443799 
L 472.153476 -106.866942 
L 469.169519 -102.465881 
L 466.185561 -97.702762 
L 463.201604 -92.996331 
L 460.217647 -87.241104 
z
" style="stroke: #ce1126; stroke-opacity: 0.3"/>
    </defs>
    <g clip-path="url(#p5a3b9adfb9)">
     <use xlink:href="#m7e4ef5b82d" x="0" y="313.000156" style="fill: #ce1126; fill-opacity: 0.3; stroke: #ce1126; stroke-opacity: 0.3"/>
    </g>
   </g>
   <g id="matplotlib.axis_3">
    <g id="xtick_5">
     <g id="line2d_18">
      <path d="M 460.217647 253.400156 
L 460.217647 31.640156 
" clip-path="url(#p5a3b9adfb9)" style="fill: none; stroke: #b0b0b0; stroke-width: 0.8; stroke-linecap: square"/>
     </g>
     <g id="line2d_19">
      <g>
       <use xlink:href="#m919a3c225c" x="460.217647" y="253.400156" style="stroke: #000000; stroke-width: 0.8"/>
      </g>
     </g>
     <g id="text_13">
      <!-- 1 -->
      <g transform="translate(454.217647 276.791406) scale(0.24 -0.24)">
       <use xlink:href="#STIXGeneral-Regular-31"/>
      </g>
     </g>
    </g>
    <g id="xtick_6">
     <g id="line2d_20">
      <path d="M 516.912834 253.400156 
L 516.912834 31.640156 
" clip-path="url(#p5a3b9adfb9)" style="fill: none; stroke: #b0b0b0; stroke-width: 0.8; stroke-linecap: square"/>
     </g>
     <g id="line2d_21">
      <g>
       <use xlink:href="#m919a3c225c" x="516.912834" y="253.400156" style="stroke: #000000; stroke-width: 0.8"/>
      </g>
     </g>
     <g id="text_14">
      <!-- 20 -->
      <g transform="translate(504.912834 276.791406) scale(0.24 -0.24)">
       <use xlink:href="#STIXGeneral-Regular-32"/>
       <use xlink:href="#STIXGeneral-Regular-30" transform="translate(49.999985 0)"/>
      </g>
     </g>
    </g>
    <g id="xtick_7">
     <g id="line2d_22">
      <path d="M 576.591979 253.400156 
L 576.591979 31.640156 
" clip-path="url(#p5a3b9adfb9)" style="fill: none; stroke: #b0b0b0; stroke-width: 0.8; stroke-linecap: square"/>
     </g>
     <g id="line2d_23">
      <g>
       <use xlink:href="#m919a3c225c" x="576.591979" y="253.400156" style="stroke: #000000; stroke-width: 0.8"/>
      </g>
     </g>
     <g id="text_15">
      <!-- 40 -->
      <g transform="translate(564.591979 276.791406) scale(0.24 -0.24)">
       <defs>
        <path id="STIXGeneral-Regular-34" d="M 3027 1069 
L 2368 1069 
L 2368 0 
L 1869 0 
L 1869 1069 
L 77 1069 
L 77 1478 
L 2086 4326 
L 2368 4326 
L 2368 1478 
L 3027 1478 
L 3027 1069 
z
M 1869 1478 
L 1869 3674 
L 333 1478 
L 1869 1478 
z
" transform="scale(0.015625)"/>
       </defs>
       <use xlink:href="#STIXGeneral-Regular-34"/>
       <use xlink:href="#STIXGeneral-Regular-30" transform="translate(49.999985 0)"/>
      </g>
     </g>
    </g>
    <g id="xtick_8">
     <g id="line2d_24">
      <path d="M 636.271123 253.400156 
L 636.271123 31.640156 
" clip-path="url(#p5a3b9adfb9)" style="fill: none; stroke: #b0b0b0; stroke-width: 0.8; stroke-linecap: square"/>
     </g>
     <g id="line2d_25">
      <g>
       <use xlink:href="#m919a3c225c" x="636.271123" y="253.400156" style="stroke: #000000; stroke-width: 0.8"/>
      </g>
     </g>
     <g id="text_16">
      <!-- 60 -->
      <g transform="translate(624.271123 276.791406) scale(0.24 -0.24)">
       <defs>
        <path id="STIXGeneral-Regular-36" d="M 2854 4378 
L 2867 4275 
Q 2112 4154 1606 3664 
Q 1101 3174 973 2451 
Q 1344 2739 1786 2739 
Q 2349 2739 2672 2380 
Q 2995 2022 2995 1402 
Q 2995 774 2669 378 
Q 2291 -90 1651 -90 
Q 870 -90 518 557 
Q 218 1107 218 1786 
Q 218 2835 915 3552 
Q 1312 3962 1731 4131 
Q 2150 4301 2854 4378 
z
M 2419 1203 
Q 2419 2445 1555 2445 
Q 1235 2445 1024 2275 
Q 813 2106 813 1702 
Q 813 954 1046 522 
Q 1280 90 1722 90 
Q 2061 90 2240 394 
Q 2419 698 2419 1203 
z
" transform="scale(0.015625)"/>
       </defs>
       <use xlink:href="#STIXGeneral-Regular-36"/>
       <use xlink:href="#STIXGeneral-Regular-30" transform="translate(49.999985 0)"/>
      </g>
     </g>
    </g>
    <g id="xtick_9">
     <g id="line2d_26">
      <path d="M 695.950267 253.400156 
L 695.950267 31.640156 
" clip-path="url(#p5a3b9adfb9)" style="fill: none; stroke: #b0b0b0; stroke-width: 0.8; stroke-linecap: square"/>
     </g>
     <g id="line2d_27">
      <g>
       <use xlink:href="#m919a3c225c" x="695.950267" y="253.400156" style="stroke: #000000; stroke-width: 0.8"/>
      </g>
     </g>
     <g id="text_17">
      <!-- 80 -->
      <g transform="translate(683.950267 276.791406) scale(0.24 -0.24)">
       <defs>
        <path id="STIXGeneral-Regular-38" d="M 2848 992 
Q 2848 499 2505 204 
Q 2163 -90 1587 -90 
Q 1050 -90 704 204 
Q 358 499 358 954 
Q 358 1293 524 1533 
Q 691 1773 1190 2125 
Q 710 2522 553 2765 
Q 397 3008 397 3328 
Q 397 3782 745 4054 
Q 1094 4326 1638 4326 
Q 2106 4326 2410 4060 
Q 2714 3795 2714 3411 
Q 2714 3059 2531 2848 
Q 2349 2637 1856 2374 
Q 2432 1990 2640 1689 
Q 2848 1389 2848 992 
z
M 2272 3411 
Q 2272 3744 2086 3945 
Q 1901 4147 1574 4147 
Q 1248 4147 1059 3977 
Q 870 3808 870 3513 
Q 870 3219 1059 2979 
Q 1248 2739 1670 2490 
Q 1997 2682 2134 2896 
Q 2272 3110 2272 3411 
z
M 1734 1741 
L 1357 1997 
Q 1075 1766 960 1545 
Q 845 1325 845 1011 
Q 845 576 1065 333 
Q 1286 90 1658 90 
Q 1971 90 2166 285 
Q 2362 480 2362 794 
Q 2362 1082 2214 1299 
Q 2067 1517 1734 1741 
z
" transform="scale(0.015625)"/>
       </defs>
       <use xlink:href="#STIXGeneral-Regular-38"/>
       <use xlink:href="#STIXGeneral-Regular-30" transform="translate(49.999985 0)"/>
      </g>
     </g>
    </g>
    <g id="xtick_10">
     <g id="line2d_28">
      <path d="M 755.629412 253.400156 
L 755.629412 31.640156 
" clip-path="url(#p5a3b9adfb9)" style="fill: none; stroke: #b0b0b0; stroke-width: 0.8; stroke-linecap: square"/>
     </g>
     <g id="line2d_29">
      <g>
       <use xlink:href="#m919a3c225c" x="755.629412" y="253.400156" style="stroke: #000000; stroke-width: 0.8"/>
      </g>
     </g>
     <g id="text_18">
      <!-- 100 -->
      <g transform="translate(737.629412 276.791406) scale(0.24 -0.24)">
       <use xlink:href="#STIXGeneral-Regular-31"/>
       <use xlink:href="#STIXGeneral-Regular-30" transform="translate(49.999985 0)"/>
       <use xlink:href="#STIXGeneral-Regular-30" transform="translate(99.999969 0)"/>
      </g>
     </g>
    </g>
    <g id="text_19">
     <!-- Number of Frames (in millions) -->
     <g transform="translate(615.083787 301.025469) scale(0.22 -0.22)">
      <defs>
       <path id="STIXGeneral-Regular-6d" d="M 4960 0 
L 3565 0 
L 3565 96 
Q 3834 122 3907 208 
Q 3981 294 3981 576 
L 3981 1894 
Q 3981 2278 3869 2444 
Q 3757 2611 3488 2611 
Q 3264 2611 3107 2521 
Q 2950 2432 2803 2221 
L 2803 608 
Q 2803 301 2896 201 
Q 2989 102 3264 96 
L 3264 0 
L 1830 0 
L 1830 96 
Q 2112 115 2189 188 
Q 2266 262 2266 550 
L 2266 1901 
Q 2266 2611 1850 2611 
Q 1670 2611 1468 2531 
Q 1267 2451 1171 2336 
Q 1088 2240 1088 2227 
L 1088 448 
Q 1088 243 1177 176 
Q 1267 109 1523 96 
L 1523 0 
L 102 0 
L 102 96 
Q 371 102 460 195 
Q 550 288 550 563 
L 550 2150 
Q 550 2387 499 2480 
Q 448 2573 326 2573 
Q 230 2573 122 2547 
L 122 2656 
Q 557 2778 1011 2944 
L 1062 2925 
L 1062 2451 
L 1075 2451 
Q 1363 2752 1584 2848 
Q 1805 2944 2054 2944 
Q 2560 2944 2733 2406 
Q 3232 2944 3776 2944 
Q 4518 2944 4518 1792 
L 4518 493 
Q 4518 282 4582 202 
Q 4646 122 4794 109 
L 4960 96 
L 4960 0 
z
" transform="scale(0.015625)"/>
       <path id="STIXGeneral-Regular-62" d="M 979 4358 
L 979 2406 
Q 1082 2650 1315 2797 
Q 1549 2944 1843 2944 
Q 2349 2944 2672 2541 
Q 2995 2138 2995 1536 
Q 2995 832 2566 384 
Q 2138 -64 1498 -64 
Q 1107 -64 774 67 
Q 442 198 442 358 
L 442 3622 
Q 442 3859 384 3926 
Q 326 3994 128 3994 
Q 83 3994 19 3981 
L 19 4090 
L 211 4147 
Q 864 4346 947 4371 
L 979 4358 
z
M 979 2035 
L 979 474 
Q 979 326 1161 233 
Q 1344 141 1600 141 
Q 1978 141 2195 416 
Q 2432 710 2432 1261 
Q 2432 1888 2182 2240 
Q 1971 2541 1613 2541 
Q 1357 2541 1168 2390 
Q 979 2240 979 2035 
z
" transform="scale(0.015625)"/>
       <path id="STIXGeneral-Regular-46" d="M 3494 3322 
L 3334 3322 
Q 3264 3757 3094 3875 
Q 2925 3994 2349 3994 
L 1504 3994 
Q 1370 3994 1328 3946 
Q 1286 3898 1286 3744 
L 1286 2355 
L 2195 2355 
Q 2598 2355 2736 2470 
Q 2874 2586 2918 2963 
L 3066 2963 
L 3066 1472 
L 2918 1472 
Q 2880 1862 2745 1977 
Q 2611 2093 2195 2093 
L 1286 2093 
L 1286 717 
Q 1286 352 1392 246 
Q 1498 141 1869 122 
L 1869 0 
L 70 0 
L 70 122 
Q 435 147 534 259 
Q 634 371 634 787 
L 634 3526 
Q 634 3878 538 3984 
Q 442 4090 77 4115 
L 77 4237 
L 3462 4237 
L 3494 3322 
z
" transform="scale(0.015625)"/>
       <path id="STIXGeneral-Regular-73" d="M 998 1926 
L 1664 1523 
Q 1984 1331 2105 1164 
Q 2227 998 2227 736 
Q 2227 416 1961 176 
Q 1696 -64 1331 -64 
Q 1030 -64 864 -6 
Q 691 51 570 51 
Q 461 51 416 -26 
L 333 -26 
L 333 979 
L 435 979 
Q 538 512 730 294 
Q 922 77 1248 77 
Q 1485 77 1632 211 
Q 1779 346 1779 550 
Q 1779 845 1440 1030 
L 1094 1222 
Q 326 1651 326 2150 
Q 326 2522 566 2730 
Q 806 2938 1210 2938 
Q 1491 2938 1638 2867 
Q 1754 2816 1818 2816 
Q 1862 2816 1920 2880 
L 1990 2880 
L 2022 2010 
L 1926 2010 
Q 1818 2445 1654 2621 
Q 1491 2797 1203 2797 
Q 986 2797 854 2688 
Q 723 2579 723 2362 
Q 723 2253 796 2128 
Q 870 2003 998 1926 
z
" transform="scale(0.015625)"/>
       <path id="STIXGeneral-Regular-28" d="M 1946 -1030 
L 1869 -1133 
Q 1126 -710 716 32 
Q 307 774 307 1613 
Q 307 3386 1888 4326 
L 1946 4224 
Q 1293 3667 1075 3126 
Q 858 2586 858 1632 
Q 858 685 1082 96 
Q 1306 -493 1946 -1030 
z
" transform="scale(0.015625)"/>
       <path id="STIXGeneral-Regular-6c" d="M 1645 0 
L 134 0 
L 134 96 
Q 435 122 531 221 
Q 627 320 627 589 
L 627 3590 
Q 627 3821 569 3910 
Q 512 4000 358 4000 
Q 224 4000 122 3987 
L 122 4090 
Q 730 4237 1133 4371 
L 1165 4346 
L 1165 557 
Q 1165 288 1254 201 
Q 1344 115 1645 96 
L 1645 0 
z
" transform="scale(0.015625)"/>
       <path id="STIXGeneral-Regular-29" d="M 186 4224 
L 262 4326 
Q 992 3891 1408 3148 
Q 1824 2406 1824 1581 
Q 1824 -166 243 -1133 
L 186 -1030 
Q 845 -486 1059 54 
Q 1274 595 1274 1562 
Q 1274 2534 1059 3120 
Q 845 3706 186 4224 
z
" transform="scale(0.015625)"/>
      </defs>
      <use xlink:href="#STIXGeneral-Regular-4e"/>
      <use xlink:href="#STIXGeneral-Regular-75" transform="translate(72.199982 0)"/>
      <use xlink:href="#STIXGeneral-Regular-6d" transform="translate(122.199966 0)"/>
      <use xlink:href="#STIXGeneral-Regular-62" transform="translate(199.999954 0)"/>
      <use xlink:href="#STIXGeneral-Regular-65" transform="translate(249.999939 0)"/>
      <use xlink:href="#STIXGeneral-Regular-72" transform="translate(294.399933 0)"/>
      <use xlink:href="#STIXGeneral-Regular-20" transform="translate(327.699921 0)"/>
      <use xlink:href="#STIXGeneral-Regular-6f" transform="translate(352.699905 0)"/>
      <use xlink:href="#STIXGeneral-Regular-66" transform="translate(402.69989 0)"/>
      <use xlink:href="#STIXGeneral-Regular-20" transform="translate(435.999878 0)"/>
      <use xlink:href="#STIXGeneral-Regular-46" transform="translate(460.999863 0)"/>
      <use xlink:href="#STIXGeneral-Regular-72" transform="translate(516.599854 0)"/>
      <use xlink:href="#STIXGeneral-Regular-61" transform="translate(549.899841 0)"/>
      <use xlink:href="#STIXGeneral-Regular-6d" transform="translate(594.299835 0)"/>
      <use xlink:href="#STIXGeneral-Regular-65" transform="translate(672.099823 0)"/>
      <use xlink:href="#STIXGeneral-Regular-73" transform="translate(716.499817 0)"/>
      <use xlink:href="#STIXGeneral-Regular-20" transform="translate(755.399811 0)"/>
      <use xlink:href="#STIXGeneral-Regular-28" transform="translate(780.399796 0)"/>
      <use xlink:href="#STIXGeneral-Regular-69" transform="translate(813.699783 0)"/>
      <use xlink:href="#STIXGeneral-Regular-6e" transform="translate(841.499771 0)"/>
      <use xlink:href="#STIXGeneral-Regular-20" transform="translate(891.499756 0)"/>
      <use xlink:href="#STIXGeneral-Regular-6d" transform="translate(916.499741 0)"/>
      <use xlink:href="#STIXGeneral-Regular-69" transform="translate(994.299728 0)"/>
      <use xlink:href="#STIXGeneral-Regular-6c" transform="translate(1022.099716 0)"/>
      <use xlink:href="#STIXGeneral-Regular-6c" transform="translate(1049.899704 0)"/>
      <use xlink:href="#STIXGeneral-Regular-69" transform="translate(1077.699692 0)"/>
      <use xlink:href="#STIXGeneral-Regular-6f" transform="translate(1105.49968 0)"/>
      <use xlink:href="#STIXGeneral-Regular-6e" transform="translate(1155.499664 0)"/>
      <use xlink:href="#STIXGeneral-Regular-73" transform="translate(1205.499649 0)"/>
      <use xlink:href="#STIXGeneral-Regular-29" transform="translate(1244.399643 0)"/>
     </g>
    </g>
   </g>
   <g id="matplotlib.axis_4">
    <g id="ytick_5">
     <g id="line2d_30">
      <path d="M 460.217647 253.400156 
L 755.629412 253.400156 
" clip-path="url(#p5a3b9adfb9)" style="fill: none; stroke: #b0b0b0; stroke-width: 0.8; stroke-linecap: square"/>
     </g>
     <g id="line2d_31">
      <g>
       <use xlink:href="#m104a2e394e" x="460.217647" y="253.400156" style="stroke: #000000; stroke-width: 0.8"/>
      </g>
     </g>
     <g id="text_20">
      <!-- 0 -->
      <g transform="translate(441.217647 261.595781) scale(0.24 -0.24)">
       <use xlink:href="#STIXGeneral-Regular-30"/>
      </g>
     </g>
    </g>
    <g id="ytick_6">
     <g id="line2d_32">
      <path d="M 460.217647 167.398572 
L 755.629412 167.398572 
" clip-path="url(#p5a3b9adfb9)" style="fill: none; stroke: #b0b0b0; stroke-width: 0.8; stroke-linecap: square"/>
     </g>
     <g id="line2d_33">
      <g>
       <use xlink:href="#m104a2e394e" x="460.217647" y="167.398572" style="stroke: #000000; stroke-width: 0.8"/>
      </g>
     </g>
     <g id="text_21">
      <!-- 1 -->
      <g transform="translate(441.217647 175.594197) scale(0.24 -0.24)">
       <use xlink:href="#STIXGeneral-Regular-31"/>
      </g>
     </g>
    </g>
    <g id="ytick_7">
     <g id="line2d_34">
      <path d="M 460.217647 81.396987 
L 755.629412 81.396987 
" clip-path="url(#p5a3b9adfb9)" style="fill: none; stroke: #b0b0b0; stroke-width: 0.8; stroke-linecap: square"/>
     </g>
     <g id="line2d_35">
      <g>
       <use xlink:href="#m104a2e394e" x="460.217647" y="81.396987" style="stroke: #000000; stroke-width: 0.8"/>
      </g>
     </g>
     <g id="text_22">
      <!-- 2 -->
      <g transform="translate(441.217647 89.592612) scale(0.24 -0.24)">
       <use xlink:href="#STIXGeneral-Regular-32"/>
      </g>
     </g>
    </g>
    <g id="text_23">
     <!-- IQM Return -->
     <g transform="translate(432.008897 201.513281) rotate(-90) scale(0.24 -0.24)">
      <defs>
       <path id="STIXGeneral-Regular-52" d="M 4224 0 
L 3187 0 
L 1664 1971 
L 1306 1958 
L 1306 717 
Q 1306 352 1405 249 
Q 1504 147 1875 122 
L 1875 0 
L 109 0 
L 109 122 
Q 474 154 563 262 
Q 653 371 653 794 
L 653 3526 
Q 653 3885 563 3987 
Q 474 4090 109 4115 
L 109 4237 
L 1850 4237 
Q 2726 4237 3187 3859 
Q 3501 3603 3501 3091 
Q 3501 2221 2342 2042 
L 3622 422 
Q 3757 256 3878 198 
Q 4000 141 4224 122 
L 4224 0 
z
M 1306 3731 
L 1306 2195 
Q 1766 2202 1990 2246 
Q 2214 2291 2438 2413 
Q 2803 2618 2803 3142 
Q 2803 4000 1632 4000 
Q 1459 4000 1382 3945 
Q 1306 3891 1306 3731 
z
" transform="scale(0.015625)"/>
      </defs>
      <use xlink:href="#STIXGeneral-Regular-49"/>
      <use xlink:href="#STIXGeneral-Regular-51" transform="translate(33.299988 0)"/>
      <use xlink:href="#STIXGeneral-Regular-4d" transform="translate(105.499969 0)"/>
      <use xlink:href="#STIXGeneral-Regular-20" transform="translate(194.399963 0)"/>
      <use xlink:href="#STIXGeneral-Regular-52" transform="translate(219.399948 0)"/>
      <use xlink:href="#STIXGeneral-Regular-65" transform="translate(286.099945 0)"/>
      <use xlink:href="#STIXGeneral-Regular-74" transform="translate(330.499939 0)"/>
      <use xlink:href="#STIXGeneral-Regular-75" transform="translate(358.299927 0)"/>
      <use xlink:href="#STIXGeneral-Regular-72" transform="translate(408.299911 0)"/>
      <use xlink:href="#STIXGeneral-Regular-6e" transform="translate(441.599899 0)"/>
     </g>
    </g>
   </g>
   <g id="line2d_36">
    <path d="M 460.217647 228.27172 
L 463.201604 222.7296 
L 466.185561 218.507548 
L 469.169519 214.434218 
L 472.153476 210.344973 
L 475.137433 206.320969 
L 478.12139 197.867713 
L 481.105348 189.398096 
L 484.089305 182.108139 
L 487.073262 175.689814 
L 490.057219 169.695737 
L 493.041176 164.574105 
L 496.025134 159.35034 
L 499.009091 155.018903 
L 501.993048 150.80974 
L 504.977005 147.536301 
L 507.960963 144.863556 
L 510.94492 142.353372 
L 513.928877 140.482263 
L 516.912834 138.702925 
L 519.896791 136.933022 
L 522.880749 135.448247 
L 525.864706 134.328025 
L 528.848663 132.755086 
L 531.83262 131.435194 
L 534.816578 129.808312 
L 537.800535 128.509129 
L 540.784492 127.162276 
L 543.768449 125.370511 
L 546.752406 123.871792 
L 549.736364 122.594839 
L 552.720321 121.172162 
L 555.704278 119.69021 
L 558.688235 118.489997 
L 561.672193 117.239534 
L 564.65615 116.545652 
L 567.640107 115.439484 
L 570.624064 114.479339 
L 573.608021 113.81114 
L 576.591979 113.028257 
L 579.575936 112.442675 
L 582.559893 111.599213 
L 585.54385 111.082931 
L 588.527807 110.371668 
L 591.511765 109.690939 
L 594.495722 108.655924 
L 597.479679 107.449037 
L 600.463636 106.617496 
L 603.447594 105.700993 
L 606.431551 104.971143 
L 609.415508 103.97653 
L 612.399465 103.356277 
L 615.383422 102.74985 
L 618.36738 101.822943 
L 621.351337 100.662994 
L 624.335294 99.65328 
L 627.319251 98.748903 
L 630.303209 97.631928 
L 633.287166 97.170939 
L 636.271123 96.683264 
L 639.25508 95.869679 
L 642.239037 95.61958 
L 645.222995 94.806824 
L 648.206952 94.228906 
L 651.190909 93.842074 
L 654.174866 93.268728 
L 657.158824 92.892665 
L 660.142781 92.625736 
L 663.126738 91.968459 
L 666.110695 91.358675 
L 669.094652 91.109727 
L 672.07861 90.458938 
L 675.062567 90.143544 
L 678.046524 89.686368 
L 681.030481 89.06615 
L 684.014439 88.964528 
L 686.998396 88.706322 
L 689.982353 87.86318 
L 692.96631 87.29619 
L 695.950267 86.671182 
L 698.934225 85.986066 
L 701.918182 85.255343 
L 704.902139 84.371072 
L 707.886096 83.526014 
L 710.870053 83.078772 
L 713.854011 82.216576 
L 716.837968 81.5438 
L 719.821925 81.452345 
L 722.805882 80.34083 
L 725.78984 79.888318 
L 728.773797 79.291263 
L 731.757754 78.877241 
L 734.741711 78.438074 
L 737.725668 78.692552 
L 740.709626 77.88981 
L 743.693583 76.98459 
L 746.67754 76.75156 
L 749.661497 76.283032 
L 752.645455 76.391299 
L 755.629412 75.797971 
" clip-path="url(#p5a3b9adfb9)" style="fill: none; stroke: #1f77b4; stroke-width: 3; stroke-linecap: square"/>
   </g>
   <g id="patch_12">
    <path d="M 460.217647 253.400156 
L 460.217647 31.640156 
" style="fill: none; stroke: #000000; stroke-width: 0.8; stroke-linejoin: miter; stroke-linecap: square"/>
   </g>
   <g id="patch_13">
    <path d="M 755.629412 253.400156 
L 755.629412 31.640156 
" style="fill: none; stroke: #000000; stroke-width: 0.8; stroke-linejoin: miter; stroke-linecap: square"/>
   </g>
   <g id="patch_14">
    <path d="M 460.217647 253.400156 
L 755.629412 253.400156 
" style="fill: none; stroke: #000000; stroke-width: 0.8; stroke-linejoin: miter; stroke-linecap: square"/>
   </g>
   <g id="patch_15">
    <path d="M 460.217647 31.640156 
L 755.629412 31.640156 
" style="fill: none; stroke: #000000; stroke-width: 0.8; stroke-linejoin: miter; stroke-linecap: square"/>
   </g>
   <g id="line2d_37">
    <path d="M 460.217647 226.669048 
L 463.201604 221.086143 
L 466.185561 216.489067 
L 469.169519 211.816637 
L 472.153476 207.406733 
L 475.137433 202.863849 
L 478.12139 193.537945 
L 481.105348 184.008189 
L 484.089305 175.003445 
L 487.073262 167.227339 
L 490.057219 160.088155 
L 493.041176 153.25684 
L 496.025134 146.616788 
L 499.009091 140.433924 
L 501.993048 135.350365 
L 504.977005 131.037768 
L 507.960963 126.936859 
L 510.94492 123.319364 
L 513.928877 120.177555 
L 516.912834 117.70677 
L 519.896791 115.506775 
L 522.880749 113.291674 
L 525.864706 111.768331 
L 528.848663 110.078664 
L 531.83262 108.200495 
L 534.816578 106.450605 
L 537.800535 105.1219 
L 540.784492 103.545426 
L 543.768449 102.302674 
L 546.752406 100.689796 
L 549.736364 99.545348 
L 552.720321 98.289546 
L 555.704278 97.032982 
L 558.688235 95.867141 
L 561.672193 94.705798 
L 564.65615 93.707084 
L 567.640107 92.511716 
L 570.624064 91.61854 
L 573.608021 90.230953 
L 576.591979 89.345766 
L 579.575936 88.058785 
L 582.559893 87.031889 
L 585.54385 86.189966 
L 588.527807 85.08879 
L 591.511765 84.154951 
L 594.495722 82.696307 
L 597.479679 81.412905 
L 600.463636 80.449446 
L 603.447594 79.891207 
L 606.431551 79.05104 
L 609.415508 78.467523 
L 612.399465 77.549744 
L 615.383422 76.604418 
L 618.36738 76.177692 
L 621.351337 75.328907 
L 624.335294 74.843714 
L 627.319251 74.118059 
L 630.303209 73.476046 
L 633.287166 72.902774 
L 636.271123 72.824041 
L 639.25508 71.99217 
L 642.239037 71.644818 
L 645.222995 71.138527 
L 648.206952 70.389889 
L 651.190909 69.993335 
L 654.174866 69.467061 
L 657.158824 68.731842 
L 660.142781 67.875514 
L 663.126738 66.822466 
L 666.110695 65.576433 
L 669.094652 64.708096 
L 672.07861 63.948743 
L 675.062567 63.070901 
L 678.046524 62.478548 
L 681.030481 61.530457 
L 684.014439 60.696046 
L 686.998396 60.041125 
L 689.982353 59.591805 
L 692.96631 59.211354 
L 695.950267 58.789969 
L 698.934225 58.321878 
L 701.918182 57.499243 
L 704.902139 56.576907 
L 707.886096 55.551553 
L 710.870053 55.252508 
L 713.854011 54.292937 
L 716.837968 53.813013 
L 719.821925 52.99117 
L 722.805882 52.277564 
L 725.78984 51.720302 
L 728.773797 50.929286 
L 731.757754 50.119735 
L 734.741711 48.922428 
L 737.725668 48.404767 
L 740.709626 47.59582 
L 743.693583 47.305363 
L 746.67754 46.947411 
L 749.661497 46.657855 
L 752.645455 46.082223 
L 755.629412 45.261518 
" clip-path="url(#p5a3b9adfb9)" style="fill: none; stroke: #ce1126; stroke-width: 3; stroke-linecap: square"/>
   </g>
   <g id="text_24">
    <!-- Performance Curve (CNN) -->
    <g transform="translate(461.701654 25.640156) scale(0.27 -0.27)">
     <defs>
      <path id="STIXGeneral-Regular-63" d="M 2547 998 
L 2637 941 
Q 2362 403 2112 205 
Q 1786 -64 1376 -64 
Q 845 -64 502 336 
Q 160 736 160 1357 
Q 160 2170 698 2618 
Q 1094 2944 1562 2944 
Q 1965 2944 2256 2749 
Q 2547 2554 2547 2285 
Q 2547 2176 2457 2096 
Q 2368 2016 2246 2016 
Q 2022 2016 1939 2310 
L 1901 2451 
Q 1850 2630 1773 2694 
Q 1696 2758 1523 2758 
Q 1133 2758 893 2451 
Q 653 2144 653 1645 
Q 653 1094 928 745 
Q 1203 397 1645 397 
Q 1920 397 2118 528 
Q 2317 659 2547 998 
z
" transform="scale(0.015625)"/>
     </defs>
     <use xlink:href="#STIXGeneral-Regular-50"/>
     <use xlink:href="#STIXGeneral-Regular-65" transform="translate(55.699997 0)"/>
     <use xlink:href="#STIXGeneral-Regular-72" transform="translate(100.099991 0)"/>
     <use xlink:href="#STIXGeneral-Regular-66" transform="translate(133.399979 0)"/>
     <use xlink:href="#STIXGeneral-Regular-6f" transform="translate(166.699966 0)"/>
     <use xlink:href="#STIXGeneral-Regular-72" transform="translate(216.699951 0)"/>
     <use xlink:href="#STIXGeneral-Regular-6d" transform="translate(249.999939 0)"/>
     <use xlink:href="#STIXGeneral-Regular-61" transform="translate(327.799927 0)"/>
     <use xlink:href="#STIXGeneral-Regular-6e" transform="translate(372.199921 0)"/>
     <use xlink:href="#STIXGeneral-Regular-63" transform="translate(422.199905 0)"/>
     <use xlink:href="#STIXGeneral-Regular-65" transform="translate(466.599899 0)"/>
     <use xlink:href="#STIXGeneral-Regular-20" transform="translate(510.999893 0)"/>
     <use xlink:href="#STIXGeneral-Regular-43" transform="translate(535.999878 0)"/>
     <use xlink:href="#STIXGeneral-Regular-75" transform="translate(602.699875 0)"/>
     <use xlink:href="#STIXGeneral-Regular-72" transform="translate(652.69986 0)"/>
     <use xlink:href="#STIXGeneral-Regular-76" transform="translate(685.999847 0)"/>
     <use xlink:href="#STIXGeneral-Regular-65" transform="translate(735.999832 0)"/>
     <use xlink:href="#STIXGeneral-Regular-20" transform="translate(780.399826 0)"/>
     <use xlink:href="#STIXGeneral-Regular-28" transform="translate(805.399811 0)"/>
     <use xlink:href="#STIXGeneral-Regular-43" transform="translate(838.699799 0)"/>
     <use xlink:href="#STIXGeneral-Regular-4e" transform="translate(905.399796 0)"/>
     <use xlink:href="#STIXGeneral-Regular-4e" transform="translate(977.599777 0)"/>
     <use xlink:href="#STIXGeneral-Regular-29" transform="translate(1049.799759 0)"/>
    </g>
   </g>
  </g>
  <g id="axes_3">
   <g id="patch_16">
    <path d="M 814.711765 253.400156 
L 1110.123529 253.400156 
L 1110.123529 31.640156 
L 814.711765 31.640156 
z
" style="fill: #ffffff"/>
   </g>
   <g id="FillBetweenPolyCollection_3">
    <defs>
     <path id="m0162961848" d="M 814.711765 -79.124064 
L 814.711765 -76.523254 
L 820.740576 -81.541978 
L 826.769388 -87.108798 
L 832.798199 -92.498038 
L 838.827011 -97.328426 
L 844.855822 -101.503678 
L 850.884634 -109.596508 
L 856.913445 -117.047596 
L 862.942257 -122.968436 
L 868.971068 -128.047954 
L 874.99988 -132.431286 
L 881.028691 -136.506219 
L 887.057503 -139.959525 
L 893.086315 -143.320485 
L 899.115126 -146.772327 
L 905.143938 -149.727183 
L 911.172749 -152.663871 
L 917.201561 -154.63005 
L 923.230372 -157.089275 
L 929.259184 -160.143067 
L 935.287995 -162.711456 
L 941.316807 -165.426581 
L 947.345618 -168.548947 
L 953.37443 -171.733159 
L 959.403241 -173.985307 
L 965.432053 -176.058539 
L 971.460864 -176.643276 
L 977.489676 -178.643661 
L 983.518487 -180.890519 
L 989.547299 -182.253318 
L 995.57611 -184.391448 
L 1001.604922 -186.514514 
L 1007.633733 -189.742083 
L 1013.662545 -194.284195 
L 1019.691357 -201.092211 
L 1025.720168 -206.953054 
L 1031.74898 -208.038743 
L 1037.777791 -208.582094 
L 1043.806603 -210.09072 
L 1049.835414 -211.213249 
L 1055.864226 -211.026444 
L 1061.893037 -211.467293 
L 1067.921849 -213.363026 
L 1073.95066 -215.235533 
L 1079.979472 -215.228668 
L 1086.008283 -216.246553 
L 1092.037095 -216.989454 
L 1098.065906 -217.697458 
L 1104.094718 -217.20908 
L 1110.123529 -217.392247 
L 1116.152341 -218.109516 
L 1122.181152 -218.731111 
L 1128.209964 -217.590134 
L 1134.238776 -215.894336 
L 1140.267587 -215.824891 
L 1146.296399 -215.246127 
L 1152.32521 -215.320094 
L 1158.354022 -215.677779 
L 1164.382833 -215.813595 
L 1170.411645 -215.521676 
L 1176.440456 -215.589877 
L 1182.469268 -215.499239 
L 1188.498079 -215.773636 
L 1194.526891 -215.361312 
L 1200.555702 -215.137016 
L 1206.584514 -215.503976 
L 1212.613325 -215.632814 
L 1218.642137 -215.717827 
L 1224.670948 -215.755549 
L 1230.69976 -215.929078 
L 1236.728571 -215.438806 
L 1242.757383 -215.405934 
L 1248.786194 -215.625763 
L 1254.815006 -215.712463 
L 1260.843818 -215.750268 
L 1266.872629 -215.730992 
L 1272.901441 -215.505577 
L 1278.930252 -215.718141 
L 1284.959064 -215.224329 
L 1290.987875 -215.283459 
L 1297.016687 -215.795196 
L 1303.045498 -215.444096 
L 1309.07431 -215.850634 
L 1315.103121 -215.856178 
L 1321.131933 -215.672718 
L 1327.160744 -215.423365 
L 1333.189556 -215.562989 
L 1339.218367 -215.284821 
L 1345.247179 -215.555156 
L 1351.27599 -215.419511 
L 1357.304802 -215.687583 
L 1363.333613 -215.389991 
L 1369.362425 -215.538817 
L 1375.391236 -215.348083 
L 1381.420048 -215.353818 
L 1387.44886 -215.83598 
L 1393.477671 -215.560088 
L 1399.506483 -215.879311 
L 1405.535294 -215.954604 
L 1411.564106 -215.634783 
L 1411.564106 -228.036875 
L 1411.564106 -228.036875 
L 1405.535294 -228.289326 
L 1399.506483 -227.921752 
L 1393.477671 -227.778434 
L 1387.44886 -228.132807 
L 1381.420048 -228.023053 
L 1375.391236 -227.901055 
L 1369.362425 -228.133301 
L 1363.333613 -227.962837 
L 1357.304802 -228.258025 
L 1351.27599 -228.295724 
L 1345.247179 -228.01099 
L 1339.218367 -228.069847 
L 1333.189556 -227.778381 
L 1327.160744 -227.972982 
L 1321.131933 -228.041082 
L 1315.103121 -228.047953 
L 1309.07431 -227.957455 
L 1303.045498 -227.933589 
L 1297.016687 -227.745033 
L 1290.987875 -228.402199 
L 1284.959064 -227.88834 
L 1278.930252 -227.931333 
L 1272.901441 -228.196191 
L 1266.872629 -227.934884 
L 1260.843818 -227.889549 
L 1254.815006 -228.194885 
L 1248.786194 -228.092068 
L 1242.757383 -228.288809 
L 1236.728571 -228.148831 
L 1230.69976 -228.377302 
L 1224.670948 -228.123869 
L 1218.642137 -228.275568 
L 1212.613325 -227.936026 
L 1206.584514 -227.977887 
L 1200.555702 -227.957948 
L 1194.526891 -228.078978 
L 1188.498079 -228.111671 
L 1182.469268 -228.221981 
L 1176.440456 -227.836884 
L 1170.411645 -228.152432 
L 1164.382833 -228.178678 
L 1158.354022 -228.028458 
L 1152.32521 -228.317305 
L 1146.296399 -228.168226 
L 1140.267587 -227.877753 
L 1134.238776 -227.699328 
L 1128.209964 -228.37612 
L 1122.181152 -228.557519 
L 1116.152341 -228.693057 
L 1110.123529 -228.399221 
L 1104.094718 -227.930272 
L 1098.065906 -227.087678 
L 1092.037095 -226.950792 
L 1086.008283 -226.471022 
L 1079.979472 -225.795648 
L 1073.95066 -225.335139 
L 1067.921849 -224.166954 
L 1061.893037 -222.385193 
L 1055.864226 -221.16644 
L 1049.835414 -219.862736 
L 1043.806603 -218.479148 
L 1037.777791 -217.412668 
L 1031.74898 -215.288806 
L 1025.720168 -212.618706 
L 1019.691357 -210.200274 
L 1013.662545 -208.618935 
L 1007.633733 -206.727627 
L 1001.604922 -205.491379 
L 995.57611 -203.693123 
L 989.547299 -202.364449 
L 983.518487 -200.223778 
L 977.489676 -198.61331 
L 971.460864 -195.957918 
L 965.432053 -192.748076 
L 959.403241 -190.659525 
L 953.37443 -187.468514 
L 947.345618 -183.506405 
L 941.316807 -178.046719 
L 935.287995 -173.170078 
L 929.259184 -169.222169 
L 923.230372 -165.171754 
L 917.201561 -160.513833 
L 911.172749 -157.238678 
L 905.143938 -153.809629 
L 899.115126 -150.624999 
L 893.086315 -147.129751 
L 887.057503 -143.412109 
L 881.028691 -139.859468 
L 874.99988 -135.833029 
L 868.971068 -131.39028 
L 862.942257 -126.358964 
L 856.913445 -120.415231 
L 850.884634 -113.086534 
L 844.855822 -104.760959 
L 838.827011 -100.424596 
L 832.798199 -95.636932 
L 826.769388 -90.925873 
L 820.740576 -85.811193 
L 814.711765 -79.124064 
z
" style="stroke: #1f77b4; stroke-opacity: 0.3"/>
    </defs>
    <g clip-path="url(#peb7a81882e)">
     <use xlink:href="#m0162961848" x="0" y="313.000156" style="fill: #1f77b4; fill-opacity: 0.3; stroke: #1f77b4; stroke-opacity: 0.3"/>
    </g>
   </g>
   <g id="FillBetweenPolyCollection_4">
    <defs>
     <path id="mdc5fee530e" d="M 814.711765 -79.899763 
L 814.711765 -78.299331 
L 820.740576 -84.215737 
L 826.769388 -91.306441 
L 832.798199 -98.317013 
L 838.827011 -105.084758 
L 844.855822 -110.337583 
L 850.884634 -119.827436 
L 856.913445 -128.44098 
L 862.942257 -136.196172 
L 868.971068 -143.280165 
L 874.99988 -149.871684 
L 881.028691 -155.792385 
L 887.057503 -161.220002 
L 893.086315 -167.007107 
L 899.115126 -171.806933 
L 905.143938 -177.353787 
L 911.172749 -181.490582 
L 917.201561 -184.778491 
L 923.230372 -187.904431 
L 929.259184 -191.031911 
L 935.287995 -194.846832 
L 941.316807 -199.756106 
L 947.345618 -205.272952 
L 953.37443 -212.950482 
L 959.403241 -218.489371 
L 965.432053 -224.795589 
L 971.460864 -229.900055 
L 977.489676 -233.433352 
L 983.518487 -237.220448 
L 989.547299 -239.429631 
L 995.57611 -241.14363 
L 1001.604922 -242.052071 
L 1007.633733 -242.801172 
L 1013.662545 -244.697196 
L 1019.691357 -246.143573 
L 1025.720168 -246.426935 
L 1031.74898 -246.853628 
L 1037.777791 -247.396965 
L 1043.806603 -248.608041 
L 1049.835414 -248.467273 
L 1055.864226 -249.542119 
L 1061.893037 -250.287383 
L 1067.921849 -251.037048 
L 1073.95066 -251.918046 
L 1079.979472 -252.71195 
L 1086.008283 -253.635051 
L 1092.037095 -253.56759 
L 1098.065906 -254.339357 
L 1104.094718 -253.416732 
L 1110.123529 -253.933992 
L 1116.152341 -253.262856 
L 1122.181152 -253.593369 
L 1128.209964 -253.060006 
L 1134.238776 -251.832683 
L 1140.267587 -251.240503 
L 1146.296399 -250.706307 
L 1152.32521 -251.000067 
L 1158.354022 -250.721181 
L 1164.382833 -250.708954 
L 1170.411645 -251.422413 
L 1176.440456 -250.946183 
L 1182.469268 -250.996619 
L 1188.498079 -251.428465 
L 1194.526891 -251.137697 
L 1200.555702 -251.444877 
L 1206.584514 -250.921243 
L 1212.613325 -251.206662 
L 1218.642137 -250.793671 
L 1224.670948 -251.597013 
L 1230.69976 -251.08075 
L 1236.728571 -250.990822 
L 1242.757383 -250.954969 
L 1248.786194 -251.231072 
L 1254.815006 -251.328084 
L 1260.843818 -251.847662 
L 1266.872629 -251.000341 
L 1272.901441 -251.026441 
L 1278.930252 -251.054911 
L 1284.959064 -250.812677 
L 1290.987875 -251.23769 
L 1297.016687 -251.172548 
L 1303.045498 -250.744141 
L 1309.07431 -251.001298 
L 1315.103121 -251.435464 
L 1321.131933 -250.961147 
L 1327.160744 -251.041959 
L 1333.189556 -250.863781 
L 1339.218367 -251.077052 
L 1345.247179 -251.116772 
L 1351.27599 -251.014642 
L 1357.304802 -251.521123 
L 1363.333613 -251.100717 
L 1369.362425 -250.49553 
L 1375.391236 -251.091904 
L 1381.420048 -250.689343 
L 1387.44886 -251.210244 
L 1393.477671 -251.331206 
L 1399.506483 -251.415026 
L 1405.535294 -251.353794 
L 1411.564106 -251.034528 
L 1411.564106 -270.336166 
L 1411.564106 -270.336166 
L 1405.535294 -270.139078 
L 1399.506483 -270.439369 
L 1393.477671 -270.949277 
L 1387.44886 -270.51663 
L 1381.420048 -270.858559 
L 1375.391236 -270.606073 
L 1369.362425 -270.631678 
L 1363.333613 -270.628907 
L 1357.304802 -270.843959 
L 1351.27599 -270.135386 
L 1345.247179 -270.688927 
L 1339.218367 -270.936565 
L 1333.189556 -270.562112 
L 1327.160744 -270.676319 
L 1321.131933 -271.144166 
L 1315.103121 -269.414688 
L 1309.07431 -270.353893 
L 1303.045498 -271.249219 
L 1297.016687 -270.897032 
L 1290.987875 -270.887083 
L 1284.959064 -270.798624 
L 1278.930252 -270.202236 
L 1272.901441 -270.290813 
L 1266.872629 -270.442264 
L 1260.843818 -270.679986 
L 1254.815006 -270.876695 
L 1248.786194 -270.665349 
L 1242.757383 -270.573585 
L 1236.728571 -270.769995 
L 1230.69976 -270.681226 
L 1224.670948 -270.752383 
L 1218.642137 -270.048287 
L 1212.613325 -270.249067 
L 1206.584514 -270.445482 
L 1200.555702 -270.116123 
L 1194.526891 -270.134744 
L 1188.498079 -270.142414 
L 1182.469268 -270.898416 
L 1176.440456 -270.888034 
L 1170.411645 -271.030341 
L 1164.382833 -271.059309 
L 1158.354022 -270.181925 
L 1152.32521 -270.792302 
L 1146.296399 -270.509998 
L 1140.267587 -270.730681 
L 1134.238776 -271.605869 
L 1128.209964 -271.220296 
L 1122.181152 -270.561209 
L 1116.152341 -270.434939 
L 1110.123529 -267.261436 
L 1104.094718 -266.992246 
L 1098.065906 -265.704121 
L 1092.037095 -263.260086 
L 1086.008283 -261.323369 
L 1079.979472 -260.011624 
L 1073.95066 -259.651756 
L 1067.921849 -260.331494 
L 1061.893037 -258.92926 
L 1055.864226 -258.541652 
L 1049.835414 -258.63702 
L 1043.806603 -257.132041 
L 1037.777791 -255.768928 
L 1031.74898 -256.150116 
L 1025.720168 -255.379016 
L 1019.691357 -254.145294 
L 1013.662545 -252.318229 
L 1007.633733 -248.993265 
L 1001.604922 -247.099159 
L 995.57611 -246.22479 
L 989.547299 -243.832171 
L 983.518487 -240.461354 
L 977.489676 -239.269538 
L 971.460864 -237.018803 
L 965.432053 -232.963643 
L 959.403241 -229.838672 
L 953.37443 -227.163753 
L 947.345618 -224.10328 
L 941.316807 -220.693649 
L 935.287995 -217.078413 
L 929.259184 -214.08902 
L 923.230372 -211.440985 
L 917.201561 -206.703323 
L 911.172749 -200.220046 
L 905.143938 -192.905391 
L 899.115126 -186.739445 
L 893.086315 -177.46498 
L 887.057503 -168.249841 
L 881.028691 -161.392281 
L 874.99988 -154.246402 
L 868.971068 -147.44175 
L 862.942257 -139.911252 
L 856.913445 -131.936187 
L 850.884634 -123.34195 
L 844.855822 -113.736359 
L 838.827011 -108.842158 
L 832.798199 -102.679467 
L 826.769388 -95.346979 
L 820.740576 -87.268763 
L 814.711765 -79.899763 
z
" style="stroke: #ce1126; stroke-opacity: 0.3"/>
    </defs>
    <g clip-path="url(#peb7a81882e)">
     <use xlink:href="#mdc5fee530e" x="0" y="313.000156" style="fill: #ce1126; fill-opacity: 0.3; stroke: #ce1126; stroke-opacity: 0.3"/>
    </g>
   </g>
   <g id="matplotlib.axis_5">
    <g id="xtick_11">
     <g id="line2d_38">
      <path d="M 814.711765 253.400156 
L 814.711765 31.640156 
" clip-path="url(#peb7a81882e)" style="fill: none; stroke: #b0b0b0; stroke-width: 0.8; stroke-linecap: square"/>
     </g>
     <g id="line2d_39">
      <g>
       <use xlink:href="#m919a3c225c" x="814.711765" y="253.400156" style="stroke: #000000; stroke-width: 0.8"/>
      </g>
     </g>
     <g id="text_25">
      <!-- 1 -->
      <g transform="translate(808.711765 276.791406) scale(0.24 -0.24)">
       <use xlink:href="#STIXGeneral-Regular-31"/>
      </g>
     </g>
    </g>
    <g id="xtick_12">
     <g id="line2d_40">
      <path d="M 868.971068 253.400156 
L 868.971068 31.640156 
" clip-path="url(#peb7a81882e)" style="fill: none; stroke: #b0b0b0; stroke-width: 0.8; stroke-linecap: square"/>
     </g>
     <g id="line2d_41">
      <g>
       <use xlink:href="#m919a3c225c" x="868.971068" y="253.400156" style="stroke: #000000; stroke-width: 0.8"/>
      </g>
     </g>
     <g id="text_26">
      <!-- 10 -->
      <g transform="translate(856.971068 276.791406) scale(0.24 -0.24)">
       <use xlink:href="#STIXGeneral-Regular-31"/>
       <use xlink:href="#STIXGeneral-Regular-30" transform="translate(49.999985 0)"/>
      </g>
     </g>
    </g>
    <g id="xtick_13">
     <g id="line2d_42">
      <path d="M 929.259184 253.400156 
L 929.259184 31.640156 
" clip-path="url(#peb7a81882e)" style="fill: none; stroke: #b0b0b0; stroke-width: 0.8; stroke-linecap: square"/>
     </g>
     <g id="line2d_43">
      <g>
       <use xlink:href="#m919a3c225c" x="929.259184" y="253.400156" style="stroke: #000000; stroke-width: 0.8"/>
      </g>
     </g>
     <g id="text_27">
      <!-- 20 -->
      <g transform="translate(917.259184 276.791406) scale(0.24 -0.24)">
       <use xlink:href="#STIXGeneral-Regular-32"/>
       <use xlink:href="#STIXGeneral-Regular-30" transform="translate(49.999985 0)"/>
      </g>
     </g>
    </g>
    <g id="xtick_14">
     <g id="line2d_44">
      <path d="M 989.547299 253.400156 
L 989.547299 31.640156 
" clip-path="url(#peb7a81882e)" style="fill: none; stroke: #b0b0b0; stroke-width: 0.8; stroke-linecap: square"/>
     </g>
     <g id="line2d_45">
      <g>
       <use xlink:href="#m919a3c225c" x="989.547299" y="253.400156" style="stroke: #000000; stroke-width: 0.8"/>
      </g>
     </g>
     <g id="text_28">
      <!-- 30 -->
      <g transform="translate(977.547299 276.791406) scale(0.24 -0.24)">
       <use xlink:href="#STIXGeneral-Regular-33"/>
       <use xlink:href="#STIXGeneral-Regular-30" transform="translate(49.999985 0)"/>
      </g>
     </g>
    </g>
    <g id="xtick_15">
     <g id="line2d_46">
      <path d="M 1049.835414 253.400156 
L 1049.835414 31.640156 
" clip-path="url(#peb7a81882e)" style="fill: none; stroke: #b0b0b0; stroke-width: 0.8; stroke-linecap: square"/>
     </g>
     <g id="line2d_47">
      <g>
       <use xlink:href="#m919a3c225c" x="1049.835414" y="253.400156" style="stroke: #000000; stroke-width: 0.8"/>
      </g>
     </g>
     <g id="text_29">
      <!-- 40 -->
      <g transform="translate(1037.835414 276.791406) scale(0.24 -0.24)">
       <use xlink:href="#STIXGeneral-Regular-34"/>
       <use xlink:href="#STIXGeneral-Regular-30" transform="translate(49.999985 0)"/>
      </g>
     </g>
    </g>
    <g id="xtick_16">
     <g id="line2d_48">
      <path d="M 1110.123529 253.400156 
L 1110.123529 31.640156 
" clip-path="url(#peb7a81882e)" style="fill: none; stroke: #b0b0b0; stroke-width: 0.8; stroke-linecap: square"/>
     </g>
     <g id="line2d_49">
      <g>
       <use xlink:href="#m919a3c225c" x="1110.123529" y="253.400156" style="stroke: #000000; stroke-width: 0.8"/>
      </g>
     </g>
     <g id="text_30">
      <!-- 50 -->
      <g transform="translate(1098.123529 276.791406) scale(0.24 -0.24)">
       <defs>
        <path id="STIXGeneral-Regular-35" d="M 2803 4358 
L 2573 3814 
Q 2534 3731 2400 3731 
L 1158 3731 
L 902 3187 
Q 1606 3053 1920 2896 
Q 2234 2739 2502 2368 
Q 2726 2061 2726 1555 
Q 2726 1094 2576 780 
Q 2426 467 2099 224 
Q 1664 -90 1011 -90 
Q 646 -90 422 19 
Q 198 128 198 307 
Q 198 550 486 550 
Q 717 550 960 352 
Q 1210 147 1414 147 
Q 1747 147 2012 480 
Q 2278 813 2278 1229 
Q 2278 1843 1850 2189 
Q 1293 2637 486 2637 
Q 410 2637 410 2688 
L 416 2720 
L 1114 4237 
L 2438 4237 
Q 2547 4237 2608 4269 
Q 2669 4301 2746 4403 
L 2803 4358 
z
" transform="scale(0.015625)"/>
       </defs>
       <use xlink:href="#STIXGeneral-Regular-35"/>
       <use xlink:href="#STIXGeneral-Regular-30" transform="translate(49.999985 0)"/>
      </g>
     </g>
    </g>
   </g>
   <g id="matplotlib.axis_6">
    <g id="ytick_8">
     <g id="line2d_50">
      <path d="M 814.711765 253.400156 
L 1110.123529 253.400156 
" clip-path="url(#peb7a81882e)" style="fill: none; stroke: #b0b0b0; stroke-width: 0.8; stroke-linecap: square"/>
     </g>
     <g id="line2d_51">
      <g>
       <use xlink:href="#m104a2e394e" x="814.711765" y="253.400156" style="stroke: #000000; stroke-width: 0.8"/>
      </g>
     </g>
     <g id="text_31">
      <!-- 0 -->
      <g transform="translate(795.711765 261.595781) scale(0.24 -0.24)">
       <use xlink:href="#STIXGeneral-Regular-30"/>
      </g>
     </g>
    </g>
    <g id="ytick_9">
     <g id="line2d_52">
      <path d="M 814.711765 170.215378 
L 1110.123529 170.215378 
" clip-path="url(#peb7a81882e)" style="fill: none; stroke: #b0b0b0; stroke-width: 0.8; stroke-linecap: square"/>
     </g>
     <g id="line2d_53">
      <g>
       <use xlink:href="#m104a2e394e" x="814.711765" y="170.215378" style="stroke: #000000; stroke-width: 0.8"/>
      </g>
     </g>
     <g id="text_32">
      <!-- 2 -->
      <g transform="translate(795.711765 178.411003) scale(0.24 -0.24)">
       <use xlink:href="#STIXGeneral-Regular-32"/>
      </g>
     </g>
    </g>
    <g id="ytick_10">
     <g id="line2d_54">
      <path d="M 814.711765 87.030599 
L 1110.123529 87.030599 
" clip-path="url(#peb7a81882e)" style="fill: none; stroke: #b0b0b0; stroke-width: 0.8; stroke-linecap: square"/>
     </g>
     <g id="line2d_55">
      <g>
       <use xlink:href="#m104a2e394e" x="814.711765" y="87.030599" style="stroke: #000000; stroke-width: 0.8"/>
      </g>
     </g>
     <g id="text_33">
      <!-- 4 -->
      <g transform="translate(795.711765 95.226224) scale(0.24 -0.24)">
       <use xlink:href="#STIXGeneral-Regular-34"/>
      </g>
     </g>
    </g>
   </g>
   <g id="line2d_56">
    <path d="M 814.711765 235.220985 
L 820.740576 229.313321 
L 826.769388 224.064794 
L 832.798199 218.952664 
L 838.827011 214.257508 
L 844.855822 209.88816 
L 850.884634 201.682022 
L 856.913445 194.391853 
L 862.942257 188.311505 
L 868.971068 183.330732 
L 874.99988 179.131204 
L 881.028691 175.083095 
L 887.057503 171.477776 
L 893.086315 168.104774 
L 899.115126 164.581373 
L 905.143938 161.600268 
L 911.172749 158.308818 
L 917.201561 155.568349 
L 923.230372 152.220167 
L 929.259184 148.30481 
L 935.287995 145.325875 
L 941.316807 141.619159 
L 947.345618 137.369632 
L 953.37443 133.560619 
L 959.403241 130.413084 
L 965.432053 128.255215 
L 971.460864 126.251137 
L 977.489676 123.976712 
L 983.518487 121.733235 
L 989.547299 120.841781 
L 995.57611 119.08943 
L 1001.604922 117.263299 
L 1007.633733 115.291329 
L 1013.662545 111.577346 
L 1019.691357 107.731606 
L 1025.720168 103.379362 
L 1031.74898 102.301964 
L 1037.777791 101.61125 
L 1043.806603 99.690085 
L 1049.835414 97.458595 
L 1055.864226 96.98912 
L 1061.893037 96.306363 
L 1067.921849 94.500041 
L 1073.95066 93.297107 
L 1079.979472 92.711689 
L 1086.008283 91.786013 
L 1092.037095 91.069514 
L 1098.065906 90.666108 
L 1104.094718 90.460287 
L 1110.123529 90.400162 
L 1116.152341 90.085068 
L 1122.181152 89.909729 
L 1128.209964 90.323224 
L 1134.238776 91.308293 
L 1140.0996 91.342419 
" clip-path="url(#peb7a81882e)" style="fill: none; stroke: #1f77b4; stroke-width: 3; stroke-linecap: square"/>
   </g>
   <g id="patch_17">
    <path d="M 814.711765 253.400156 
L 814.711765 31.640156 
" style="fill: none; stroke: #000000; stroke-width: 0.8; stroke-linejoin: miter; stroke-linecap: square"/>
   </g>
   <g id="patch_18">
    <path d="M 1110.123529 253.400156 
L 1110.123529 31.640156 
" style="fill: none; stroke: #000000; stroke-width: 0.8; stroke-linejoin: miter; stroke-linecap: square"/>
   </g>
   <g id="patch_19">
    <path d="M 814.711765 253.400156 
L 1110.123529 253.400156 
" style="fill: none; stroke: #000000; stroke-width: 0.8; stroke-linejoin: miter; stroke-linecap: square"/>
   </g>
   <g id="patch_20">
    <path d="M 814.711765 31.640156 
L 1110.123529 31.640156 
" style="fill: none; stroke: #000000; stroke-width: 0.8; stroke-linejoin: miter; stroke-linecap: square"/>
   </g>
   <g id="line2d_57">
    <path d="M 814.711765 234.013881 
L 820.740576 227.38098 
L 826.769388 219.706932 
L 832.798199 212.506137 
L 838.827011 206.069152 
L 844.855822 200.948995 
L 850.884634 191.406275 
L 856.913445 182.790056 
L 862.942257 174.933447 
L 868.971068 167.730661 
L 874.99988 160.986918 
L 881.028691 154.41252 
L 887.057503 148.250966 
L 893.086315 140.914428 
L 899.115126 133.715496 
L 905.143938 127.560852 
L 911.172749 121.63 
L 917.201561 115.924845 
L 923.230372 112.164377 
L 929.259184 109.338677 
L 935.287995 106.133124 
L 941.316807 101.967374 
L 947.345618 97.859537 
L 953.37443 93.080073 
L 959.403241 88.922127 
L 965.432053 84.102991 
L 971.460864 79.788931 
L 977.489676 76.631928 
L 983.518487 74.185374 
L 989.547299 71.475707 
L 995.57611 69.515504 
L 1001.604922 68.533862 
L 1007.633733 67.344878 
L 1013.662545 64.774715 
L 1019.691357 63.171321 
L 1025.720168 62.433551 
L 1031.74898 61.780077 
L 1037.777791 61.722085 
L 1043.806603 60.581573 
L 1049.835414 59.945458 
L 1055.864226 59.411168 
L 1061.893037 58.88894 
L 1067.921849 57.675808 
L 1073.95066 57.346867 
L 1079.979472 56.751775 
L 1086.008283 55.627197 
L 1092.037095 54.733244 
L 1098.065906 53.163205 
L 1104.094718 52.855226 
L 1110.123529 52.342347 
L 1116.152341 51.798472 
L 1122.181152 51.240732 
L 1128.209964 51.309861 
L 1134.238776 52.037017 
L 1140.0996 52.606132 
" clip-path="url(#peb7a81882e)" style="fill: none; stroke: #ce1126; stroke-width: 3; stroke-linecap: square"/>
   </g>
   <g id="text_34">
    <!-- Performance Curve (IMPALA) -->
    <g transform="translate(792.935694 25.640156) scale(0.27 -0.27)">
     <use xlink:href="#STIXGeneral-Regular-50"/>
     <use xlink:href="#STIXGeneral-Regular-65" transform="translate(55.699997 0)"/>
     <use xlink:href="#STIXGeneral-Regular-72" transform="translate(100.099991 0)"/>
     <use xlink:href="#STIXGeneral-Regular-66" transform="translate(133.399979 0)"/>
     <use xlink:href="#STIXGeneral-Regular-6f" transform="translate(166.699966 0)"/>
     <use xlink:href="#STIXGeneral-Regular-72" transform="translate(216.699951 0)"/>
     <use xlink:href="#STIXGeneral-Regular-6d" transform="translate(249.999939 0)"/>
     <use xlink:href="#STIXGeneral-Regular-61" transform="translate(327.799927 0)"/>
     <use xlink:href="#STIXGeneral-Regular-6e" transform="translate(372.199921 0)"/>
     <use xlink:href="#STIXGeneral-Regular-63" transform="translate(422.199905 0)"/>
     <use xlink:href="#STIXGeneral-Regular-65" transform="translate(466.599899 0)"/>
     <use xlink:href="#STIXGeneral-Regular-20" transform="translate(510.999893 0)"/>
     <use xlink:href="#STIXGeneral-Regular-43" transform="translate(535.999878 0)"/>
     <use xlink:href="#STIXGeneral-Regular-75" transform="translate(602.699875 0)"/>
     <use xlink:href="#STIXGeneral-Regular-72" transform="translate(652.69986 0)"/>
     <use xlink:href="#STIXGeneral-Regular-76" transform="translate(685.999847 0)"/>
     <use xlink:href="#STIXGeneral-Regular-65" transform="translate(735.999832 0)"/>
     <use xlink:href="#STIXGeneral-Regular-20" transform="translate(780.399826 0)"/>
     <use xlink:href="#STIXGeneral-Regular-28" transform="translate(805.399811 0)"/>
     <use xlink:href="#STIXGeneral-Regular-49" transform="translate(838.699799 0)"/>
     <use xlink:href="#STIXGeneral-Regular-4d" transform="translate(871.999786 0)"/>
     <use xlink:href="#STIXGeneral-Regular-50" transform="translate(960.89978 0)"/>
     <use xlink:href="#STIXGeneral-Regular-41" transform="translate(1016.599777 0)"/>
     <use xlink:href="#STIXGeneral-Regular-4c" transform="translate(1088.799759 0)"/>
     <use xlink:href="#STIXGeneral-Regular-41" transform="translate(1149.89975 0)"/>
     <use xlink:href="#STIXGeneral-Regular-29" transform="translate(1222.099731 0)"/>
    </g>
   </g>
   <g id="legend_1">
    <g id="patch_21">
     <path d="M 933.453529 244.400156 
L 1097.523529 244.400156 
Q 1101.123529 244.400156 1101.123529 240.800156 
L 1101.123529 191.587031 
Q 1101.123529 187.987031 1097.523529 187.987031 
L 933.453529 187.987031 
Q 929.853529 187.987031 929.853529 191.587031 
L 929.853529 240.800156 
Q 929.853529 244.400156 933.453529 244.400156 
z
" style="fill: #ffffff; opacity: 0.8; stroke: #cccccc; stroke-linejoin: miter"/>
    </g>
    <g id="line2d_58">
     <path d="M 937.053529 201.487031 
L 955.053529 201.487031 
L 973.053529 201.487031 
" style="fill: none; stroke: #1f77b4; stroke-width: 3; stroke-linecap: square"/>
    </g>
    <g id="text_35">
     <!-- DQN -->
     <g transform="translate(987.453529 207.787031) scale(0.18 -0.18)">
      <use xlink:href="#STIXGeneral-Regular-44"/>
      <use xlink:href="#STIXGeneral-Regular-51" transform="translate(72.199982 0)"/>
      <use xlink:href="#STIXGeneral-Regular-4e" transform="translate(144.399963 0)"/>
     </g>
    </g>
    <g id="line2d_59">
     <path d="M 937.053529 226.993594 
L 955.053529 226.993594 
L 973.053529 226.993594 
" style="fill: none; stroke: #ce1126; stroke-width: 3; stroke-linecap: square"/>
    </g>
    <g id="text_36">
     <!-- MINTO (ours) -->
     <g transform="translate(987.453529 233.293594) scale(0.18 -0.18)">
      <use xlink:href="#STIXGeneral-Regular-4d"/>
      <use xlink:href="#STIXGeneral-Regular-49" transform="translate(88.899994 0)"/>
      <use xlink:href="#STIXGeneral-Regular-4e" transform="translate(122.199982 0)"/>
      <use xlink:href="#STIXGeneral-Regular-54" transform="translate(194.399963 0)"/>
      <use xlink:href="#STIXGeneral-Regular-4f" transform="translate(255.499954 0)"/>
      <use xlink:href="#STIXGeneral-Regular-20" transform="translate(327.699936 0)"/>
      <use xlink:href="#STIXGeneral-Regular-28" transform="translate(352.699921 0)"/>
      <use xlink:href="#STIXGeneral-Regular-6f" transform="translate(385.999908 0)"/>
      <use xlink:href="#STIXGeneral-Regular-75" transform="translate(435.999893 0)"/>
      <use xlink:href="#STIXGeneral-Regular-72" transform="translate(485.999878 0)"/>
      <use xlink:href="#STIXGeneral-Regular-73" transform="translate(519.299866 0)"/>
      <use xlink:href="#STIXGeneral-Regular-29" transform="translate(558.19986 0)"/>
     </g>
    </g>
   </g>
  </g>
 </g>
 <defs>
  <clipPath id="p3944d42f2d">
   <rect x="105.723529" y="31.640156" width="295.411765" height="221.76"/>
  </clipPath>
  <clipPath id="p5a3b9adfb9">
   <rect x="460.217647" y="31.640156" width="295.411765" height="221.76"/>
  </clipPath>
  <clipPath id="peb7a81882e">
   <rect x="814.711765" y="31.640156" width="295.411765" height="221.76"/>
  </clipPath>
 </defs>
</svg>
